<?xml version="1.0" encoding="utf-8"?>
<!-- Generator: Adobe Illustrator 22.0.1, SVG Export Plug-In . SVG Version: 6.00 Build 0)  -->
<svg version="1.1" id="Layer_1" xmlns="http://www.w3.org/2000/svg" xmlns:xlink="http://www.w3.org/1999/xlink" x="0px" y="0px"
	 viewBox="0 0 89.10738 206.17673" style="enable-background:new 0 0 89.10738 206.17673;" xml:space="preserve">
<style type="text/css">
	.st0{fill-rule:evenodd;clip-rule:evenodd;}
	.st1{fill-rule:evenodd;clip-rule:evenodd;fill:#007EC4;}
	.st2{fill-rule:evenodd;clip-rule:evenodd;fill:#EE334E;}
	.st3{fill-rule:evenodd;clip-rule:evenodd;fill:#FCB131;}
	.st4{fill-rule:evenodd;clip-rule:evenodd;fill:#009D57;}
	.st5{fill-rule:evenodd;clip-rule:evenodd;fill:#0081C8;}
	.st6{fill-rule:evenodd;clip-rule:evenodd;fill:#FFFFFF;}
</style>
<g>
	<path class="st0" d="M66.887,104.76373l0.71999-1.04398l0.71701-1.02802l0.709-1.017l0.69499-1.00598l0.67101-0.992l0.642-0.98001
		l0.61101-0.96701l0.56599-0.95499l0.519-0.94202l0.465-0.92697l0.40701-0.91302l0.33899-0.896l0.26801-0.88098l0.192-0.862
		l0.11-0.849l0.02299-0.82901l-0.067-0.81601l-0.158-0.806l-0.263-0.79898c-0.256-0.60703-0.35799-1.09402-0.61499-1.69702
		c-0.2-0.53101,0.446-0.832,0.83499-0.32098l1.343,1.73999l0.92101,2.034l0.76601,1.90802l0.64699,1.83398l0.53,1.76599
		l0.423,1.69601l0.32001,1.63599l0.228,1.573l0.146,1.52002l0.065,1.46399l-0.00101,1.41501l-0.064,1.36398l-0.116,1.32101
		l-0.162,1.27899l-0.198,1.242l-0.22701,1.20801l-0.248,1.172l-0.261,1.146l-0.26399,1.12201l-0.25999,1.103l-0.25,1.08099
		l-0.231,1.069l-0.205,1.05801l-0.172,1.04999l-0.12801,1.04498l-0.08299,1.04901l-0.026,1.04999l0.037,1.061l0.10699,1.07202
		l0.18399,1.09299l0.26901,1.11499l0.36,1.142l0.47699,1.20802l2.179,6.39801c0.194,0.54898-0.62199,0.74701-0.868,0.37601
		l-0.53-0.64001l-0.052-0.06201l-0.08-0.10199l-0.108-0.13699l-0.133-0.17401l-0.157-0.211l-0.179-0.24698l-0.19701-0.28
		l-0.222-0.31702l-0.23599-0.34698l-0.25101-0.38101l-0.265-0.41299l-0.276-0.44501l-0.286-0.478l-0.29401-0.504l-0.299-0.535
		l-0.30499-0.565l-0.308-0.59299l-0.30801-0.61801l-0.308-0.64899l-0.30499-0.67203l-0.30099-0.69998l-0.29601-0.724l-0.287-0.75
		l-0.27899-0.771l-0.26401-0.79501l-0.252-0.81699l-0.237-0.84201l-0.22101-0.85901l-0.20099-0.883l-0.18401-0.89798l-0.157-0.92001
		l-0.065-0.41901l-0.05899-0.40799l-0.05701-0.39999l-0.052-0.39102l-0.04601-0.38199l-0.045-0.37201l-0.039-0.36301
		l-0.03699-0.35199l-0.033-0.34l-0.03-0.33099l-0.02901-0.32101l-0.02299-0.30899l-0.02299-0.298l-0.02-0.28601l-0.02-0.27499
		l-0.01599-0.263l-0.01401-0.25l-0.013-0.237l-0.006-0.09399l-0.33,0.47202l-0.353,0.504l-0.351,0.51498l-0.354,0.52499
		l-0.35201,0.53802l-0.34799,0.54898l-0.343,0.565l-0.339,0.57901l-0.332,0.59799l-0.323,0.61401l-0.30901,0.63199l-0.29999,0.65298
		l-0.287,0.67603l-0.272,0.69598l-0.254,0.72299l-0.23801,0.74503l-0.21899,0.77298l-0.196,0.80301l-0.174,0.828l-0.149,0.85999
		l-0.12401,0.892l-0.097,0.92102l-0.067,0.95999l-0.03699,0.99302l-0.00401,1.03l0.03,1.06699l0.06601,1.10602l0.105,1.14697
		l0.138,1.16901l0.603,2.86499c0.17601,0.68503-0.59099,1.01602-0.92,0.25403l-0.40199-0.582l-0.013-0.02103l-0.02-0.03299
		l-0.02899-0.043l-0.037-0.05701l-0.04401-0.06799l-0.05299-0.08398l-0.06201-0.09802l-0.06799-0.10999l-0.08099-0.12701
		l-0.08601-0.13998l-0.09299-0.15802l-0.106-0.172l-0.11301-0.19l-0.12199-0.20499l-0.133-0.22501l-0.043-0.077l-0.04701-0.078
		l-0.047-0.078l-0.045-0.07999l-0.049-0.08002l-0.04601-0.08398l-0.049-0.08401l-0.05-0.08698l-0.05099-0.08603l-0.05-0.09097
		l-0.052-0.08902l-0.052-0.09198l-0.054-0.09402l-0.054-0.09399L62.77,133.87375l-0.056-0.09601l-0.03101-0.05499l-0.02899-0.05301
		l-0.03101-0.05399l-0.03-0.05499l-0.03101-0.05502l-0.03099-0.05698l-0.03401-0.05701l-0.03-0.056l-0.25099-0.448l-0.256-0.474
		l-0.26801-0.496l-0.27699-0.52002l-0.28101-0.54099l-0.287-0.569l-0.293-0.58701l-0.29401-0.60901l-0.299-0.62997l-0.302-0.65101
		l-0.29999-0.67203l-0.30101-0.68997l-0.3-0.711l-0.29999-0.73001l-0.29401-0.75l-0.291-0.767l-0.285-0.785l-0.27899-0.79999
		l-0.27501-0.819l-0.263-0.83801l-0.25699-0.85101l-0.246-0.866l-0.235-0.883l-0.22301-0.89899L55.6,115.83675l-0.196-0.92603
		l-0.183-0.939l-0.16701-0.95398l-0.14999-0.966l-0.13101-0.98001l-0.11499-0.991l-0.091-1.00201l-0.05299-0.681l-0.041-0.67099
		l-0.033-0.66299l-0.024-0.65601l-0.015-0.646l-0.008-0.634v-0.62299l0.004-0.61002l0.011-0.595l0.01599-0.58499l0.02-0.57001
		l0.02701-0.552l0.02699-0.53799l0.032-0.517l0.034-0.50101l0.033-0.48199l0.037-0.46301l0.037-0.44199l0.037-0.42001
		l0.03499-0.39798l0.03601-0.37601l0.06-0.621l-0.382,0.40601l-0.759,0.81601l-0.748,0.806l-0.73,0.80197l-0.714,0.79602
		l-0.69299,0.79898l-0.673,0.80301l-0.653,0.81l-0.632,0.82401l-0.60899,0.836l-0.58501,0.85699L47.1,106.26675l-0.534,0.90399
		l-0.511,0.93399l-0.481,0.96701l-0.457,1.004l-0.423,1.04501l-0.397,1.09198l-0.366,1.13702l-0.334,1.19199l-0.3,1.24799
		l-0.26399,1.30801l-0.233,1.37l-0.196,1.44101l-0.15601,1.51099l-0.12,1.58502l-0.076,1.664l-0.03999,1.745l0.007,1.83201
		l0.047,1.91898l0.09,1.96503l1.59399,7.19498c0.08,0.577-0.85899,0.896-1.11699,0.26602l-0.222-0.37802
		c-0.87601-1.49698-1.72701-3.00998-2.509-4.56l-0.33-0.65201l-0.345-0.67099l-0.35699-0.689l-0.37001-0.70999l-0.381-0.73199
		l-0.386-0.75403l-0.397-0.77899l-0.401-0.79999l-0.40399-0.827l-0.40601-0.84901l-0.405-0.879l-0.40699-0.90302l-0.401-0.93298
		l-0.398-0.96103l-0.391-0.98999l-0.384-1.022l-0.37399-1.05298l-0.36401-1.082l-0.349-1.11801l-0.338-1.151l-0.318-1.18201
		l-0.304-1.22101l-0.284-1.258l-0.262-1.29199l-0.24-1.33099l-0.218-1.37l-0.189-1.41101l-0.166-1.44901l-0.13499-1.48898
		l-0.104-1.534l-0.076-1.57602l-0.038-1.617l-0.009-1.06699v-1.052l0.01-1.04102l0.02-1.02597l0.026-1.01102l0.03201-0.992
		L30.3,93.20373l0.04401-0.957l0.05-0.93298l0.055-0.914l0.058-0.88699l0.061-0.867l0.063-0.83701l0.065-0.81299l0.066-0.78201
		l0.068-0.754l0.06499-0.724l0.065-0.69101l0.064-0.65601l0.063-0.62399l0.058-0.58499l0.056-0.54999l0.048-0.509l0.046-0.47
		l0.037-0.41299l-0.75,0.81998l-0.998,1.082l-1.015,1.09702l-1.029,1.121l-1.037,1.14099l-1.036,1.16599l-1.036,1.20102
		l-1.028,1.23099l-1.017,1.26602l-1,1.30298l-0.98,1.349l-0.954,1.392l-0.924,1.44l-0.888,1.492l-0.849,1.54501l-0.8,1.60098
		l-0.753,1.66699l-0.699,1.72702l-0.64,1.79401l-0.575,1.866l-0.507,1.94199l-0.437,2.01599l-0.354,2.09601l-0.275,2.18301
		l-0.183,2.26801l-0.092,2.35797l0.008,2.453l0.10699,2.55002l0.22,2.65l0.329,2.75198l0.446,2.85303l1.176,5.50598
		c0.184,0.61801-0.572,0.87701-1.024,0.30801l-0.218-0.258l-0.12099-0.14301l-0.193-0.23599l-0.257-0.32401l-0.319-0.409
		l-0.372-0.49301l-0.423-0.578l-0.466-0.65298l-0.506-0.733l-0.539-0.806L8.759,133.96375l-0.589-0.95099l-0.604-1.01602
		l-0.617-1.08398l-0.623-1.147l-0.625-1.20801l-0.616-1.26801l-0.61-1.323l-0.589-1.38098l-0.571-1.43201l-0.543-1.48199
		l-0.512-1.53l-0.474-1.57602l-0.429-1.62198l-0.382-1.66l-0.325-1.702l-0.266-1.737l-0.201-1.77301l-0.13-1.80499L0,106.43374
		l0.03-1.86398l0.117-1.89301l0.435-3.37802l0.701-3.32498l0.949-3.27301l1.171-3.22501l1.373-3.17798l1.552-3.13602l1.711-3.09601
		l1.847-3.06699l1.966-3.03601l2.058-3.01199l2.132-2.99301l2.185-2.97897l2.218-2.96502l2.224-2.95898l2.216-2.95599l2.185-2.957
		l2.131-2.96301l2.061-2.97l1.965-2.98099l1.849-3l1.715-3.01901l1.558-3.039l1.379-3.069l1.185-3.09799l0.966-3.134
		l0.73201-3.17001l0.47-3.21698l0.198-3.26199l-0.101-3.31702L42.759,9.52575l-0.756-3.44302l-1.79901-5.61899
		c-0.118-0.452,0.50101-0.66199,0.84401-0.21899l5.457,9.909l0.936,1.92999l1.37099,3.836l1.179,3.733l1.002,3.646l0.83701,3.56601
		l0.677,3.48401l0.52699,3.40799l0.384,3.32901l0.25,3.25299l0.121,3.18301l0.005,3.108l-0.106,3.03897l-0.203,2.97101l-0.302,2.905
		l-0.384,2.84201l-0.463,2.77701l-0.526,2.71698l-0.59,2.65802l-0.642,2.60098l-0.68201,2.54501l-0.72099,2.491l-0.748,2.44101
		l-0.763,2.388L46.889,81.34573l-0.77501,2.298l-0.772,2.25L44.587,88.10275l-0.73201,2.16599l-0.70099,2.129l-0.66301,2.091
		l-0.36,1.20599l0.916-1.40198l0.983-1.42102l1.01801-1.39899l1.05-1.38l1.069-1.35999l1.086-1.34302l1.092-1.32498l1.092-1.31403
		l1.08701-1.297l1.071-1.284l1.05299-1.27399l1.02501-1.263l0.98799-1.25201l0.94801-1.24698l0.89799-1.23502l0.842-1.229
		l0.77901-1.224l0.71199-1.21899l0.634-1.21201l0.55099-1.20898l0.46201-1.20602l0.367-1.20099l0.26599-1.202l0.16101-1.20001
		l0.047-1.20398l-0.071-1.20801l-0.19501-1.21899l-0.32899-1.22702l-0.67799-1.711c-0.27-0.70999,0.48799-1.05099,1.112-0.39099
		l1.435,2.345l0.95799,2.86301l0.80701,2.703l0.683,2.599l0.562,2.5l0.451,2.405l0.342,2.31299l0.243,2.23001l0.15201,2.147
		l0.06599,2.069l-0.015,1.996l-0.086,1.92899l-0.149,1.86099l-0.209,1.802l-0.258,1.74402l-0.30501,1.69501l-0.34,1.64398
		l-0.369,1.604l-0.394,1.561l-0.407,1.526l-0.416,1.496l-0.418,1.46899l-0.41299,1.44901l-0.401,1.43298l-0.38301,1.418
		l-0.35399,1.40802l-0.326,1.40598l-0.284,1.40601l-0.23801,1.409l-0.093,0.69l0.323-0.741l0.55301-1.13199l0.599-1.12201
		l0.632-1.104l0.664-1.09299l0.68799-1.08002l0.705-1.06598"/>
	<path class="st0" d="M68.86059,105.77743l0.72099-1.04099l0.718-1.03101l0.70999-1.017l0.69301-1.00598l0.67-0.992l0.644-0.98001
		l0.60901-0.96899l0.569-0.95502l0.519-0.94l0.465-0.92499l0.405-0.91501l0.339-0.896l0.269-0.88098l0.19099-0.862l0.11-0.84802
		l0.02301-0.82999l-0.06401-0.81799l-0.162-0.806l-0.263-0.79901l-0.73799-1.578l-0.989-1.40201
		c4.485,4.32101,8.29599,14.164,7.98,21.40302c-1.802,12.98801-4.22299,14.98599-2.53,24.869l0.627,3.647l0.03,0.18301
		l-0.16-0.30002l-0.19899-0.28299l-0.22-0.315l-0.237-0.349l-0.25101-0.379l-0.26399-0.41299l-0.27501-0.44601l-0.28699-0.47598
		l-0.29301-0.50601c-3.198-5.70802-4.79199-9.266-5.13899-15.76902c-5.407,7.72403-7.632,11.138-7.30501,17.76902l0.15001,3.077
		l-0.005,0.439l-0.179-0.828l-0.123-0.20499l-0.131-0.22299l-0.045-0.07901l-0.045-0.078l-0.045-0.078l-0.047-0.078l-0.048-0.082
		l-0.04601-0.08398l-0.05099-0.08401l-0.049-0.08698l-0.05101-0.08603l-0.05099-0.09l-0.05-0.09l-0.05299-0.09198l-0.054-0.09402
		l-0.05501-0.09598l-0.05299-0.09601l-0.05701-0.09702l-0.03-0.05399l-0.02899-0.05399l-0.033-0.05402l-0.02901-0.05399
		l-0.03099-0.05502l-0.032-0.056l-0.032-0.05899l-0.03101-0.05499l-0.24901-0.448l-0.25899-0.474l-0.267-0.49701l-0.27701-0.51901
		l-0.28-0.54398l-0.28799-0.56802l-0.291-0.58499l-0.29701-0.60999l-0.29799-0.63101l-0.30101-0.64899l-0.30099-0.67203
		l-0.30099-0.69199l-0.3-0.70801l-0.298-0.73398l-0.29399-0.74701c-3.37601-8.90701-4.22601-15.86902-3.32901-25.298
		c-11.912,12.72299-15.541,21.92999-13.51199,35.13801l0.57899,3.76999l0.07201,0.453l-0.276-0.67499l-0.151-0.26199l-0.142-0.24902
		l-0.129-0.228l-0.112-0.19901l-0.091-0.16397l-0.07001-0.134l-0.026-0.05301l-0.03-0.06l-0.03999-0.07401l-0.04201-0.078
		l-0.03999-0.07901l-0.043-0.07797l-0.04001-0.08002l-0.04199-0.07901l-0.043-0.082l-0.04401-0.082l-0.03999-0.08398l-0.043-0.08301
		l-0.043-0.08398l-0.045-0.086l-0.045-0.08502l-0.04301-0.086l-0.04799-0.091l-0.024-0.05099l-0.026-0.05298l-0.02499-0.05103
		l-0.028-0.04999l-0.02501-0.05301l-0.02299-0.05099l-0.028-0.05099l-0.026-0.05301l-0.332-0.65399l-0.343-0.66901l-0.35699-0.68799
		l-0.37201-0.711l-0.37799-0.73199l-0.38901-0.755l-0.395-0.77802l-0.40099-0.79999l-0.403-0.827l-0.40901-0.85001l-0.405-0.878
		c-6.65899-14.86301-6.04299-24.38303-4.58499-40.10901c-16.696,18.26099-21.365,28.53101-19.923,49.95499l0.41299,2.194
		c-0.021-0.10199-0.128-0.16498-0.19099-0.24698l-0.374-0.49503l-0.423-0.57599l-0.467-0.65298l-0.505-0.73203l-0.54-0.80499
		l-1.154-1.82999l-0.604-1.01801l-0.618-1.082l-0.622-1.147l-0.62399-1.20801l-0.617-1.26801l-0.608-1.32499l-0.592-1.38
		l-0.569-1.43201l-0.543-1.48199l-0.514-1.52899l-0.473-1.577l-0.429-1.61801l-0.382-1.664l-0.324-1.702l-0.268-1.73599
		l-0.19901-1.77301l-0.132-1.80499l-0.052-1.836l0.029-1.86002l0.119-1.89301l0.434-3.379l0.702-3.32599l0.948-3.272l1.17-3.22501
		l1.375-3.17599l1.551-3.138l1.713-3.09799l1.848-3.065l1.961-3.03799l2.061-3.01199l2.13-2.99301l2.187-2.979l2.214-2.96399
		l2.227-2.95801l2.218-2.95801l2.184-2.957l2.132-2.95898l2.059-2.97202l1.965-2.98199l1.84899-2.99899l1.71501-3.01801
		l1.55699-3.04199l1.382-3.069l1.183-3.09802l0.967-3.13199l0.731-3.172l0.472-3.216l0.19701-3.263l-0.10201-3.315l-0.418-3.37698
		l-0.757-3.44302l-1.099-3.46198l-1.84599-3.37802c1.89099,2.353,7.314,10.504,9.183,14.76401
		c5.00299,11.39499,8.776,24.89001,8.293,38.83801c-1.116,16.07898-6.23,27.90799-13.94501,42.84997
		c2.826-4.33398,5.619-8.28198,8.935-12.241l1.07201-1.28598l1.05099-1.272l1.024-1.26199l0.99001-1.255l0.948-1.24301l0.896-1.237
		l0.84601-1.23099l0.77899-1.22101l0.71001-1.22l0.63499-1.21301l0.55101-1.20798l0.461-1.20602l0.368-1.20099l0.265-1.202
		l0.161-1.20001l0.047-1.20398l-0.071-1.20901l-0.19499-1.21698l-0.327-1.23001l-0.44501-1.17999l-1.11301-1.94501
		c3.826,4.18201,5.826,11.29599,6.884,16.43899l0.34201,2.315l0.245,2.229l0.15199,2.14499l0.065,2.07101l-0.01399,1.99698
		l-0.086,1.92801l-0.149,1.86099l-0.209,1.80301l-0.25801,1.745l-0.30399,1.69202l-0.34001,1.64499l-0.36899,1.60199
		l-0.39301,1.56003l-0.409,1.52798l-0.416,1.49701l-0.418,1.46899l-0.41301,1.45001l-0.39999,1.42899l-0.382,1.42001
		l-0.35699,1.41098l-0.32401,1.40399l-0.284,1.40601l-0.239,1.41l-0.091,0.68701l0.32401-0.741l0.552-1.13202l0.59499-1.12
		l0.634-1.104l0.664-1.09399l0.688-1.07999l0.705-1.064"/>
	<path class="st1" d="M46.85569,12.33062c15.45,40.94202-1.68301,66.82101-6.653,88.08002
		c-0.00401,0.01599-0.00801,0.034-0.01401,0.04898c-4.82,11.79202-2.465,23.66501,0.48,33.90803
		c-3.457-6.9-9.61599-16.65101-9.85199-34.01002c-0.15-11.35699,1.467-20.93799,1.217-21.84601
		c-9.91,11.16602-25.54099,23.95203-20.071,55.26502l1.081,5.077c0,0-13.977-16.17899-12.264-36.11802
		c3.082-35.84097,54.825-61.95599,40.70399-100.38498l4.457,8.095"/>
	<path class="st0" d="M46.17788,148.36151c-7.38696,0-13.37,5.98499-13.37,13.36798c0,7.38306,5.98303,13.36804,13.37,13.36804
		c7.37903,0,13.37201-5.98499,13.37201-13.36804C59.54989,154.3465,53.55691,148.36151,46.17788,148.36151z M46.17788,172.5885
		c-5.99701,0-10.85797-4.85797-10.85797-10.85901c0-5.99695,4.86096-10.86096,10.85797-10.86096
		c5.99402,0,10.86102,4.86401,10.86102,10.86096C57.0389,167.73053,52.1719,172.5885,46.17788,172.5885z"/>
	<path class="st2" d="M64.87739,161.72952c0-5.99699,4.862-10.86099,10.85699-10.86099c6.004,0,10.86301,4.864,10.86301,10.86099
		c0,6.00101-4.85901,10.85901-10.86301,10.85901C69.73939,172.58853,64.87739,167.73053,64.87739,161.72952 M62.36939,161.72952
		c0-7.383,5.98399-13.36798,13.36499-13.36798c7.39,0,13.373,5.98499,13.373,13.36798c0,7.38301-5.983,13.36801-13.373,13.36801
		C68.35339,175.09753,62.36939,169.11253,62.36939,161.72952"/>
	<path class="st3" d="M18.37139,173.53233c0-7.383,5.98299-13.375,13.366-13.375c7.04799,0,12.821,5.453,13.33099,12.37201
		c-0.90199-0.088-1.76599-0.285-2.586-0.58701c-0.767-5.241-5.286-9.267-10.745-9.267c-5.995,0-10.852,4.86101-10.852,10.85699
		c0,5.994,4.85699,10.856,10.852,10.856c5.634,0,10.26799-4.29399,10.80899-9.79199c0.795,0.231,1.62601,0.379,2.47301,0.453
		c-0.752,6.668-6.414,11.849-13.282,11.849C24.35439,186.89835,18.37139,180.91534,18.37139,173.53233"/>
	<path class="st4" d="M47.48939,173.53185c0-6.03801,4.00299-11.14,9.50499-12.8c0.02901,0.328,0.04501,0.662,0.04501,0.998
		c0,0.577-0.04501,1.14099-0.136,1.687c-4.04001,1.58301-6.90001,5.51201-6.90001,10.11501
		c0,5.995,4.86101,10.85699,10.856,10.85699c5.67799,0,10.345-4.36,10.819-9.91899c0.79601,0.25,1.62,0.435,2.467,0.53299
		c-0.73399,6.69101-6.39799,11.896-13.286,11.896C53.47538,186.89883,47.48939,180.91484,47.48939,173.53185 M71.58039,171.76083
		c-0.85101-5.15399-5.32701-9.086-10.72101-9.086c-0.45599,0-0.90601,0.02701-1.349,0.08
		c0.02-0.338,0.03999-0.68199,0.03999-1.02499c0-0.505-0.03299-1.006-0.09099-1.49701c0.463-0.047,0.931-0.07599,1.39999-0.07599
		c7.03101,0,12.789,5.43199,13.325,12.32199C73.27438,172.34984,72.39538,172.10284,71.58039,171.76083"/>
	<path class="st5" d="M3.43189,161.72952c0-7.383,5.986-13.36798,13.369-13.36798c7.387,0,13.369,5.98499,13.369,13.36798
		c0,5.94601-3.88,10.98801-9.248,12.72501c-0.031-0.304-0.037-0.61099-0.037-0.922c0-0.617,0.048-1.21201,0.14301-1.798
		c3.897-1.64999,6.631-5.509,6.631-10.005c0-5.99699-4.862-10.86099-10.858-10.86099c-5.995,0-10.861,4.864-10.861,10.86099
		c0,6.00101,4.866,10.85901,10.861,10.85901c0.545,0,1.087-0.04001,1.61-0.12c-0.024,0.347-0.04,0.70299-0.04,1.064
		c0,0.493,0.026,0.98399,0.079,1.46899c-0.542,0.065-1.09,0.09601-1.649,0.09601
		C9.41789,175.09753,3.43189,169.11253,3.43189,161.72952"/>
	<path class="st6" d="M61.09499,118.40731c-0.52701,4.858,0.379,10.06101,1.92699,14.61903c0.08301,0.151,0.166,0.297,0.246,0.439
		c0.295,0.51999,0.562,0.98401,0.79401,1.379c0.722,1.22699,1.043,1.70401,1.043,1.70401l-0.439-2.08502
		c-1.759-13.085,3.526-19.042,6.939-24.06898c0.147,0.349,0.05099,3.37598,0.755,7.82397
		c1.53999,9.72302,7.12799,16.40501,7.12799,16.40501l-1.886-5.53098c-5.68199-13.14301,7.657-20.44102-2.53799-41.79401
		l-0.82401-1.14401c4.95801,9.16299-11.21199,19.75-13.14499,32.24899V118.40731"/>
	<path class="st0" d="M40.1887,100.46001c-4.82001,11.79202-2.46501,23.66501,0.47899,33.90702
		c0.071,0.14099,0.14,0.27899,0.20801,0.41299c0.23799,0.46701,0.463,0.89999,0.672,1.29401
		c0.04401,0.147,1.681,2.93799,1.681,2.93799l-1.504-6.79797c-1.24001-22.10703,5.36099-27.97303,13.836-37.08103
		c0.198,0.58301-0.95801,6.70001-0.36301,13.89301c0.877,10.61099,5.237,19.37501,7.82401,24.00001
		c-1.549-4.564-2.45599-9.77302-1.927-14.63401c0-0.03699,0-0.077-0.002-0.11398c-0.498-16.27802,12.631-27.263,1.927-57.63202
		l-1.17-2.004c6.02299,13.96099-13.965,25.763-21.66901,41.845C40.17869,100.49703,40.1887,100.47002,40.1887,100.46001"/>
	<path class="st0" d="M69.01449,197.80772h1.702l3.158,7.843l-1.455,0.526l-0.911-2.383h-3.30901l-0.869,2.32899l-1.48599-0.45999
		 M69.80248,199.09773c-0.01599,0.146-0.047,0.302-0.09,0.472c-0.045,0.17101-0.108,0.358-0.18399,0.563l-0.89001,2.48999h2.41101
		l-0.92101-2.46599c-0.049-0.125-0.09999-0.276-0.15599-0.45801C69.91749,199.51874,69.8625,199.31873,69.80248,199.09773
		 M62.02648,197.80772h1.498l0.009,8.14601h-1.502L62.02648,197.80772z M52.10949,198.09174l1.582-0.47101l3.319,5.31401
		c0.19299,0.314,0.345,0.575,0.457,0.78c0.11299,0.20599,0.202,0.39999,0.27499,0.58299c-0.05-0.373-0.08699-0.70399-0.112-0.98599
		c-0.026-0.283-0.04199-0.528-0.045-0.735c0-0.028,0.00101-0.07001,0.00301-0.12401c0.004-0.05499,0.004-0.09799,0.004-0.125
		l-0.082-4.52h1.414l0.11699,7.886l-1.54999,0.46301l-3.42801-5.49501c-0.08699-0.13499-0.17999-0.295-0.27699-0.48399
		c-0.099-0.189-0.226-0.45601-0.382-0.802c0.045,0.22299,0.07401,0.468,0.09601,0.73399
		c0.019,0.26401,0.03499,0.67401,0.045,1.22701c0,0.028,0.002,0.067,0.00699,0.117c0.00401,0.05299,0.00801,0.092,0.00801,0.12
		c0,0.033-0.002,0.05901-0.004,0.07899c-0.00201,0.01701-0.00201,0.03101-0.005,0.041l0.076,4.26001h-1.40201L52.10949,198.09174z
		 M45.71949,197.66473c0.647,0,1.214,0.09,1.707,0.271c0.494,0.18001,0.929,0.457,1.31099,0.83101
		c0.39801,0.392,0.70901,0.85899,0.93102,1.403c0.224,0.543,0.342,1.12199,0.35199,1.739c0.01001,0.571-0.091,1.131-0.298,1.683
		c-0.209,0.54799-0.49699,1.004-0.864,1.371c-0.375,0.37199-0.81299,0.655-1.314,0.849
		c-0.50099,0.19099-1.05499,0.28499-1.66299,0.28499c-0.66501,0-1.24001-0.088-1.726-0.265
		c-0.48401-0.177-0.927-0.45599-1.32001-0.83699c-0.408-0.395-0.718-0.853-0.939-1.375c-0.22-0.522-0.334-1.09001-0.345-1.70201
		c-0.022-1.25999,0.351-2.284,1.12399-3.06999C43.44349,198.05873,44.46049,197.66473,45.71949,197.66473 M45.74149,198.93674
		c-0.806,0-1.442,0.26999-1.908,0.81c-0.464,0.541-0.69,1.269-0.673,2.185c0.015,0.871,0.267,1.571,0.755,2.099
		c0.487,0.52299,1.129,0.78799,1.92,0.78799c0.802,0,1.439-0.26999,1.907-0.806c0.46901-0.53999,0.69501-1.265,0.68001-2.181
		c-0.01601-0.87099-0.27-1.571-0.75801-2.101C47.17449,199.20174,46.53249,198.93674,45.74149,198.93674 M34.24449,197.80772
		h5.94999l0.01001,1.30801h-2.218l0.005,6.838h-1.539v-6.838h-2.232L34.24449,197.80772z M31.87249,198.29373l-0.568,1.09599
		c-0.307-0.183-0.599-0.31499-0.876-0.407c-0.281-0.09099-0.546-0.13499-0.801-0.13499c-0.38799,0-0.695,0.09399-0.92599,0.283
		c-0.231,0.192-0.346,0.439-0.34,0.741c0.008,0.409,0.454,0.839,1.33601,1.291c0.097,0.05099,0.173,0.088,0.222,0.118
		c0.03699,0.017,0.099,0.047,0.17999,0.09c0.638,0.336,1.082,0.666,1.327,0.992c0.144,0.196,0.255,0.407,0.333,0.633
		c0.074,0.228,0.113,0.46901,0.119,0.729c0.01099,0.717-0.231,1.29601-0.734,1.73801c-0.503,0.439-1.17101,0.65999-2.01,0.65999
		c-0.39,0-0.772-0.05099-1.137-0.151c-0.366-0.09999-0.73-0.252-1.092-0.45599l0.53101-1.19099
		c0.269,0.18199,0.533,0.31799,0.789,0.40399c0.259,0.086,0.52,0.13,0.78999,0.13c0.387,0,0.69601-0.101,0.925-0.29401
		c0.231-0.196,0.345-0.45799,0.339-0.784c-0.007-0.461-0.46799-0.935-1.384-1.418c-0.087-0.047-0.151-0.08-0.198-0.104
		c-0.708-0.371-1.18501-0.722-1.43-1.049c-0.244-0.327-0.37-0.73601-0.37901-1.22701c-0.013-0.70799,0.222-1.271,0.709-1.689
		c0.486-0.422,1.155-0.629,1.996-0.629c0.363,0,0.733,0.05099,1.106,0.15599
		C31.07349,197.92273,31.46749,198.08173,31.87249,198.29373 M19.36449,197.80772h4.49799l0.01,1.274h-2.997v2.063h2.93
		l-0.003,1.25999h-2.926l0.00401,2.26501h3.077v1.284h-4.586L19.36449,197.80772z"/>
</g>
</svg>
