<?xml version="1.0" encoding="utf-8"?>
<!-- Generator: Adobe Illustrator 26.5.3, SVG Export Plug-In . SVG Version: 6.00 Build 0)  -->
<svg version="1.1" xmlns="http://www.w3.org/2000/svg" xmlns:xlink="http://www.w3.org/1999/xlink" x="0px" y="0px"
	 viewBox="0 0 538.6 538.6" style="enable-background:new 0 0 538.6 538.6;" xml:space="preserve">
<style type="text/css">
	.st0{fill-rule:evenodd;clip-rule:evenodd;fill:#2E3192;}
	.st1{fill-rule:evenodd;clip-rule:evenodd;fill:#FFFFFF;}
	.st2{display:none;}
	.st3{display:inline;}
	.st4{fill-rule:evenodd;clip-rule:evenodd;stroke:#000000;stroke-width:0.216;stroke-miterlimit:2.4142;}
	.st5{display:inline;fill-rule:evenodd;clip-rule:evenodd;}
	.st6{fill-rule:evenodd;clip-rule:evenodd;fill:url(#SVGID_1_);}
	.st7{fill:#00A651;}
</style>
<g id="Page_1">
	<g>
		<path id="_" class="st0" d="M269,534.2c-145.4,0-264-118.6-264-264c0-145.4,118.6-264,264-264c145.4,0,264,118.6,264,264
			C533.1,415.6,414.5,534.2,269,534.2L269,534.2z"/>
		<path id="__00000045621092661405961320000014847926947305633693_" class="st1" d="M269,518C132.5,518,21.2,406.7,21.2,270.2
			S132.5,22.4,269,22.4c136.5,0,247.8,111.3,247.8,247.8S405.5,518,269,518L269,518z"/>
		<path id="EESTI_TAEKWON-DO_LIIT" class="st0" d="M76.7,249.3L74.9,272L39,269.2l1.8-22.7l9,0.7l-0.9,11.6l4.7,0.4l0.8-10.7
			l8.5,0.7L62,259.8l4.9,0.4l0.9-11.6L76.7,249.3L76.7,249.3z M70.4,217.2c4,0.7,6.8,2.6,8.6,5.6c1.7,2.9,2.1,6.6,1.3,10.9
			c-0.9,4.7-3,8.9-6.4,12.6l-7.8-5.4c3-2.6,4.7-5.2,5.1-7.7c0.2-1.3,0.2-2.3-0.2-3.1c-0.3-0.7-0.8-1.1-1.5-1.2
			c-0.9-0.2-1.8,0.2-2.7,1c-0.8,0.9-2,2.6-3.4,5.2c-1.3,2.4-2.8,4-4.4,4.9c-1.9,1.1-4.1,1.4-6.8,0.9c-3.6-0.7-6.3-2.5-8-5.4
			c-1.6-2.8-2-6.2-1.3-10.1c0.7-3.9,2.5-7.5,5.2-10.8l7.8,5c-2.2,1.9-3.6,4-4,6.4c-0.2,0.9-0.1,1.7,0.1,2.4c0.3,0.7,0.7,1.1,1.3,1.2
			c0.7,0.1,1.3-0.1,1.9-0.8c0.7-0.7,1.8-2.4,3.5-5.1c1.7-2.7,3.4-4.5,5.2-5.5C65.9,217,68,216.7,70.4,217.2L70.4,217.2z M65.3,185
			l-2.4,7.3l25.5,8.5l-3.5,10.5l-25.5-8.5l-2.5,7.3l-8.7-2.9l8.4-25.2L65.3,185L65.3,185z M97.7,180.4l-5,10l-32.2-16.1l5-10
			L97.7,180.4L97.7,180.4z M75.9,277.4l1.8,22.7l-35.9,2.8L40,280.2l9-0.7l0.9,11.6l4.7-0.4L53.7,280l8.5-0.7L63,290l4.9-0.4
			l-0.9-11.6L75.9,277.4L75.9,277.4z M130.5,97.9l-5.6,5.3l18.3,19.6l-8.1,7.6l-18.3-19.6l-5.7,5.3l-6.3-6.7l19.4-18.1L130.5,97.9
			L130.5,97.9z M157.8,94l-9-7.9l3.2,11.5L157.8,94L157.8,94z M179.2,97.8l-10,6.3l-5.2-4.7l-9.6,6l1.9,6.8l-10,6.3l-8.9-36.9
			l12.4-7.8L179.2,97.8L179.2,97.8z M202.4,87.6l-20.8,9.3L166.9,64l20.8-9.3l3.7,8.2l-10.6,4.7l1.9,4.3l9.8-4.4l3.5,7.7l-9.8,4.4
			l2,4.5l10.6-4.7L202.4,87.6L202.4,87.6z M241.6,77.5l-13.1,3l-13.7-13.2l3.6,15.6l-10.8,2.5l-8.1-35.1l10.8-2.5l3.4,14.7l6.6-17
			l12.4-2.9l-8.5,19.8L241.6,77.5L241.6,77.5z M292.9,39.5l-9.6,36.2L272.5,76l-5.8-19.7l-5.4,19.9l-10.7,0.2L240,40.5l11.4-0.2
			l5.4,20.4l5.5-20.6l8.4-0.2l6,20.4l4.8-20.6L292.9,39.5L292.9,39.5z M325.9,65.2c0.6-2.5,0.2-4.8-1-6.9c-1.2-2-3-3.2-5.3-3.8
			c-2.3-0.5-4.5-0.2-6.5,1.1c-2,1.3-3.3,3.2-3.9,5.7c-0.6,2.5-0.2,4.8,1,6.9c1.2,2,3,3.2,5.4,3.8c2.3,0.5,4.5,0.2,6.4-1.1
			C324,69.6,325.3,67.7,325.9,65.2L325.9,65.2z M337.1,67.8c-1.2,5.2-3.9,9.2-8.2,11.9c-4.5,2.9-9.7,3.6-15.7,2.2
			c-6-1.4-10.4-4.3-13.2-8.9c-2.6-4.3-3.4-9-2.2-14.2c1.2-5.2,3.9-9.2,8.2-11.9c4.5-2.8,9.8-3.6,15.8-2.2c6,1.4,10.4,4.3,13.2,8.8
			C337.6,57.8,338.3,62.6,337.1,67.8L337.1,67.8z M369.4,101.9l-10.6-4.7l-4.1-22.6l-7.7,17.3l-9.5-4.2l14.6-33l11.3,5l3.4,22.3
			l7.7-17.3l9.5,4.2L369.4,101.9L369.4,101.9z M405.3,106c1.7-2.2,2.4-4.5,2.1-6.7c-0.3-2.1-1.5-4-3.6-5.6l-1.6-1.2l-10.7,14
			l1.5,1.1c1.9,1.5,3.9,2.2,5.8,2.1C401.2,109.8,403.4,108.5,405.3,106L405.3,106z M438.3,140.2c1.9-1.7,3-3.8,3.1-6.2
			c0.1-2.3-0.6-4.4-2.2-6.2s-3.5-2.8-5.9-2.9c-2.4-0.1-4.6,0.7-6.5,2.4c-1.9,1.7-3,3.8-3.2,6.2c-0.1,2.3,0.6,4.4,2.2,6.2
			c1.6,1.8,3.5,2.8,5.9,2.9C434.2,142.8,436.4,142,438.3,140.2L438.3,140.2z M414.5,113.1c-3.2,4.1-7.1,6.5-11.8,7.1
			c-4.9,0.6-9.7-0.8-14.4-4.4l-11.3-8.6L399,78.5l11.5,8.8c4.8,3.7,7.4,8,7.9,13.1C418.8,104.9,417.5,109.2,414.5,113.1L414.5,113.1
			z M446,148.9c-4,3.6-8.5,5.2-13.5,4.9c-5.3-0.3-10-2.7-14.1-7.4c-4.1-4.6-6-9.6-5.6-14.9c0.3-5,2.5-9.3,6.5-12.8
			c4-3.6,8.5-5.2,13.5-4.9c5.3,0.3,10,2.8,14.1,7.4c4.1,4.6,6,9.6,5.6,14.9C452.2,141.1,450,145.3,446,148.9L446,148.9z
			 M455.3,210.4l-8.2-20.8l33.5-13.2l4.1,10.3l-25.1,9.9l4.1,10.5L455.3,210.4L455.3,210.4z M459.4,224.9l-3.2-10.7l34.5-10.3
			l3.2,10.7L459.4,224.9L459.4,224.9z M462.4,242.1l-2-10.9l35.4-6.6l2,10.9L462.4,242.1L462.4,242.1z M492.3,270.1l-0.6-7.7
			l-26.8,2.1l-0.9-11.1l26.8-2.1l-0.6-7.7l9.1-0.7l2.1,26.5L492.3,270.1L492.3,270.1z"/>
		<g id="Copy" class="st2">
			<g class="st3">
				<path class="st4" d="M233.4,438.7c-38.2-8-71.9-28.5-96.4-57c-7.9,3.8-16.1,7.4-24.4,10.6c-12.2,5.5-24.7,10.3-37,15.2
					c-2.9-1.8-2.5-2.6,1.5-4.5c11.8-5.6,27.8-17.2,38.6-24.3c3.9-3.1,7.8-6.2,11.8-9.3c-4.1-5.7-7.9-11.7-11.2-17.9
					c-0.9-0.9-1.7-1.8-2.5-2.7h1.1c-0.3-0.6-0.6-1.1-0.9-1.7c-12.2,5.5-24.4,11.5-36.6,18.3c-7.3,3.2-14.5,7.8-21.8,11.1
					c-2.5,0.5-4.5,0.3-1.4-2.8c18.1-13.5,36.3-25.6,54.9-37.3c-8.6-20.4-13.4-42.8-13.4-66.3c0-5.7,0.3-11.4,0.8-17
					c0-0.5-0.1-1-0.1-1.5h0.2c2.2-20.1,7.9-39.2,16.4-56.6c0,0-0.1-0.1-0.1-0.1h0.2c2.1-4.3,4.4-8.5,6.8-12.6
					c-3.6-0.7-7.3-1.2-10.4-2.9c-3.6-2-5.9-5.5-8.7-8.4c-1.1-1.9-2.3-3.8-3.4-5.7c-1.1-7.5,2-11.1,3-10.4c2.4,1.8-4.1-6.1-5.8-8.4
					c-1.9-1.5-2.7-3-0.9-4.3c21.4-0.1,42.7-1.2,63.8-3.9C187.6,113.3,226.6,98,269,98c62.5,0,117.5,33.1,148.1,82.6
					c0.1,0,0.1,0,0.2,0.1c0,0-0.1,0.1-0.1,0.1c13,21.1,21.6,45.2,24.4,71h1.7c-0.1,2.4-0.4,4.8-1.1,7.2c0.2,3.7,0.4,7.5,0.4,11.3
					c0,28.4-7,55.2-19.3,78.8l-3.1,5.7c-18.6,32.6-47.6,58.6-82.5,73.6c-0.6,0.9-1.3,1.8-1.9,2.7c-9.7,15.9-18.4,31.5-24.4,47.4
					c-1.2-0.5-3-1-4.2-0.1c-1.8-1.1-1.2-0.3-1.8-0.6c-1.8-0.5-3.6-0.9-5.3-1.4c-13.1-9.7-18-11.7-26.5-28.3c0,0,0,0,0,0
					c-3.7,1-8.3,1.4-10.5,1.4l-4.7,0c-0.8,5.6-1.2,7.8-2,13.5c-1.2,3-1.9,10.1-0.3,13.4c1.8,1.5,3.8,2.7,7.6,2
					c4.9-0.4,9.6-0.4,13.8,0.3c4.8,2.3,9.8,3.5,15.2,4.4c3.1-0.2,6.4,0.7,9-0.7c2.3-0.2,4.8,1,7,0.8c2.3,0.1,2.9-2.9,3.7-4.7
					c-0.5,2-0.9,3.9-1.4,5.9c-8.7,0.5-17.6,0.7-27.6-0.3c-6.6-2.2-13.4-3-20.5-1.4c-5.7-0.6-9.8-1.9-10-5.3
					c-0.2-3.6,0.2-8.5,0.7-11.7c2-6.6,1.3-10.2,1.6-16.4c-2.2-1.5-22.8-0.5-22.1-3.8C233.3,444.6,233.4,442.1,233.4,438.7
					L233.4,438.7z"/>
				<path class="st1" d="M152.4,193.8c-4.5-3.7-6.5-5.9-14.3-9.3c-8.8-3.8-24.1-5.2-31.1-9.3c-0.5-2.6-2.3-4.4-4.8-6.3
					c-2.9-3-3.5-5.9-3.5-9c2.9-2.1,3.2,0.2,4.7,1.7c-1-3.2,0.5-5.1,3.1-4.7c-0.2-1.8,1.9-3.6,4.7-3.4c4.5,0.3,7.3,1,9.2,3.6
					c6.5,2.3,13.3,10.7,20,15.2c4.6,2.9,9.2,4.6,13.9,7.5C154.9,181.9,154.6,193.9,152.4,193.8L152.4,193.8z"/>
				<path class="st1" d="M285.3,192.9c-6.7,10.3-13.6,28.3-8.8,31.1c8.8,2.2,17.6,4,26.4,5.4c5.6,1.4,10.1,3.4,13.2,6.1
					c10.6-1.6,20.8-1.7,30.5,0.3c10.1-3,10.2-7.7,7.8-12.5c-8.5-5.5-15.6-11.6-24.1-17.1c-2.8-5.1-13.3-7.3-23.3-9.6
					C299.7,195.4,292.5,194.1,285.3,192.9L285.3,192.9z"/>
				<path class="st1" d="M242.9,199.1c-1.3-1.2-2.1-2.5-0.6-4.6c0.7-0.7,1.9-1.3,1.8-2.1c-0.2-2.3,1-4.5,1.8-6.6
					c0.9-2.3,2.9-4,5-2.9c8.6,2.2,17.1,4.5,25.7,6.7c3.2,1.4,2.9,5,1,8.2c-3.1,1.2-7.1,2.8-11,3.1c-2.5,0.5-5.1,1.5-7.6,2.7
					c-1.5,1.9-3.2,2.2-6.3,1.8c-0.9-1-4.8-0.8-5.5-1.8c-0.7-1.7,0.6-3,3-3.3c1.1,0.1,2.1,0.2,3.2,0.3c1.2-1.2,1.6-2.3,1.1-3.5
					c-1.5-0.7-3.2-1-5.6-0.3C247,197.7,245.3,198.6,242.9,199.1L242.9,199.1z"/>
				<path class="st1" d="M360.3,361.7l1.3,2.8c-0.3,0.7-0.6,1.4-0.9,2.1c1.6,0.6,3.4,0.9,5.7,0.9c9-1.5,15.1-4.6,18.7-7.8l13.1-8.2
					c2.4-1.6,4.8-3.5,5.6-5.9c-0.3-2.2-0.2-8.8-0.1-14.4c-0.7-12.5-0.2-29.2-6.1-42.7c-6.4-16.6-26.5,15.2-28.9,23.3
					c4.7,5,7.3,14.3,12.4,15.2c4.5,1.1,9,1.3,13.5,2.4c2.6,3.1,3.9,5.9,2.3,7.9c-4.5-1.5-7.8-5.1-12.3-6.6l-10.7-0.9
					c-8.2,1.3-18.8,2.2-20,4.6c0.1,0.8,0.1,1.8,0.7,1.9c3.2,0.7,5.6,1.5,6.7,3.6c-0.6,0-1.2-0.1-1.7-0.1c-1.7-0.1-3.2-1.8-5-1.9
					c-3.6-0.3-7.6-0.6-10.9-0.3c0,0,0,0-0.1-0.1c0.4,1.1-9.7-8-11.8-9.4c-1.5-1.1-3.2-1.5-5.1-1.1c-0.3,1.4,0.6,2.7,2.8,3.9
					c0.6,1.6,0.9,3.1,0.8,4.5c-1.7-2.2-3.4-4.5-5.1-6.7c-2.2-0.4-4.3-0.1-6.5,0.8c-0.5,1-0.6,2.1-0.6,3.2c0,1-0.9,1.7-0.8,2.7
					c-0.5,0.3,0.3,1.6,0.1,2.7c-0.2,0.9-0.2,1.8-0.3,2.2c-0.2,2,0.6,2.1,0.7,4.1c0.9,2.3,2.4,3.4,4.2,3.9c2.9,0.9,5.8,1.9,8.7,2.8
					c5.3,1,10.6,1.5,15.7,1.7c6.5,1.2,12.9,2.4,19.4,3.7c0.7-1.8,0.7-3.7,0-5.6c-1.3-4.2-3.3-7.5-5.2-9.5c0.5-0.6,2.1,0.6,3.2,1.1
					c2.4,2.9,4.4,5.8,5.3,8.7c0.8,3.8,0.7,7.3,0,10.7c-1.2,2.8-3.6,3-6.5,1.7C362.1,363,361.2,362.3,360.3,361.7L360.3,361.7z"/>
				<path class="st1" d="M353.8,259.8c-0.1-4.9,0.9-9.7,1.3-14.5c0.2-2.2-0.4-4.1-1.4-5.7c0.4-1.3,1.8-3.5,2.4-4.8
					c0.2-0.5-0.7-0.1-0.7-0.4c-1.2,2.7-3.2,4-5.4,4.6c-8,1.6-16,3.2-23.9,4.8c-12.1,4.5-24.1,8.9-36.2,13.4
					c-2.6,2.4-3.8,5.7-4.3,9.4c-0.5,2.8-0.6,5.5-0.3,8.3c-2.9-0.1-5.5-0.8-8.3-0.9c0.1-4.2-0.1-5.7,0-9.9c0.2-2.3,0.9-6.5,2.1-8.6
					c-2-1.3-4-2.7-6-4c-5.7-2.9-11.4-5.7-17.1-8.6c-5.1-4.5-10.3-8.9-15.4-13.4c-5.8-2.7-11.6-6.3-17.4-8.9
					c-7.1-4.8-15.5-7.7-19.3-14c-4.5-7.4-6-10.7-12.7-14.9c-4.6-3.4-9.8-5.4-14.4-8.9c-10.8-4.8-19-7.2-20.1-0.4
					c-1,6.3,0.1,18.9-1,25.2c1.3,8.6,10.6,8.3,19.6,15.9c10.1,5.2,20,10.5,28.8,18.2c9.9,12.1,19.1,24.8,29,36.8
					c2,14.1,4.6,27.5,6.6,41.5c-15.2,10.1-30.4,20.1-45.6,30.2c-5.3,3.1-10.6,6.2-15.9,9.3c4.3,10.5,9.4,20.2,15,29
					c13,3.6,27,6.3,41.7,7.9c0.5-3.9,1-7.8,1.5-11.7c0.2-11.8,0.4-23.6,0.6-35.4c0.8-8.4,1.7-16.9,2.5-25.3
					c0.2,10.8,0.4,21.6,0.6,32.3c0.5,21,1.2,36.7-3.4,57.1c0.1,8.5,0.2,17.1,0.3,25.6l11.9,2c-4-0.5-8-1.1-11.9-1.8c0,1,0,1.9,0,2.9
					c11.4,2.3,25.2,4.1,36.8,4.7c0.2-0.9,0.5-1.8,0.7-2.7c-1.4-8.8-2.8-17.6-4.2-26.5c1.5-8.2,3.1-16.4,4.6-24.6
					c-0.8-5.4-1.5-10.8-2.3-16.2c-0.8-7.1-1.5-14.2-2.3-21.4c1.9,4.3,3.7,8.7,5.6,13c1.1-1.1,2.2-2.2,3.2-3.2
					c-2.7-19.2-1.5-30.5-12.8-45.9c4.3,2.2,7.4,10.5,11.8,12.6c-0.8-3.9-0.9-11.1-1.7-15c2.3,1.9,4.6,4.6,7,6.5
					c-0.5-4.5-0.9-9-1.4-13.5c-1.5-5.4-3.1-10.8-4.6-16.2c-2.5,1.5-5,3.1-7.4,4.6c-3.6,7.9-7.1,15.8-10.7,23.7
					c-1.9-0.8-3.7-1.5-5.6-2.3c1.9-7,3.7-13.9,5.6-20.9c1.5-2.9,3.1-5.9,4.6-8.8c-4,0-8,0-12.1,0c-1.5-3.4-3.1-6.8-4.6-10.2
					c9.1,0,18.3,0,27.4,0c0.9-1.2,1.9-2.5,2.8-3.7c1.7-0.7,3.4-0.9,5.1-0.5c2.6,2.6,1.8,5.4-0.5,8.4c0.3,2.5,0.6,5,0.9,7.4
					c0.8,0.6,1.5,1.2,2.3,1.9c0.9,3.7,1.9,7.4,2.8,11.1c12.7,3.8,29.7-13.5,28.3-6c1,3.6,12.4,0.6,23.7-2.3
					c3.6-1.4,7.1-2.8,10.7-4.2c-6.2,3.6-12.4,7.1-18.6,10.7c-5,2-16.7,5.5-21.8,7.4c-4.1,1.5-2.6,2.1-2.3,2.4
					c8.4-1.3,16.6-3.9,24.6-7.4c6.5,0.3,13.5-0.3,22.3-4.2c3.9-2,7.7-4,11.6-6c-4.8,4.8-11.6,10.2-8.8,13c8.8-7.4,29.5-17,31.2-24.8
					c7.4-15.5-8.4-11.5-30.8-3.3c-3.1-1.1-17.8-5.1-15.8-12.1c0.5-1.6,3.3-2.2,5.7-4.4c-0.7,2.5-0.9,5.1,0,7.9
					c0.6,1.7,1.8,3.3,3.7,4.6c4.2,0.9,8.4,1.1,12.5-1.4c3.5-2,8.3-4.9,7.4-9.3v-0.6l-0.7-0.7l-9-0.9l-5.6-1l-1.6-0.7L353.8,259.8
					L353.8,259.8z"/>
				<path class="st1" d="M355.1,259l0.7,1.2c1.2,0.5,2.6,0.9,4,1l16.1-0.4c2.1-0.7,3.3-2.8,4.5-7c0.9,0.5,3.6,0.2,4.8-0.2
					c1.3-1.1,4.2-1.5,5.1-6.2c0-3-0.8-4.3-4-3.4c-0.8,0.6-2.1,1.2-2.8,1.8c-1.1,0.2-2.1,0.5-3.1-0.2c1.8-4.3,3.6-6,1.3-9.5
					c-0.5-0.8-0.6-1.5-0.8-2c-1.8-4.1-2.4-2.7-4.7-5.2c-7.8-8.1,24.4-22.2,28.8,3.8c3.1-8.1-10.2-16-17.3-17.3
					c-5.3-0.7-13.4-2.1-17.3,0.6c-5.5,1.5-9.3,9.6,3.3,4.9c1.6,1.3,2.5,2.1,1.1,3.5c-1.7-0.6-3.4-1.1-5.1-1.7
					c-1.1,0.4-2.4,0.5-3.1,2c-1.4,2.8-2.7,5.5-4.6,8.3c-1.5,1.9-3,3.8-4.6,5.7c-0.4,0.8,0.4,2.2,1.2,2.5c1.7,1,3.2,1.3,1.7,2.4
					c-0.9,0.4-1.2-0.3-2,0.1c-0.1,0.9-1.4,2.4-1.5,3.2c-2.2,2.6,2.7,2.7,4.1,3.4c-0.7,1.1-2.9,0.3-4,0.3c-2.2,1.1-0.9,2.3-0.3,3.5
					C355.7,255.2,355.1,257.2,355.1,259L355.1,259z"/>
			</g>
			<path class="st5" d="M367.1,234.6c0-0.5-2.5,0-2.5-0.5c-0.1-0.7,2-1.7,2-2.4c3.5,1.1,7.6,1.1,12.2,4.7c0,0.4,0,0.8,0,1.2
				c-1.7-1-5.8-1.9-8-2.2c-1.2,1.1-0.4,0.3-1.8,1.2c-1.2,0.4-1.8,1.2-2.9,0.8c-0.6-1.1-0.9-1.1-0.5-1.8
				C366.2,235.1,366.4,234.9,367.1,234.6L367.1,234.6z"/>
		</g>
		
			<radialGradient id="SVGID_1_" cx="-106.9613" cy="676.4109" r="151.684" gradientTransform="matrix(1.1109 0 0 1.1109 387.8428 -481.7119)" gradientUnits="userSpaceOnUse">
			<stop  offset="0" style="stop-color:#FFFCD5"/>
			<stop  offset="1" style="stop-color:#00AEEF"/>
		</radialGradient>
		<path class="st6" d="M346.1,146.7c6-2.2,11.7-4.8,17.3-7.5c-16.6-14.5-36-25.2-57.1-31.1C321.4,116.5,334.9,129.8,346.1,146.7
			L346.1,146.7z M235,396.7c1.6-8.4,2-17.2,1.7-26.3l0.8-26l2.2-24.1L222.1,332l-20.9,13.9l-22.9,14c3.6,9.8,8.8,19.5,15,29
			C207.7,392.8,221.5,395.4,235,396.7L235,396.7z M334.3,327.4c-0.8-0.8-1.5-1.6-2.3-2.4c-3-0.2-5.9-0.4-8.9-0.5
			c-0.4,0.5-0.9,1.1-1.3,1.6c-1.9,0.4-3.8,0.8-5.7,1.2c-0.5,0.7-1.1,1.3-1.6,2c-0.8,5.1-0.4,10-0.4,15.3c0.8,2.3,1.3,4.4,3.7,5.5
			c1.7,0.5,3.4,1.1,5,1.6c-3.4,2.8-6.8,5.5-10.2,8.3c-3.9,5.6-5.8,11.2-6.7,16.9c0,3.3,0,6.6,0,9.8c1,0,2.1,0,3.1,0
			c2.1-1.9,4.1-3.7,6.2-5.6c0.8,0,1.5,0,2.2,0c-2.1,2.7-4.1,5.4-6.2,8.2c-1.2,2.4-2.5,4.8-3.7,7.1c-8.7,1.1-17.6,1.8-26.7,2.1
			c0-2,0.1-4,0.1-6.1c2.8-18.3,5.6-36.5,8.4-54.8c1.7-5,3.4-9.9,5.1-14.9c2.8-1,5.6-2,8.3-3c2.1-0.2,4.3-0.4,6.4-0.6
			c2.8,0.6,5.6,1.1,8.5,1.7c5,0,9.9,0,14.9,0c1.9,1.4,3.7,2.8,5.6,4.2c-1.2,0.8-2.5,1.6-3.7,2.5
			C334.4,327.4,334.3,327.4,334.3,327.4L334.3,327.4z M182.3,413.5c-13.6-10-25.7-22.3-35.9-36.3c-1.6,0.8-3.1,1.6-4.7,2.4
			C153.3,392.8,167,404.3,182.3,413.5L182.3,413.5z M136.8,362.4c-3.8-6.6-7.3-13.5-10.3-20.7c-2.7,1.1-5.4,2.3-8.1,3.5
			c1.1,2.2,2.3,4.3,3.5,6.5c4.1,4,8.8,7.8,13.9,11.4C136.2,362.9,136.5,362.7,136.8,362.4L136.8,362.4z M121.6,328.6
			c-5-15.1-8.1-31.2-9-47.9c-5.2-4.5-9.3-9.2-12.1-14.1c0,1.2,0,2.4,0,3.7c0,22.5,4.5,44,12.7,63.6C116,332,118.8,330.3,121.6,328.6
			L121.6,328.6z M112.4,275.3c0-1.7-0.1-3.4-0.1-5.1c0-22.7,4-44.5,11.4-64.4c-2.5-2.2-4.9-4.4-7.2-6.7c-8,16.8-13.2,35.1-15.2,54.3
			C102,261.1,105.9,268.5,112.4,275.3L112.4,275.3z M125.3,201.8c1.8-4.4,3.7-8.7,5.7-13c-2.5-1.4-4.5-2.8-6.6-4.2
			c-2.1,3.4-4,6.9-5.8,10.5C120.7,197.3,122.9,199.6,125.3,201.8L125.3,201.8z M135.2,190.9c-2.3,4.6-4.3,9.3-6.2,14.1
			c9.3,7.9,20.5,15,33,21c0.1-0.8,0.3-1.6,0.4-2.4c-5.6-2.9-10.2-5.5-11.8-7.1c-0.8-2.5,1.6-12.6,0.9-15.1
			C147.1,196,140.4,193.2,135.2,190.9L135.2,190.9z M127.5,209c-6.8,19-10.6,39.6-10.6,61.2c0,3.2,0.1,6.4,0.3,9.6
			c10.2,8.8,25,16.6,43.1,22.8c-1.3-10.5-2-21.3-2-32.4c0-14,1.1-27.6,3.1-40.6C148.6,223.7,137.2,216.8,127.5,209L127.5,209z
			 M117.4,284.5c1.1,14.4,3.9,28.3,8.2,41.5c10.6-7.4,21.6-14.4,33.1-21.3C142,299.1,127.9,292.2,117.4,284.5L117.4,284.5z
			 M130.8,340c2.9,6.8,6.1,13.3,9.7,19.6c9-6.8,18-13.5,27-20.4c-1.1-3.9-2.1-7.8-3-11.8C153.3,331.2,142.1,335.4,130.8,340
			L130.8,340z M151.6,376.3c20.3,27.1,48.2,47.1,80.1,56c-15.8-8.8-30-23.1-41.6-41.4C176.1,387,163.1,382.1,151.6,376.3
			L151.6,376.3z M306,399.2c-0.7,1.3-1.4,2.7-2.1,4c-4.5,8.1-6.1,17.2-4.7,27.5c-6,2.8-12.3,4.7-18.7,5.8c0-2.9,0-5.9,0-8.8
			c0.1-8.8,0.2-17.7,0.3-26.5C289.4,400.8,297.8,400.2,306,399.2L306,399.2z M234.6,399.4c-13.6-1.5-26.7-3.9-38.9-7
			c10.8,15.6,23.6,27.9,37.8,35.6c0-9.2-0.1-18.6-0.1-18.6C233.8,406.1,234.2,402.7,234.6,399.4L234.6,399.4z M165.4,225.1
			c-0.1,0.8-0.3,1.5-0.4,2.3c7.4,3.4,15.3,6.4,23.6,9.1l8.6,5.9c-11.6-3.1-22.6-6.9-32.7-11.4c-2,12.6-3,25.7-3,39.2
			c0,10.9,0.7,21.5,2,31.8c18.5-10.7,38-20.8,58.4-30.1c-3.8-5-7.6-10.1-11.4-15.1c-4.5-7.5-11.1-13.9-18.5-19.7
			C188,235.6,175.7,230.2,165.4,225.1L165.4,225.1z M167.7,326.3c0.8,3.6,1.7,7.2,2.7,10.7c4.4-3.4,8.8-6.9,13.2-10.4
			c3.3-2.4,3.2-4.2-0.3-5.4C178.1,322.8,172.9,324.5,167.7,326.3L167.7,326.3z M153.4,373.6c10.3,5.3,21.9,9.9,34.5,13.6
			c-4.7-7.9-9-16.5-12.7-25.6C168,365.6,160.7,369.7,153.4,373.6L153.4,373.6z M202.7,132.4c8.8-10.2,18.5-18.5,29-24.4
			c-19.4,5.4-37.3,14.9-52.9,27.6C186.8,134.6,194.7,133.5,202.7,132.4L202.7,132.4z M182.1,127c-5.3,3.2-10.3,6.6-15.2,10.3
			c1-0.1,2.1-0.3,3.1-0.4C173.9,133.4,178,130.1,182.1,127L182.1,127z M374.7,378.9c5.3-2.3,10.4-4.7,15.1-7.3
			c3.8-5.5,7.4-11.3,10.5-17.3c-4.6,4.2-11.1,9.6-15.5,13.5C381.4,371.4,378,375.1,374.7,378.9L374.7,378.9z M398.9,366.2
			c5.7-3.6,10.8-7.5,15.4-11.6c14.7-24.8,23.2-53.7,23.2-84.5c0-0.4,0-0.9,0-1.3c-3,4.6-7.1,8.9-12.2,13.1
			C423.4,313,413.9,341.8,398.9,366.2L398.9,366.2z M420.5,285.6c-3.8,2.7-7.9,5.2-12.5,7.6c2.7,3.5,5.4,7,8,10.9
			c0.5,2.2,0.7,4.4,0.6,6.5C418.5,302.5,419.8,294.1,420.5,285.6L420.5,285.6z M413.1,323.9c-0.2,0.5-0.5,1-0.7,1.5
			c-1.9,3-4.2,6.9-6.2,10.2c0.1,2.2,0.2,4.4,0.1,6.6C408.8,336.4,411.1,330.3,413.1,323.9L413.1,323.9z M406.2,290.8
			c5.5-3.1,10.5-6.3,14.7-9.8c0.2-3.6,0.3-7.2,0.3-10.9c0-23.4-4.4-45.7-12.4-66c-4.4,3.9-9.2,7.7-14.3,11.2l-2.5-2.9
			c5.5-3.9,10.6-8,15.2-12.4c-1-2.3-2-4.6-3.1-6.9c-6.5,7.7-12.1,15.7-14.9,20c3.9,1.7,9.8,4.9,13.2,8.3c7.2,8.6,9.4,13,7.8,20.9
			c-0.2,1.8-7.1,12.3-8.9,13.1c-1.8,0.8-3.4,1.5-4.6,3.1c-3.1,4.4-3.8,12.8-0.6,18.6C399.2,282,402.7,286.4,406.2,290.8L406.2,290.8
			z M425.6,276.9c5.8-5.7,9.8-11.7,11.6-18c-1.9-27.4-10.4-52.9-24-75.2c-1.9,1.6-3.8,3.6-5.8,5.8c1.1,2.4,2.2,4.8,3.3,7.2
			c0.5-0.5,1-1.1,1.5-1.6h5.7c-1.7,2-3.6,3.9-5.5,5.8c8.6,21.2,13.3,44.7,13.3,69.4C425.7,272.4,425.6,274.6,425.6,276.9
			L425.6,276.9z M410,178.8c-10-15.2-22.5-28.6-36.8-39.8c-0.6,0.3-1.2,0.7-1.9,1c11.1,10.5,20.8,22.8,28.9,36.3
			C403.5,177.1,406.7,177.9,410,178.8L410,178.8z M366.9,142.3c-5.9,3-12,5.7-18.4,8.1c4.7,7.5,8.9,15.7,12.7,24.4
			c9.5-3.2,19.3-3.5,29.3-1c1.1,0.3,2.2,0.6,3.2,0.8C386.1,162.6,377,151.7,366.9,142.3L366.9,142.3z M268.8,126.7V103
			c-22.1,0.1-42.7,10.6-59.9,28.6c13.2-1.8,26.4-3.6,39.6-5.4C255.7,125.4,262.4,125.7,268.8,126.7L268.8,126.7z M355.9,413.3
			c20.7-12.4,38.5-29.2,52.2-49c-4.2,2.9-8.6,5.7-13.4,8.4C384,388.6,370.9,402.3,355.9,413.3L355.9,413.3z M385.6,377.5
			c-4.8,2.3-9.9,4.5-15.2,6.5c-7.7,9.2-14.8,18.8-21.7,28.5C362.6,403.1,375.1,391.2,385.6,377.5L385.6,377.5z M357.9,176.1
			c-3.8-8.7-8.2-16.9-13-24.3c-12.8,4.6-26.4,7.9-40.6,9.8c-2.4,9.3,1.7,17.6,9.1,25.4c14,4.3,27.6,0.4,40.8-9.1
			C355.3,177.2,356.6,176.6,357.9,176.1L357.9,176.1z M305.8,157.1c12.8-1.9,25-4.9,36.6-9c-18.4-26.8-42.9-43.7-69.8-45.1v24.3
			c10.4,2.2,20.1,6.1,29.9,9.9c5.8,5.3,7.7,11.8,4.3,18C306.4,155.9,306.1,156.5,305.8,157.1L305.8,157.1z"/>
		<g>
			<path d="M443.3,251.8h-1.7c-2.8-25.8-11.4-49.9-24.4-71c0,0,0.1-0.1,0.1-0.1c-0.1,0-0.1,0-0.2-0.1C386.5,131.1,331.6,98,269,98
				c-42.5,0-81.4,15.3-111.7,40.6c-21.2,2.6-42.4,3.7-63.8,3.9c-1.8,1.3-1.1,2.7,0.9,4.3c1.8,2.3,8.3,10.1,5.8,8.4
				c-1-0.7-4.1,3-3,10.4c1.1,1.9,2.3,3.8,3.4,5.7c2.8,2.8,5.1,6.3,8.7,8.4c3.1,1.7,6.8,2.2,10.4,2.9c-2.4,4.1-4.7,8.3-6.8,12.6h-0.2
				c0,0,0.1,0.1,0.1,0.1c-8.6,17.4-14.2,36.5-16.4,56.6h-0.2c0,0.5,0,1,0.1,1.5c-0.6,5.6-0.8,11.2-0.8,17c0,23.5,4.8,45.9,13.4,66.3
				c-18.6,11.7-36.8,23.8-54.9,37.3c-3.1,3.2-1,3.4,1.4,2.8c7.3-3.2,14.5-7.8,21.8-11.1c12.3-6.8,24.5-12.8,36.6-18.3
				c0.3,0.6,0.6,1.2,0.9,1.7h-1.1c0.8,0.9,1.7,1.8,2.5,2.7c3.4,6.2,7.1,12.2,11.2,17.9c-3.9,3-7.9,6.1-11.8,9.3
				c-10.8,7-26.9,18.7-38.6,24.3c-4,1.9-4.4,2.7-1.5,4.5c12.3-4.9,24.8-9.7,37-15.2c8.3-3.3,16.5-6.8,24.4-10.6
				c24.5,28.5,58.2,49,96.4,57c-0.1,3.4-0.2,5.9-0.3,6.7c-0.7,3.3,19.9,2.2,22.1,3.8c-0.2,6.2,0.4,9.8-1.6,16.4
				c-0.5,3.2-0.9,8-0.7,11.7c0.2,3.5,4.3,4.7,10,5.3c7.2-1.6,13.9-0.8,20.5,1.4c10,1,18.9,0.8,27.6,0.3c0.5-2,0.9-3.9,1.4-5.9
				c-0.7,1.8-1.4,4.8-3.7,4.7c-2.2,0.2-4.8-1-7-0.8c-2.6,1.4-5.9,0.5-9,0.7c-5.3-0.8-10.4-2-15.2-4.4c-4.2-0.7-8.8-0.7-13.8-0.3
				c-3.8,0.8-5.8-0.5-7.6-2c-1.6-3.4-0.9-10.5,0.3-13.4c0.8-5.6,1.2-7.8,2-13.5l4.7,0c2.2,0,6.8-0.4,10.5-1.4c0,0,0,0,0,0
				c8.4,16.6,13.4,18.6,26.5,28.3c1.8,0.5,3.6,0.9,5.3,1.4c0.6,0.3,0-0.5,1.8,0.6c1.2-0.9,3-0.4,4.2,0.1
				c5.9-15.9,14.7-31.5,24.4-47.4c0.6-0.9,1.3-1.8,1.9-2.7c34.9-15,63.8-41,82.5-73.6l3.1-5.7c12.3-23.6,19.3-50.4,19.3-78.8
				c0-3.8-0.1-7.5-0.4-11.3C442.8,256.6,443.2,254.2,443.3,251.8z M413.1,183.7c13.6,22.2,22.1,47.8,24,75.2
				c-1.8,6.3-5.8,12.3-11.6,18c0.1-2.2,0.1-4.4,0.1-6.7c0-24.7-4.8-48.1-13.3-69.4c1.9-1.9,3.8-3.8,5.5-5.8h-5.7
				c-0.5,0.5-1,1.1-1.5,1.6c-1-2.4-2.1-4.8-3.3-7.2C409.3,187.3,411.3,185.3,413.1,183.7z M416.1,304.1c-2.6-3.9-5.3-7.5-8-10.9
				c4.6-2.4,8.7-5,12.5-7.6c-0.7,8.5-2,16.9-3.9,25C416.7,308.5,416.6,306.4,416.1,304.1z M413.1,323.9c-2,6.3-4.3,12.5-6.9,18.4
				c0-2.2,0-4.4-0.1-6.6c2.1-3.4,4.3-7.2,6.2-10.2C412.6,325,412.8,324.5,413.1,323.9z M406.2,290.8c-3.5-4.4-7-8.8-10.1-13.6
				c-3.2-5.8-2.6-14.3,0.6-18.6c1.1-1.6,2.8-2.3,4.6-3.1c1.8-0.8,8.7-11.3,8.9-13.1c1.6-7.9-0.6-12.3-7.8-20.9
				c-3.4-3.4-9.2-6.6-13.2-8.3c2.8-4.2,8.5-12.2,14.9-20c1.1,2.3,2.1,4.6,3.1,6.9c-4.6,4.4-9.6,8.5-15.2,12.4l2.5,2.9
				c5.2-3.5,10-7.3,14.3-11.2c8,20.3,12.4,42.6,12.4,66c0,3.6-0.1,7.3-0.3,10.9C416.6,284.5,411.7,287.8,406.2,290.8z M376.2,229
				c2.4,2.5,2.9,1.1,4.7,5.2c0.2,0.5,0.3,1.3,0.8,2c2.3,3.5,0.4,5.1-1.3,9.5c1.1,0.7,2.1,0.4,3.1,0.2c0.8-0.6,2.1-1.2,2.8-1.8
				c3.1-0.9,4,0.4,4,3.4c-0.9,4.7-3.8,5.1-5.1,6.2c-1.2,0.4-3.9,0.7-4.8,0.2c-1.2,4.1-2.4,6.3-4.5,7l-16.1,0.4c-1.4-0.2-2.8-0.5-4-1
				l-0.7-1.2c0-1.9,0.6-3.8,1.4-4.9c-0.6-1.1-1.9-2.3,0.3-3.5c1.2,0,3.3,0.8,4-0.3c-1.4-0.8-6.3-0.9-4.1-3.4
				c0.1-0.9,1.4-2.4,1.5-3.2c0.9-0.4,1.2,0.3,2-0.1c1.6-1,0-1.3-1.7-2.4c-0.8-0.2-1.6-1.7-1.2-2.5c1.5-1.9,3-3.8,4.6-5.7
				c1.9-2.8,3.1-5.5,4.6-8.3c0.8-1.5,2-1.6,3.1-2c1.7,0.6,3.4,1.1,5.1,1.7c1.4-1.4,0.4-2.2-1.1-3.5c-12.5,4.7-8.8-3.4-3.3-4.9
				c3.9-2.7,12-1.3,17.3-0.6c7.1,1.3,20.4,9.2,17.3,17.3C400.6,206.8,368.4,220.9,376.2,229z M354,177.8
				c-13.2,9.5-26.7,13.4-40.8,9.1c-7.4-7.8-11.4-16.1-9.1-25.4c14.2-1.9,27.8-5.2,40.6-9.8c4.8,7.4,9.2,15.6,13,24.3
				C356.6,176.6,355.3,177.2,354,177.8z M346.5,235.9c-9.7-2-19.9-1.9-30.5-0.3c-3.1-2.7-7.6-4.7-13.2-6.1
				c-8.8-1.5-17.6-3.3-26.4-5.4c-4.8-2.9,2.2-20.9,8.8-31.1c7.2,1.2,14.4,2.5,21.7,3.7c10.1,2.4,20.5,4.5,23.3,9.6
				c8.5,5.5,15.6,11.6,24.1,17.1C356.7,228.2,356.7,232.8,346.5,235.9z M382.3,184.8c0-1.8,1.5-3.3,3.3-3.3c1.8,0,3.3,1.5,3.3,3.3
				c0,1.8-1.5,3.3-3.3,3.3C383.8,188.2,382.3,186.7,382.3,184.8z M373.2,138.9c14.3,11.2,26.7,24.7,36.8,39.8
				c-3.3-0.8-6.5-1.7-9.8-2.5c-8.1-13.5-17.8-25.8-28.9-36.3C372,139.6,372.6,139.3,373.2,138.9z M393.7,174.6
				c-1.1-0.3-2.2-0.6-3.2-0.8c-10-2.5-19.8-2.2-29.3,1c-3.8-8.7-8-16.9-12.7-24.4c6.3-2.4,12.5-5.1,18.4-8.1
				C377,151.7,386.1,162.6,393.7,174.6z M363.4,139.2c-5.6,2.8-11.3,5.3-17.3,7.5c-11.2-17-24.8-30.3-39.8-38.7
				C327.5,114,346.8,124.7,363.4,139.2z M272.6,103.1c26.9,1.4,51.4,18.2,69.8,45.1c-11.6,4.1-23.9,7.1-36.6,9
				c0.3-0.6,0.6-1.2,0.9-1.8c3.4-6.2,1.5-12.7-4.3-18c-9.8-3.9-19.5-7.8-29.9-9.9V103.1z M276.6,189.5c3.2,1.4,2.9,5,1,8.2
				c-3.1,1.2-7.1,2.8-11,3.1c-2.5,0.5-5.1,1.5-7.6,2.7c-1.5,1.9-3.2,2.2-6.3,1.8c-0.9-1-4.8-0.8-5.5-1.8c-0.7-1.7,0.6-3,3-3.3
				c1.1,0.1,2.1,0.2,3.2,0.3c1.2-1.2,1.6-2.3,1.1-3.5c-1.5-0.7-3.2-1-5.6-0.3c-1.7,1-3.4,1.9-5.8,2.4c-1.3-1.2-2.1-2.5-0.6-4.6
				c0.7-0.7,1.9-1.3,1.8-2.1c-0.2-2.3,1-4.5,1.8-6.6c0.9-2.3,2.9-4,5-2.9C259.5,185,268,187.3,276.6,189.5z M268.8,126.7
				c-6.4-1-13.1-1.3-20.2-0.5c-13.2,1.8-26.4,3.6-39.6,5.4c17.1-18,37.7-28.6,59.9-28.6V126.7z M202.7,132.4
				c-8,1.1-15.9,2.2-23.9,3.2c15.6-12.7,33.5-22.2,52.9-27.6C221.2,113.9,211.4,122.2,202.7,132.4z M182.1,127
				c-4.2,3.1-8.2,6.4-12.1,9.9c-1,0.1-2.1,0.3-3.1,0.4C171.8,133.6,176.9,130.2,182.1,127z M107,175.2c-0.5-2.6-2.3-4.4-4.8-6.3
				c-2.9-3-3.5-5.9-3.5-9c2.9-2.1,3.2,0.2,4.7,1.7c-1-3.2,0.5-5.1,3.1-4.7c-0.2-1.8,1.9-3.6,4.7-3.4c4.5,0.3,7.3,1,9.2,3.6
				c6.5,2.3,13.3,10.7,20,15.2c4.6,2.9,9.2,4.6,13.9,7.5c0.6,2,0.3,14-1.9,13.9c-4.5-3.7-6.5-5.9-14.3-9.3
				C129.3,180.8,114,179.3,107,175.2z M188.6,236.5c-8.3-2.6-16.2-5.7-23.6-9.1c0.1-0.8,0.3-1.5,0.4-2.3
				c10.3,5.1,22.5,10.5,26.5,11.9c7.5,5.8,14,12.2,18.5,19.7l11.4,15.1c-20.4,9.3-40,19.4-58.4,30.1c-1.3-10.3-2-20.9-2-31.8
				c0-13.5,1-26.6,3-39.2c10.1,4.5,21.1,8.3,32.7,11.4L188.6,236.5z M170.4,336.9c-1-3.5-1.9-7.1-2.7-10.7
				c5.2-1.8,10.4-3.5,15.6-5.1c3.5,1.2,3.6,3,0.3,5.4C179.2,330.1,174.8,333.5,170.4,336.9z M175.2,361.5c3.7,9.2,8,17.7,12.7,25.6
				c-12.6-3.8-24.1-8.4-34.5-13.6C160.7,369.7,168,365.6,175.2,361.5z M161.9,226c-12.5-6-23.6-13.1-33-21c1.9-4.8,3.9-9.5,6.2-14.1
				c5.3,2.3,12,5.1,16.2,10.6c0.8,2.5-1.6,12.6-0.9,15.1c1.6,1.6,6.2,4.2,11.8,7.1C162.2,224.4,162.1,225.2,161.9,226z M160.2,302.6
				c-18.1-6.3-32.8-14-43.1-22.8c-0.2-3.2-0.3-6.4-0.3-9.6c0-21.6,3.8-42.3,10.6-61.2c9.7,7.8,21.1,14.8,33.9,20.7
				c-2,13-3.1,26.6-3.1,40.6C158.2,281.3,158.9,292.1,160.2,302.6z M158.7,304.7c-11.5,6.8-22.5,13.9-33.1,21.3
				c-4.3-13.2-7.1-27.1-8.2-41.5C127.9,292.2,142,299.1,158.7,304.7z M124.4,184.6c2.2,1.4,4.2,2.9,6.6,4.2c-2.1,4.2-4,8.5-5.7,13
				c-2.4-2.2-4.6-4.4-6.7-6.7C120.4,191.5,122.3,188,124.4,184.6z M116.6,199.1c2.3,2.3,4.6,4.6,7.2,6.7
				c-7.3,19.9-11.4,41.6-11.4,64.4c0,1.7,0,3.4,0.1,5.1c-6.5-6.9-10.4-14.2-11.1-22C103.3,234.1,108.6,215.9,116.6,199.1z
				 M113.2,333.8c-8.2-19.6-12.7-41.1-12.7-63.6c0-1.2,0-2.4,0-3.7c2.8,4.9,6.9,9.7,12.1,14.1c0.9,16.7,4,32.8,9,47.9
				C118.8,330.3,116,332,113.2,333.8z M135.9,363.1c-5.2-3.6-9.8-7.4-13.9-11.4c-1.2-2.1-2.4-4.3-3.5-6.5c2.7-1.2,5.4-2.3,8.1-3.5
				c3,7.2,6.4,14.1,10.3,20.7C136.5,362.7,136.2,362.9,135.9,363.1z M130.8,340c11.3-4.6,22.5-8.8,33.7-12.7c0.9,4,1.9,8,3,11.8
				c-9,6.9-18,13.6-27,20.4C136.9,353.3,133.7,346.8,130.8,340z M141.7,379.5c1.6-0.8,3.1-1.6,4.7-2.4c10.2,14,22.3,26.3,35.9,36.3
				C167,404.3,153.3,392.8,141.7,379.5z M151.6,376.3c11.5,5.7,24.4,10.6,38.5,14.5c11.6,18.3,25.8,32.6,41.6,41.4
				C199.8,423.4,171.9,403.4,151.6,376.3z M233.5,428c-14.2-7.8-27-20-37.8-35.6c12.3,3.1,25.3,5.5,38.9,7c-0.4,3.3-0.8,6.7-1.3,10
				C233.4,409.4,233.5,418.8,233.5,428z M300,444.3c-4,3.5-7.4,8.1-6.2,20c-0.3,1.2-0.6,2.4-1,3.6c-2.7-1.9-5.5-3.9-8.2-5.8
				c-1.4-5.7-2.8-11.5-4.2-17.2c0-0.9,0-1.9,0-2.8c6.7-0.4,13.2-1.2,19.7-2.4C300.1,441.2,300.1,442.7,300,444.3z M304,403.2
				c-4.5,8.1-6.1,17.2-4.7,27.5c-6,2.8-12.3,4.7-18.7,5.8v-8.8c0.1-8.8,0.2-17.7,0.3-26.5c8.6-0.3,17-0.9,25.2-1.9
				C305.3,400.6,304.6,401.9,304,403.2z M309,386.6c2.1-1.9,4.1-3.7,6.2-5.6h2.2c-2.1,2.7-4.1,5.4-6.2,8.2c-1.2,2.4-2.5,4.8-3.7,7.1
				c-8.7,1.1-17.6,1.8-26.7,2.1c0-2,0.1-4,0.1-6.1l8.4-54.8c1.7-5,3.4-9.9,5.1-14.9c2.8-1,5.6-2,8.3-3c2.1-0.2,4.3-0.4,6.4-0.6
				c2.8,0.6,5.6,1.1,8.5,1.7h14.9c1.9,1.4,3.7,2.8,5.6,4.2l-3.7,2.5c0,0-0.1-0.1-0.1-0.1c-0.8-0.8-1.5-1.6-2.3-2.4
				c-3-0.2-5.9-0.4-8.9-0.5c-0.4,0.5-0.9,1.1-1.3,1.6c-1.9,0.4-3.8,0.8-5.7,1.2c-0.5,0.7-1.1,1.3-1.6,2c-0.8,5.1-0.4,10-0.4,15.3
				c0.8,2.3,1.3,4.4,3.7,5.5c1.7,0.5,3.4,1.1,5,1.6c-3.4,2.8-6.8,5.5-10.2,8.3c-3.9,5.6-5.8,11.2-6.7,16.9v9.8H309z M331,351.2
				c-2.9-0.9-5.8-1.9-8.7-2.8c-1.8-0.5-3.4-1.6-4.2-3.9c-0.1-2-0.9-2.1-0.7-4.1c0-0.4,0.1-1.3,0.3-2.2c0.2-1-0.6-2.3-0.1-2.7
				c-0.1-1,0.9-1.7,0.8-2.7c0-1.1,0-2.2,0.6-3.2c2.2-0.9,4.3-1.3,6.5-0.8c1.7,2.2,3.4,4.5,5.1,6.7c0-1.4-0.2-2.9-0.8-4.5
				c-2.2-1.2-3.1-2.5-2.8-3.9c1.9-0.4,3.5,0.1,5.1,1.1c2.1,1.3,12.2,10.5,11.8,9.4c0,0,0,0,0.1,0.1c3.3-0.4,7.4,0,10.9,0.3
				c1.7,0.1,3.2,1.8,5,1.9c0.6,0,1.2,0.1,1.7,0.1c-1.1-2.1-3.5-2.9-6.7-3.6c-0.6-0.1-0.6-1.2-0.7-1.9c1.1-2.5,11.8-3.4,20-4.6
				l10.7,0.9c4.5,1.5,7.8,5.1,12.3,6.6c1.6-2,0.3-4.8-2.3-7.9c-4.5-1.1-9-1.3-13.5-2.4c-5.1-0.9-7.7-10.2-12.4-15.2
				c1.1-3.7,5.9-12.3,11.3-19c-7.2,5.3-17,10.6-22.4,15.1c-2.7-2.8,4-8.2,8.8-13c-3.9,2-7.7,4-11.6,6c-8.8,3.8-15.8,4.5-22.3,4.2
				c-8,3.6-16.2,6.1-24.6,7.4c-0.3-0.3-1.8-0.9,2.3-2.4c5.1-1.9,16.8-5.3,21.8-7.4c6.2-3.6,12.4-7.1,18.6-10.7
				c-3.6,1.4-7.1,2.8-10.7,4.2c-11.2,2.9-22.7,5.9-23.7,2.3c1.4-7.4-15.6,9.9-28.3,6c-0.9-3.7-1.9-7.4-2.8-11.1
				c-0.8-0.6-1.5-1.2-2.3-1.9c-0.3-2.5-0.6-5-0.9-7.4c2.3-3,3-5.8,0.5-8.4c-1.7-0.4-3.4-0.2-5.1,0.5c-0.9,1.2-1.9,2.5-2.8,3.7h-27.4
				c1.5,3.4,3.1,6.8,4.6,10.2c4,0,8,0,12.1,0c-1.5,2.9-3.1,5.9-4.6,8.8c-1.9,7-3.7,13.9-5.6,20.9c1.9,0.8,3.7,1.5,5.6,2.3
				c3.6-7.9,7.1-15.8,10.7-23.7c2.5-1.5,5-3.1,7.4-4.6c1.5,5.4,3.1,10.8,4.6,16.2c0.5,4.5,0.9,9,1.4,13.5c-2.3-1.9-4.6-4.6-7-6.5
				c0.8,3.9,0.9,11.1,1.7,15c-4.3-2.2-7.4-10.5-11.8-12.6c11.4,15.4,10.1,26.7,12.8,45.9c-1.1,1.1-2.2,2.2-3.2,3.2
				c-1.9-4.3-3.7-8.7-5.6-13c0.8,7.1,1.5,14.2,2.3,21.4c0.8,5.4,1.5,10.8,2.3,16.2c-1.5,8.2-3.1,16.4-4.6,24.6
				c1.4,8.8,2.8,17.6,4.2,26.5c-0.2,0.9-0.5,1.8-0.7,2.7c-11.6-0.7-25.4-2.5-36.8-4.7l-0.3-28.7c4.6-20.3,3.8-36.1,3.4-57.1
				c-0.2-10.8-0.4-21.6-0.6-32.3c-0.7,6.7-1.3,13.4-2,20.2l0,0l-0.8,26c0.3,9-0.1,17.8-1.7,26.3c-13.4-1.3-27.3-3.8-41.7-7.9
				c-6.2-9.5-11.4-19.1-15-29l22.9-14c1-0.7,2-1.3,3-2l17.9-11.9l17.6-11.7c-2-14.1-4.6-27.5-6.6-41.5c-9.9-12.1-19.1-24.8-29-36.8
				c-8.8-7.7-18.7-13.1-28.8-18.2c-9-7.6-18.3-7.3-19.6-15.9c1-6.3-0.1-18.9,1-25.2c1.1-6.8,9.3-4.4,20.1,0.4
				c4.6,3.4,9.8,5.4,14.4,8.9c6.6,4.1,8.2,7.5,12.7,14.9c3.8,6.3,12.3,9.2,19.3,14c5.8,2.7,11.6,6.3,17.4,8.9
				c5.1,4.5,10.3,8.9,15.4,13.4c5.7,2.9,11.4,5.7,17.1,8.6c2,1.3,4,2.7,6,4c-1.2,2.1-1.8,6.4-2.1,8.6c-0.1,4.2,0.1,5.7,0,9.9
				c2.8,0.1,5.5,0.8,8.3,0.9c-0.3-2.8-0.2-5.5,0.3-8.3c0.5-3.7,1.7-7,4.3-9.4l36.2-13.4c8-1.6,16-3.2,23.9-4.8
				c2.2-0.6,4.2-1.8,5.4-4.6c0,0.3,1-0.1,0.7,0.4c-0.6,1.2-2,3.5-2.4,4.8c1,1.6,1.6,3.5,1.4,5.7c-0.4,4.8-1.5,9.6-1.3,14.5l0.8,1.4
				l1.6,0.7l5.6,1l9,0.9l0.7,0.7v0.6c0.9,4.4-3.9,7.3-7.4,9.3c-4.2,2.5-8.4,2.3-12.5,1.4c-1.9-1.4-3.1-2.9-3.7-4.6
				c-0.9-2.8-0.7-5.4,0-7.9c-2.4,2.1-5.2,2.7-5.7,4.4c-2,7.1,12.8,11,15.8,12.1c22.5-8.2,38.3-12.2,30.8,3.3
				c-0.2,0.7-0.5,1.4-0.9,2.2c4-2.5,7.6-2.3,9.7,3.2c5.9,13.5,5.4,30.2,6.1,42.7c0,5.6-0.1,12.2,0.1,14.4c-0.8,2.4-3.3,4.3-5.6,5.9
				l-13.1,8.2c-3.6,3.2-9.6,6.3-18.7,7.8c-2.2,0-4.1-0.3-5.7-0.9c0.3-0.7,0.6-1.4,0.9-2.1l-1.3-2.8c0.9,0.6,1.8,1.2,2.7,1.8
				c2.9,1.3,5.2,1.1,6.5-1.7c0.7-3.4,0.8-6.9,0-10.7c-0.9-2.9-2.9-5.8-5.3-8.7c-1.1-0.4-2.7-1.6-3.2-1.1c1.9,2,3.9,5.3,5.2,9.5
				c0.7,2,0.7,3.8,0,5.6c-6.5-1.2-12.9-2.4-19.4-3.7C341.5,352.7,336.3,352.2,331,351.2z M400.4,354.3c-3.2,6-6.7,11.8-10.5,17.3
				c-4.8,2.6-9.8,5-15.1,7.3c3.3-3.8,6.7-7.5,10.2-11.1C389.4,363.9,395.9,358.5,400.4,354.3z M359.3,361c-0.5,1.3-1.1,2.6-1.7,3.8
				c-1.3-1.1-2.3-2.5-3.1-4.1c-0.9-1.6-1.5-2.9-2.2-4.2c0.6,0.3,1.1,0.6,1.7,0.8C355.8,358.6,357.5,359.8,359.3,361z M370.4,384
				c5.3-2,10.3-4.2,15.2-6.5c-10.5,13.7-22.9,25.6-36.9,35C355.6,402.8,362.7,393.2,370.4,384z M355.9,413.3
				c14.9-11,28.1-24.8,38.8-40.6c4.8-2.6,9.2-5.4,13.4-8.4C394.5,384.1,376.6,400.9,355.9,413.3z M414.3,354.7
				c-4.6,4.1-9.7,7.9-15.4,11.6c15-24.4,24.5-53.2,26.4-84.3c5.1-4.1,9.2-8.5,12.2-13.1c0,0.4,0,0.9,0,1.3
				C437.5,301,429.1,329.9,414.3,354.7z"/>
			<path d="M387.8,285.2c-2.6,1.6-5.3,4.4-7.9,7.5C383.5,290.2,386.4,287.7,387.8,285.2z"/>
			<path d="M364.5,234.1c0,0.5,2.5,0,2.5,0.5c-0.7,0.4-0.9,0.5-1.5,0.9c-0.4,0.8-0.1,0.7,0.5,1.8c1.1,0.4,1.6-0.4,2.9-0.8
				c1.3-0.9,0.6-0.2,1.8-1.2c2.2,0.3,6.3,1.2,8,2.2c0-0.4,0-0.8,0-1.2c-4.7-3.5-8.8-3.6-12.2-4.7
				C366.6,232.3,364.5,233.4,364.5,234.1z"/>
		</g>
		<g>
			<path class="st7" d="M210.4,455.8c4.5-1.8,8.7-1.1,13.2-0.1c-5.6-7.4-10.9-23-18.3-14c-1.4,2.1-2.9,2.9-5,0.6
				c-1.3-4.5-6.1-8.5-12.6-12.2c-4.7-1.3-8-0.8-9,2.8c-0.7,2.3-1.4,4.7-2.1,7c-0.5-0.3-0.9-0.6-1.4-0.8c-0.3-0.9-0.6-1.8-1-2.6
				l1,2.6c-4.9-2.6-9.5-2.4-14-1.7c2.4,2.8,5.2,5.5,10.2,7.6c17,0.6,24.7,4.8,26.1,11.4c-12.1-8-25.1-11-39.4-6.7
				c-7.3,2.6-5.6,7.3-5.7,11.5c-1.9,4-3.9,7.2-7.3,4.8c-0.6-2.3-1.2-4.7-1.8-7c-7.8-1.7-8.6-4.7-11.5-7.3c1.9,2.8-0.7,6.4,8.3,8.1
				c-0.9,9.1,3.9,10.5,8.7,12.1c6.3,0,12.6,0,18.9,0c-2.5,4.6-0.6,7.4,11.1,6.3c3.6-1.6,7.3-3.3,10.9-4.9c1.8,6.5,5.5,6.3,9.9,3.1
				c1.4,0.1,2.8,0.2,4.2,0.3c-1.4-2.3-2.8-4.6-4.2-6.9C196.8,459.6,205.4,457.9,210.4,455.8z"/>
			<path class="st7" d="M153.8,413.7c-6.8-0.2-9.7-6.4-12.5-12.7c-5.4-5-10.6-9.5-11.9,1.3c-2.1,3-5.8,2-9.5,1.3
				c-9.3-4.2-15.7,0.5-20.9,9.3c-0.3,6.5,1.7,12.2,9,15.9c-2.7,3.6-5.8,7.2-0.3,10.3c0.8,2,0.6,7.1,10.9,5c4,0.8,8.8,0.6,10.6,4.5
				c1.1-7.1,5.3-12.8,20.2-13.5c-0.5-5.6,4.1-8.1,10.9-9.3c8.5,2.9,12,6.2,14.1,10.6l-7.4-18.6C163,413.5,159.9,404.2,153.8,413.7z
				 M146,428.8c-4.6-5.5-13.8-1.3-24,5c0.6-3.7,4.4-6.4,8.6-8.9c0.8-2.2-0.8-2.8-3.6-2.6c-1.7,2.1-4.7,3.5-9.2,4.4
				c-12.8-2.9-13-9.7-13.9-16.3C125.4,415,148.2,422,146,428.8z"/>
			<path class="st7" d="M466.5,390.8c-3.8-3.9-11.8,2-20.4,9.3c4.2,1,8.3,1.7,12.5,1.6c12.9,1-11.4,1.6-18,1.1
				c-8.2,7.7-14.4,10.6-20.4,12.8c10.7-8,22.3-15.5,21.2-28c2.1,3,2.4,6.9,0.8,11.7c10.5-6.4,17.9-13.6,21.8-21.8
				c-4.4,5.5-12.1,15.6-14.7,2.7c-2-3.5-4.1-6.1-6.8-2.2c-5.6,5.8-4.2,14.3-9.1,13.3c0.1,0.5,0,0.6-0.3-0.1c0.1,0,0.2,0,0.3,0.1
				c-0.3-2.5-3-15.6,8.8-20.1c-5.3,0-9.7,1.5-9.8,10.3c-2.4,7.7-4.9,13.6-8.7,6.8c-3-3.8-10.6-3.2-9.8,7.1c0.2,4.1-0.7,7.1-4.1,7.6
				c-2.5,1.6-4.9,3.5-6,7.3c-2.5,2.3-3.3,4.9-2.2,7.9c0.7,2.2,0.1,3.4-3.5,2.7c-3.4-0.1-6.7,2.7-10.1,8.4c-1.9,1.2-3.8,0.9-5.7-0.8
				c-7.1-1.7-12.8,1.6-16.3,12.2c-1.2,2.1-2.7,2.4-4.6,0.8c-3.1-5.9-7.8-5.3-16.1,9.8c-5.5-5.7-11.1-3.9-16.6,1.4
				c-8.1,8.5-13.3,17-12,25.6c10.6-8.1,23.5-27.4,29.2-17.7c4.9-17.6,21.1,0.6,17.6,11.7c5.5,0.9,11.1,1.8,16.6,2.7
				c5.4-0.5,11.4-0.6,9.3-7.1c2.4-4.8,7.4-3.2,12.8-0.5c8.4,1.4,16.3,1.1,15.8-9.8c2-8.7,7.7-4.5,9-8.2c5.9-3.7,7-7.8,5.2-12.2
				c0.4-4.8,3.2-7.1,9.5-6c5.2-1.6,10.8-2.4,13.3-9c0.3-2.4-1.6-4.9-4.6-7.3c5.3-2.5,10.5-3.1,15.8-4.1c5-2.8,8.3-6.2,3.3-12
				c-1-2.5-0.4-4.5,1.9-6.3c8.2-5.9,3.2-8.8,2.2-12.5C472.6,386.5,471.1,391.9,466.5,390.8z M412.4,450.9c-1.4-0.2-3.1,0.4-4.1-0.6
				c-3.7-3.3-8.9-3.1-14.7-2c-1.8,2.9,3.7,5.8,6.7,8.7c-5-3.2-10-6.7-14.3-5.8c-2.8,0.9-5.6,1.8-8.4,2.8c2.5,3.4,5.6,6.7,6,10.4
				c-4.5-5.6-9.4-10.2-16.5-7.6c2.8-2.5,5.1-5.9,7.1-9.3c-0.2,1.4-0.3,2.8-0.5,4.1c3.7-0.7,7.4-1.6,11.1-2.9c3.7-2.6,5.6-6,7.6-9.3
				c-0.9,2.3-1.7,4.5-0.6,6.8c13.5-4.6,20.5-2.4,8.1-11.1c-8-8.1,16.1-9.8,20.8-7.8c4.5,2.1,6.9,5.8,8.3,10.2
				C428.2,444.4,425.7,450.5,412.4,450.9z"/>
			<path class="st7" d="M225.6,466.1c5.9,1.9,11.9,3.8,17.8,5.7c-1-5.5-4.2-10.5-9-15.2c7.8,4.6,12.3,11.3,15.9,18.5
				c0.8-7.1,2.5-14.1,3.3-21.3c-3.7,2.3-8.9,1.7-13.4-0.6c-2.4-4.3-6.5-5.1-11.2-4.5c-2.8,1.6-4.1,3.6-3.2,6.3
				C224.7,458.5,222.1,461.6,225.6,466.1z"/>
			<path class="st7" d="M359,469.7c-9.9-4.8-32.4,9.3-40.3,13.7c-11.7,3.5-23.8,5.3-36.2,2.7c-4.6-0.6-11.5-2.6-13.3-1.4
				c-4.4-0.5-8.7-0.9-13.1-1.4c-4.5-0.9-7.2-2.5-7.9-4.9c-10.1,6.3-20.1,10.1-30.2,12.2c9.3-5.4,19.6-8.9,25.9-15.8
				c-8.2-3.5-17.5-6.6-26.4-7.8c5.7,4.3,13.4,9,11.4,11.7c-3.2,3.8-7.4,6.9-12.8,9.3c-7.1-4.7-1.9-7.9,0.8-11.4
				c-6.2,3.5-10,3.1-12.8,0.8c1.1,4.3,2.7,8.5,7.6,12c-2.1,6.1,4.1,7.4,13.9,6.5c5.2-1.3,10.9-3,8.7,1.9c-1.7,7.8,7.2,5.6,16.3,3
				c7.4-3.7,8.8-0.3,10.1,3.3c5.3,1.7,9.5,0.2,12.5-4.6c6.7-6.7,10-4,12.8,0c2.6,1.4,5.1,3,8.4-0.3c2.7-2,4.6-1.3,6.5-0.3
				c3.8,1.1,6.8,0.5,5.9-1.9c3.6-2.7,5.1-2,7.9,0.3c3.7,2.9,7.7,4.7,13.3-0.8c4.9-2.4,9.6-2.5,14.1-1.1c13.3,1.2,13.3-0.5,11.6-5.8
				c-8.4-1.4-5.1-3.4,4.5-5.6C368.8,482.6,364.3,472.2,359,469.7z"/>
			<path class="st7" d="M496.4,325.8c-3-2.1-4.4-4.5-3.3-7.3c2.5-5.5,2.5-10.7-2.7-15c-0.7-4.9-3.4-6.7-9.3-4.1
				c-4.1,0.2-8.5-1.8-11.7,4.9c-1.2,4.1-4.3,4.6-7.6,4.6c-6.6-1.3-7.2,4.4-7.6,10.3c2.2,6.3,1.5,10.1-3.5,11.7
				c-4.1-0.9-5.7,1.6-5.4,6.8c1.5,3.9,2.9,7.8,4.4,11.7c0.3,3-1.9,3.6-5.2,3.3c-5.6-1.2-4.8,4.4-4.4,9.5c1.7,5.5,3.7,10.6,8,13.5
				c6.9-8.9,23.2-8,25.2,4.5c4.5-1.6,6.1-4.3,1.6-9.3c5.9-3.3,11.8-6.5,16.6-11.2c3.2-4.7,1.6-7.7-1.4-10.1c-1.4-4.9,0.4-9.4,6-13.3
				C500,332.6,503.6,328.8,496.4,325.8z M473.6,343.6c-3,4.6-6,9.2-8.9,13.8c1.9,0.6,4.4,0.1,7-0.4c-4.3,3.4-8.7,5.8-14.1,6.2
				c1-4-0.3-7.7-1.9-11.3c1.3,1.5,2.6,2.9,5.1,4.4c3.2-4.8,6.8-9.5,8-14.7c-3.8-6.9-5-13.4-6.5-20c2.9,5.4,4.8,10.7,9.8,16.1
				c4.7-8.3,7.2-17.5,8.9-27c-0.5,9.5-0.9,19.1-5.9,28.2c5.6,0.8,10.2-1.3,15-2.9C484.9,339.1,479.6,342,473.6,343.6z"/>
		</g>
	</g>
</g>
<g id="Layer_4">
</g>
</svg>
