<?xml version="1.0" encoding="UTF-8"?>
<svg id="Layer_2" data-name="Layer 2" xmlns="http://www.w3.org/2000/svg" viewBox="0 0 219.37 173.21">
  <defs>
    <style>
      .cls-1 {
        fill: #fff;
      }

      .cls-2 {
        stroke-width: 1.3px;
      }

      .cls-2, .cls-3, .cls-4, .cls-5, .cls-6 {
        fill: none;
        stroke: #000;
        stroke-miterlimit: 10;
      }

      .cls-4 {
        stroke-width: .75px;
      }

      .cls-5 {
        stroke-width: .25px;
      }

      .cls-6 {
        stroke-width: .5px;
      }
    </style>
  </defs>
  <g id="Layer_1-2" data-name="Layer 1">
    <g>
      <polygon points="76.85 29.63 82.88 58.62 105.05 31.3 105.05 31.29 106 30.12 106.95 31.29 106.95 31.3 129.12 58.62 135.15 29.63 76.85 29.63"/>
      <polygon points="84.63 51.73 80.58 32.63 100 32.63 84.63 51.73"/>
      <polygon class="cls-1" points="84.63 51.73 100 32.63 80.58 32.63 84.63 51.73"/>
      <polygon class="cls-1" points="127.37 51.73 112.01 32.63 131.42 32.63 127.37 51.73"/>
      <path d="M105.14,132.85l-23.22-71.78H48.34l56.73,72.01,.24,.3-.17-.53ZM54.25,63.73h25.72s17.92,55.39,17.92,55.39L54.25,63.73Z"/>
      <path d="M106.74,132.85l23.22-71.78h33.58l-56.73,72.01-.24,.3,.17-.53Zm50.89-69.12h-25.72s-17.92,55.39-17.92,55.39l43.64-55.39Z"/>
      <path d="M75.36,29.75l-28.13,29.82h34.32l-6.19-29.82Zm-1.15,5.58l4.56,21.99h-25.3l20.74-21.99Zm1.15-5.58l-28.13,29.82h34.32l-6.19-29.82Zm-1.62,6.07l4.35,21.13-24.33,.05,19.97-21.18Z"/>
      <path d="M136.67,29.75l28.13,29.82h-34.32l6.19-29.82Zm1.15,5.58l-4.56,21.99h25.3l-20.74-21.99Zm-1.15-5.58l28.13,29.82h-34.32l6.19-29.82Zm1.62,6.07l-4.35,21.13,24.33,.05-19.97-21.18Z"/>
      <path d="M124.4,64.07l-18.46,56.63-18.33-56.63h36.78m4.13-3h-45.04l22.44,69.34,22.6-69.34h0Z"/>
      <path d="M106.01,37.24l15.68,19.33h-31.36l15.67-19.33m0-4.76l-21.97,27.09h43.95l-21.98-27.09h0Z"/>
    </g>
    <g>
      <path d="M20.73,57.28l1.08-2.24,6.44,3.11-4.47-7.19,1.14-2.37,3.27,5.88,10.52,.06-1.17,2.42-8.16-.22,1.5,2.69,4.43,2.14-1.08,2.24-13.5-6.53Z"/>
      <path d="M28.18,43.41l1.52-2.33,14.75,4.84-1.38,2.1-3.66-1.27-2.41,3.68,2.63,2.84-1.3,1.98-10.17-11.84Zm9.34,2.69l-6.69-2.32,4.81,5.18,1.87-2.86Z"/>
      <path d="M32.09,37.53l5.77-7.12,1.64,1.33-2.11,2.6,10.01,8.12-1.56,1.93-10.01-8.12-2.1,2.58-1.64-1.33Z"/>
      <path d="M39.4,28.81l1.75-1.76,9.14,9.1,3.75-3.76,1.49,1.48-5.5,5.52-10.62-10.59Z"/>
      <path d="M47,21.49l6.75-5.31,1.23,1.56-4.8,3.78,2.65,3.37,3.76-2.96,1.24,1.57-3.76,2.96,2.9,3.69,4.88-3.84,1.26,1.6-6.83,5.37-9.27-11.78Z"/>
      <path d="M56.56,14.3l3.91-2.25c1.42-.82,2.64-1.1,3.69-.84,1.04,.25,1.91,.98,2.6,2.18,.92,1.6,.91,3.11-.03,4.54l5.85,4.45-2.33,1.34-5.15-4.26-2.02,1.17,3.13,5.43-2.15,1.24-7.49-12.99Zm3.11,.43l2.44,4.24,1.65-.95c.74-.42,1.16-.94,1.27-1.54s-.02-1.24-.4-1.89c-.78-1.36-1.88-1.63-3.3-.81l-1.67,.96Z"/>
      <path d="M68.16,8.1l2.28-.99,5.96,13.76-2.28,.99-5.96-13.76Z"/>
      <path d="M88.29,5.12l-1.88,1.23c-.43-.71-.89-1.2-1.38-1.47s-1.07-.32-1.75-.15c-.63,.16-1.07,.47-1.33,.93-.25,.46-.32,.93-.2,1.42,.13,.54,.43,.91,.9,1.13s1.33,.41,2.6,.56c1.08,.13,1.93,.3,2.55,.51,.62,.21,1.16,.56,1.64,1.05,.47,.49,.8,1.11,.99,1.87,.3,1.22,.13,2.37-.52,3.45-.65,1.08-1.75,1.81-3.31,2.19-2.69,.67-4.69-.28-6-2.83l2-1.14c.82,1.7,2.03,2.35,3.61,1.95,.77-.19,1.31-.54,1.61-1.04,.3-.5,.38-1.05,.23-1.64-.11-.43-.35-.8-.72-1.1s-1.16-.52-2.36-.67c-1.28-.15-2.21-.32-2.8-.49-.59-.18-1.14-.52-1.65-1.03-.51-.51-.86-1.14-1.05-1.9-.29-1.16-.13-2.23,.48-3.22,.61-.99,1.58-1.65,2.92-1.98,2.37-.59,4.17,.21,5.41,2.39Z"/>
      <path d="M91.63,1.16l2.47-.25,.62,6.19,4.39-.44-.62-6.19,2.47-.25,1.49,14.92-2.47,.25-.66-6.65-4.39,.44,.66,6.65-2.47,.25-1.49-14.92Z"/>
      <path d="M115.37,7.99c-.11,2.56-.64,4.48-1.61,5.75-.97,1.27-2.32,1.87-4.07,1.8-1.75-.07-3.06-.78-3.94-2.12s-1.26-3.3-1.15-5.87c.1-2.55,.65-4.46,1.62-5.73,.98-1.28,2.34-1.88,4.1-1.8,1.73,.07,3.04,.78,3.9,2.12,.87,1.34,1.25,3.3,1.14,5.86Zm-2.6-.1c.07-1.78-.08-3.19-.45-4.23-.37-1.04-1.07-1.58-2.1-1.62-1.03-.04-1.77,.44-2.23,1.45s-.71,2.4-.79,4.17c-.07,1.74,.07,3.14,.43,4.2,.36,1.06,1.07,1.61,2.14,1.65,1,.04,1.73-.43,2.19-1.42,.46-.99,.73-2.39,.8-4.2Z"/>
      <path d="M123.37,9.21l4.91,1-1.56,7.64-1.3-.26,.06-1.93c-1.02,1.2-2.34,1.63-3.95,1.3-1.64-.33-2.79-1.26-3.44-2.78-.65-1.52-.75-3.42-.28-5.7,.49-2.4,1.33-4.21,2.53-5.43,1.2-1.22,2.75-1.63,4.64-1.25,2.64,.54,3.91,2.35,3.82,5.44l-2.31,.1c0-1.32-.18-2.21-.54-2.67-.36-.46-.84-.75-1.43-.88-1.97-.4-3.33,1.26-4.09,4.99-.76,3.75-.14,5.83,1.88,6.24,1.67,.34,2.77-.77,3.29-3.33l-2.63-.54,.4-1.95Z"/>
      <path d="M133.86,4.34l8.05,3-.69,1.86-5.72-2.13-1.5,4.02,4.49,1.67-.7,1.87-4.49-1.67-1.64,4.4,5.82,2.17-.71,1.9-8.14-3.03,5.23-14.05Z"/>
      <path d="M145.02,8.78l2.55,1.43-1,11.84,5.3-9.42,1.81,1.02-7.35,13.07-2.02-1.14,1.06-13.18-5.89,10.47-1.81-1.02,7.35-13.07Z"/>
      <path d="M160.34,31.57l1.5,1.75c-2.55,2.19-4.88,2.36-6.99,.51-1.37-1.2-1.92-2.63-1.67-4.27,.25-1.64,1.16-3.34,2.71-5.1,1.67-1.9,3.3-3.04,4.9-3.43,1.6-.39,3.07,0,4.4,1.18,2.06,1.82,2.15,4.17,.25,7.04l-1.96-1.27c1.31-1.87,1.43-3.28,.36-4.22-1.44-1.27-3.46-.42-6.07,2.55-2.43,2.76-2.93,4.77-1.49,6.04,.58,.51,1.19,.67,1.84,.5,.65-.17,1.39-.6,2.21-1.29Z"/>
      <path d="M170.96,28.12l1.65,1.85-9.63,8.58,3.53,3.96-1.57,1.4-5.18-5.81,11.19-9.98Z"/>
      <path d="M177.73,35.93l1.4,1.98-7.59,5.38c-.85,.6-1.44,1.09-1.78,1.46-.34,.38-.51,.81-.52,1.29s.18,1,.56,1.55c.36,.51,.74,.85,1.14,1,.4,.15,.82,.16,1.26,.03,.44-.13,1.19-.57,2.24-1.32l7.56-5.35,1.29,1.82-7.46,5.28c-1.2,.85-2.18,1.41-2.94,1.7-.77,.29-1.58,.27-2.44-.05-.86-.32-1.66-1-2.4-2.04-.57-.81-.93-1.6-1.09-2.38-.16-.78-.04-1.54,.33-2.26,.38-.73,1.33-1.63,2.86-2.71l7.59-5.38Z"/>
      <path d="M185.45,47.28l2.15,3.99c.54,1.01,.88,1.81,1,2.42,.12,.61,0,1.24-.36,1.91-.36,.66-.94,1.21-1.74,1.64-1.46,.79-2.78,.66-3.95-.4,.36,1.85-.32,3.23-2.04,4.16-.97,.53-1.99,.67-3.05,.44s-2.07-1.23-3.02-2.99l-2.19-4.05,13.2-7.12Zm-10.29,8.31l.95,1.76c.87,1.61,2.02,2.03,3.44,1.26,.55-.3,.96-.74,1.21-1.32s.1-1.39-.47-2.44l-.85-1.58-4.28,2.31Zm5.97-3.22l.75,1.38c.53,.97,1.05,1.52,1.58,1.63s1.07,.02,1.64-.29c.66-.36,1.04-.79,1.14-1.3,.1-.51-.06-1.13-.46-1.88l-.86-1.59-3.78,2.04Z"/>
    </g>
    <path class="cls-1" d="M218.89,85.76c-.47,1.61-1.7,2.91-3.12,3.79-.99,.62-2.08,1.05-3.2,1.4-.01,.54-.02,1.07-.03,1.61-.01,.27-.02,.54-.12,.79-.07,.18-.19,.34-.29,.5-.08,.14-.15,.28-.21,.43-.44,1.06-.26,2.33,.11,3.45,.43,1.27,1.09,2.46,1.33,3.78,.38,2.06-.31,4.15-1.11,6.08-1.33,3.22-2.98,6.31-4.92,9.2-.77,1.16-1.62,2.31-2.79,3.09-1.16,.78-2.69,1.12-3.97,.55-.3-.13-.57-.31-.83-.51-.26-.2-.5-.43-.74-.66-.42-.41-.84-.86-1-1.42-.23-.81,.13-1.66,.29-2.48,.06-.31,.09-.62,.1-.93,.05-.96-.06-1.93-.04-2.89,0-.14,0-.28,.02-.42-2.39,.65-4.72,1.54-6.94,2.66-.19,.09-.38,.19-.5,.36-.34,.49,.09,1.13,.51,1.55,2,1.99,4.3,3.69,6.8,5.02,.29,.17,.59,.32,.89,.47,.3,.16,.6,.3,.91,.44h0c.99,.46,2.01,.86,3.05,1.2-.73,1.09-1.72,2.01-2.87,2.65-.72,.4-1.28,1.15-4.88-1.62-1.32-1.02-3.67-3.57-5.27-4.41-.47,1.26-.93,2.52-1.4,3.78-.21,.59-.46,1.21-1,1.53-1.12,.65-2.39-.47-3.55-1.03-.85-.4-1.83-.52-2.74-.31-.68,4.95-2.29,9.77-4.72,14.13-.47,.84-.99,1.69-1.77,2.26-1.75,1.26-4.22,.72-6.12-.29-.98-.53-1.92-1.18-2.7-1.98-1.03-1.07-1.77-2.4-2.47-3.71-2.15-4-4.16-8.08-6.02-12.22-1.14-2.55-2.25-5.3-1.79-8.05,.19-1.13,.64-2.21,.71-3.36,.03-.48,0-.96-.08-1.45-.41-2.59-2.21-5.13-4.53-6.22-1.89-.89-3.9-1.53-5.96-1.91-.18-.03-.37-.07-.49-.2-.25-.27-.06-.7,.14-1,.27-.42,.54-.83,.81-1.24,.14-.21,.29-.43,.51-.54,.2-.1,.43-.1,.66-.09,1.74,.03,3.83,.28,5.93,.41,2.94,.2,5.89,.17,7.95-1.01-.57-.57-1.04-1.25-1.55-1.88-.49-.6-1.01-1.15-1.68-1.54-3-1.72-6.02-3.44-8.68-5.64-1.35-1.12-2.6-2.36-4.05-3.35-1.4-.97-2.95-1.7-4.5-2.42-2.27-1.06-4.55-2.12-6.99-2.68-2.8-.64-5.88-.65-8.23-2.3-.28-.2-.55-.43-.69-.73-.15-.33-.14-.7-.1-1.06,.25-2.44,1.54-4.94,2.93-7.37-1.34-.57-2.79-.9-4.25-.99-.39-.02-.79-.02-1.18,0-.48,.02-.97,.06-1.42,.23-.37,.14-.7,.35-1.03,.55-.05,.02-.09,.04-.13,.07-.11,.08-.23,.15-.34,.21-.51,.26-1.11,.44-1.65,.24-.72-.27-1.04-1.1-1.2-1.85-.41-1.97-.22-4.05,.52-5.92,.18-.47,.45-.97,.91-1.16,.43-.18,.92-.05,1.36,.1,1.94,.67,3.7,1.78,5.62,2.53,1.91,.74,4.13,1.09,5.98,.18-.03,.08-.07,.16-.11,.24,2.28,.62,4.5,1.6,6.43,2.98,.58,.42,1.14,.87,1.77,1.21,.8,.44,1.7,.68,2.52,1.09,1.77,.86,3.15,2.4,4.93,3.25,.61,.3,1.26,.5,1.9,.73,4.76,1.68,5.47,3.14,9.85,4.64l.03-.09c1.79-.05,3.58-.11,5.37-.17,.32-.01,.66-.01,.93,.15,.38,.23,.51,.7,.65,1.12,.36,1.1,.98,2.1,1.77,2.94l.12-.12c9.67,.85,19.63-.88,28.97,1.74,.81,.22,1.62,.49,2.37,.87,.68,.35,1.3,.8,1.92,1.25,.53,.39,1.8,1.16,2.33,1.54l.12,.03c.25-1.08,.72-2.14,1.28-3.03,.83-1.32,1.72-2.6,2.68-3.83,.4-.52,.81-1.02,1.32-1.43,.63-.51,1.39-.84,2.17-1.05,2.03-.51,4.27-.1,5.99,1.09,.43,.3,.84,.66,1.16,1.08,.46,.63,.71,1.39,.93,2.14,.5,1.71,.89,3.54,.39,5.24Z"/>
    <g>
      <g>
        <path d="M206.24,91.82c-.65-.16-1.26-.43-1.77-.86-.54-.45-.93-.96-1.19-1.51-.01-.01-.02-.02-.01-.03-.6-1.2-.6-2.6-.28-3.94,.25-1.06,.71-2.09,1.26-2.96,.83-1.32,1.73-2.6,2.69-3.83,.39-.51,.81-1.02,1.31-1.43,.63-.5,1.39-.84,2.18-1.04,2.02-.52,4.26-.11,5.98,1.08,.44,.31,.84,.66,1.16,1.09,.47,.63,.71,1.39,.93,2.14,.5,1.7,.89,3.53,.39,5.24-.47,1.6-1.69,2.91-3.11,3.79-1.01,.63-2.13,1.06-3.27,1.43-.46,.14-.92,.27-1.38,.4-1.12,.3-2.26,.59-3.42,.6-.49,0-.99-.05-1.47-.17Zm9.47-6.19c.78-.84,1.34-1.95,1.28-3.09-.05-.93-.49-1.79-.93-2.62-.39-.74-.81-1.52-1.53-1.96-.95-.57-2.16-.41-3.24-.13-.75,.2-1.51,.45-2.14,.91-1.89,1.37-2.62,3.98-4.05,5.76-1.22,1.53-1.84,3.62-.78,5.44,.07,.12,.15,.25,.27,.33,.14,.1,.32,.14,.5,.16,2.82,.34,5.48-1.22,7.89-2.73,.97-.61,1.96-1.23,2.73-2.07Z"/>
        <path d="M203.27,89.42s0,.02,.01,.03c0,.07-.09,.25-.12,.3-.52,.92-1.41,1.56-2.16,2.3-.25,.25-1.99,1.36-2.24,1.52,.32-.08,2.88-.73,3.36-.95,1.45-.62,2.56-.92,4.12-.8,.48,.12,.98,.17,1.47,.17,1.16-.01,2.3-.3,3.42-.6,.46-.13,.92-.26,1.38-.4,.01,.55,.04,1.2,.03,1.58-.01,.27-.01,.54-.11,.79-.08,.18-.19,.33-.29,.5-.7,1.14-.53,2.61-.1,3.88,.43,1.26,1.08,2.46,1.32,3.77,.38,2.06-.31,4.15-1.11,6.09-1.32,3.22-2.97,6.3-4.91,9.2-.78,1.16-1.63,2.31-2.79,3.08-1.16,.78-2.7,1.12-3.98,.56-.6-.27-1.1-.72-1.57-1.18-.42-.4-.83-.85-.99-1.41-.23-.81,.12-1.66,.28-2.49,.06-.3,.09-.61,.1-.92h.08c.51,.21,.36,.96,.46,1.5,.06,.27,.2,.51,.34,.75,.37,.64,.77,1.3,1.35,1.76,.58,.47,1.4,.71,2.09,.42,.46-.19,.81-.59,1.13-.98,.49-.57,.97-1.14,1.45-1.71,.33-.39,.67-.8,.81-1.29,.12-.39,.1-.81,.16-1.22,.05-.36,.16-.69,.3-1,.62-1.37,1.99-2.42,2.98-3.62,1.42-1.72,2.14-4.01,1.95-6.23-.08-1.02-.37-2.07-1.08-2.8-.2-.21-.44-.39-.56-.65-.15-.3-.14-.65-.12-.98,.08-1.2,.15-2.39,.22-3.59-2-.05-4.01-.1-6.01-.05-2.67,.06-5.33,.29-7.93,.92-1.15,.29-2.31,.65-3.5,.54,1.02-.52,1.97-1.16,2.84-1.91,.75-.65,1.44-1.37,2.13-2.09,1.97-2.08,3.97-4.18,5.38-6.68l.03-.11s.07,.04,.1,.06c-.32,1.34-.32,2.74,.28,3.94Z"/>
        <path d="M207.51,104.25c.7,.68,.67,1.84,.26,2.73-.41,.88-1.13,1.58-1.72,2.36-.5,.65-.93,1.44-.95,2.25-.06-.05-.11-.14-.12-.22-.21-1.11-.25-2.25-.11-3.37,.13-1.1,.43-2.18,.45-3.29,.01-1.11-.32-2.3-1.2-2.97-.11-.08-.23-.16-.34-.22,.38-.11,.82-.32,1.16-.33,.44,0,.91-.1,1.21-.42-.38,.84-.11,2.05,.47,2.76,.25,.29,.61,.46,.89,.72Z"/>
        <path d="M200.04,121.62c1,.46,2.02,.86,3.06,1.2-.72,1.1-1.72,2.01-2.86,2.65-.72,.41-1.29,1.16-4.88-1.61-1.33-1.02-3.68-3.57-5.28-4.42-.46,1.26-.93,2.53-1.39,3.79-.22,.58-.47,1.21-1.01,1.52-1.12,.66-2.38-.46-3.55-1.02-.63-.31-1.34-.45-2.04-.41l-.13-1.9c.67-.07,1.3-.37,1.65-.95,.33-.55,.34-1.23,.48-1.87,.14-.63,.5-1.31,1.14-1.43,.04,.41,.15,.9,.55,1.01,.29,.09,.61-.11,.74-.39,.14-.27,.14-.59,.11-.89,0-1.48-1.12-2.97-2.04-4.03-.48-.54-1.01-1.37-1.48-.41-.35,.71-.3,1.89-.42,2.67-.05,.34-.1,.68-.29,.97-.14,.23-.35,.4-.56,.57-.52,.43-1.05,.86-1.57,1.29-.37,.3-.88,.62-1.3,.38-.07-.04-.13-.09-.18-.15-.18-.22-.22-.56-.2-.86,.11-1.17,.91-2.15,1.31-3.25,.35-.97,.38-2.03,.41-3.07,.04-1.29,.08-2.57,.11-3.86,0-.36,.02-.73-.12-1.06s-.47-.61-.83-.57c.02-1.13,0-2.28-.3-3.37-.28-1.01-.78-1.93-1.14-2.91-.35-.98-.56-2.07-.21-3.06,.19-.56,.55-1.05,.8-1.59,.12-.27,.22-.56,.28-.85l1.13,.17c-.07,.31-.09,.63-.04,.95,.39,2.42,1.05,4.97,.96,7.42,.61-.42,1.52-.05,1.85,.6,.33,.66,.18,1.47-.18,2.11-.18,.31-.41,.63-.39,.98,.02,.27,.18,.51,.34,.73,1.21,1.63,2.6,3.12,4.15,4.43,.46-1.03,1.01-2.04,1.79-2.85,.79-.8,1.85-1.4,2.98-1.43-.95,.85-1.73,1.9-2.28,3.05,1.95-.34,3.5-1.79,4.92-3.18l-.36,2.01c1.84-.28,3.61-1.01,5.1-2.12-.08,1.48-.42,3.01-.49,4.51-2.4,.65-4.73,1.54-6.95,2.66-.18,.1-.37,.2-.49,.37-.34,.48,.09,1.13,.51,1.55,2.48,2.47,5.4,4.48,8.59,5.92Z"/>
        <path d="M158.76,76.42c-.13-.04-.25-.08-.37-.13l.03-.08c1.79-.06,3.58-.12,5.38-.17,.31,0,.65-.02,.93,.15,.37,.22,.51,.69,.64,1.11,.36,1.1,.98,2.1,1.78,2.94,1.67,1.78,4.12,2.85,6.56,2.69,.21,.66-.7,1.25-.57,1.93,.03,.17,.13,.33,.24,.47,.72,.98,1.77,1.72,2.94,2.06,3.05,.89,6.28-.89,9.44-.59-.72,.25-1.52,.18-2.23,.48-.7,.29-1.25,1.21-.77,1.8,.29,.35,.79,.4,1.25,.43,2.19,.13,4.39,.27,6.59,.4-2.46-.1-4.94,.28-7.25,1.12-.87,.31-1.73,.7-2.4,1.34-.43,.42-.77,.96-.92,1.54l-1.13-.17c.11-.48,.13-.97,.06-1.45-.01-.13-.04-.25-.13-.34-.1-.1-.25-.12-.4-.13-1.48-.06-3.07,.23-4.38-.48-.42-.23-.78-.55-1.2-.78s-.94-.36-1.37-.16l-.68,.14c-.23-1.21-.54-2.38-1.3-3.33-.98-1.24-2.55-1.86-3.64-3-.75-.78-1.25-1.77-1.87-2.65-.74-1.07-1.67-2-2.74-2.73-.95-.66-2.06-1.23-2.53-2.28l.04-.13Z"/>
        <path d="M181.96,121.42l.13,1.9c-.23,.01-.47,.04-.7,.09-.68,4.95-2.29,9.77-4.72,14.14-.46,.84-.98,1.69-1.77,2.25-1.74,1.26-4.21,.73-6.11-.29-.99-.53-1.92-1.17-2.7-1.98-1.04-1.07-1.77-2.39-2.48-3.7-2.15-4-4.16-8.08-6.01-12.23-1.15-2.54-2.26-5.29-1.79-8.04,.09-.53,.24-1.05,.37-1.58l.39,.1c.26-.08,.53-.16,.79-.25-.47,.92-.06,2.61,.23,3.6,.3,.99,.8,1.9,1.19,2.85,.49,1.21,.8,2.49,1.23,3.72,.52,1.5,1.22,2.94,1.91,4.37,.82,1.69,1.66,3.4,2.9,4.82,1.14,1.29,2.6,2.3,4.22,2.9,1.03,.39,2.17,.6,3.21,.26,1.1-.36,1.9-1.28,2.65-2.15,.43-.51,.87-1.02,1.13-1.63,.21-.48,.31-.99,.39-1.5,.1-.54,.16-1.17-.24-1.55-.36-.35-.97-.31-1.4-.04-.42,.27-.71,.71-.98,1.13-.29-1.19,1.6-1.95,1.57-3.17-.02-.9-1.02-1.38-1.74-1.91-1.61-1.17-2.28-3.39-1.85-5.33,.19-.86,.57-1.67,.8-2.51,.37-1.35,.37-2.76,.37-4.16,0-2.81,.05-5.63,.03-8.45,0-2.01-.02-4.04-.47-6-.35-1.48-.95-2.89-1.29-4.37-.16-.71-.28-1.45-.42-2.17l.68-.14c.36,1.05,.73,2.09,1.09,3.13,.69,1.97,1.38,3.95,1.81,5.99,.38,1.81,.56,3.65,.52,5.5-.01,.52-.03,1.05,.08,1.56,.09,.4,.26,.79,.37,1.19,.61,2.27-.88,4.67-.43,6.97,.31,1.53,1.4,2.74,2.5,3.88,.16,.16,.32,.32,.47,.48,.79,.82,1.6,1.69,2.66,2.12,.44,.17,.93,.24,1.41,.2Z"/>
        <path d="M166.72,106.22c.83,1.67,1.23,3.82,.1,5.31-.36,.46-.91,.84-1.5,.8-.27-.02-.53-.13-.78-.26-.81-.43-1.5-1.11-1.96-1.91-.09-.16-.17-.32-.21-.5-.01-.02-.02-.04-.02-.06-.06-.33,.01-.66,.06-.98,.39-2.81-.98-5.59-2.81-7.76-.42-.5-.88-.99-1.46-1.3-1.44-.77-3.95-.6-5.17-1.69,2.58,.02,5.96,.53,8.49-.93,.17,.18,.36,.35,.56,.51,.61,.46,1.29,.9,1.67,1.57,.38,.65,.41,1.45,.58,2.19,.41,1.82,1.62,3.34,2.45,5.01Z"/>
        <path d="M162.18,108.62h.23c-.05,.32-.12,.65-.06,.98,0,.02,.01,.04,.02,.06l-.06,.02c-1.21,.25-2.25,1.02-3.37,1.55-.51,.23-1.04,.42-1.58,.6-.26,.09-.53,.17-.79,.25l-.39-.1c.16-.59,.3-1.18,.33-1.78,.03-.48,0-.98-.08-1.47l.29-.03c1.81,.16,3.65,.14,5.46-.08Z"/>
        <path d="M127.91,67.98c.71-1.23,1.45-2.44,2.09-3.62-.84,2.57-1.77,5.27-2.65,7.75-.21,.59-.39,1.23-.24,1.83,.18,.7,.78,1.23,1.44,1.52,.66,.3,1.38,.4,2.09,.54,1.31,.26,2.59,.66,3.82,1.18,1,.42,2.01,.93,3.09,.88,.69-.04,1.36-.3,2.05-.29,1.11,.03,2.08,.77,2.81,1.6s1.33,1.79,2.17,2.5c1.68,1.42,4.02,1.66,6.16,2.11,2.59,.54,5.09,1.48,7.39,2.77,1.13,.64,2.27,1.42,2.85,2.58-1.34-.73-2.83-1.18-4.35-1.31-.22,.85,.41,1.65,.93,2.35,1.06,1.41,1.86,3.02,2.35,4.71-.49-.61-1.01-1.17-1.69-1.56-3-1.71-6.01-3.44-8.67-5.64-1.35-1.12-2.61-2.35-4.05-3.35-1.41-.97-2.96-1.69-4.51-2.41-2.26-1.06-4.55-2.13-6.99-2.68-2.8-.64-5.88-.65-8.23-2.31-.28-.19-.55-.42-.69-.73-.15-.32-.13-.7-.1-1.05,.25-2.44,1.54-4.94,2.93-7.37Z"/>
        <path d="M130,64.36c-.64,1.18-1.38,2.39-2.09,3.62-1.34-.57-2.79-.91-4.25-.99,.54-.1,1.04-.27,1.49-.59,.38-.27,.68-.63,1.01-.95,.58-.55,1.25-.98,1.92-1.41,.9-.57,1.79-1.13,2.69-1.7,.07,.02,.15,.04,.22,.06-.28,.64-.62,1.29-.99,1.96Z"/>
      </g>
      <g>
        <path class="cls-3" d="M131.1,62.16c-1.84,.9-4.07,.56-5.98-.19-1.91-.74-3.67-1.86-5.61-2.53-.44-.15-.93-.27-1.36-.1-.47,.2-.73,.69-.92,1.16-.74,1.87-.92,3.96-.51,5.92,.15,.76,.48,1.58,1.19,1.85,.54,.2,1.15,.03,1.65-.24,.18-.1,.35-.2,.53-.31,.31-.19,.63-.39,.97-.51,.46-.17,.94-.22,1.43-.23,.39-.01,.78-.01,1.17,.01,1.46,.08,2.91,.42,4.25,.99,.11,.04,.21,.08,.31,.13"/>
        <path class="cls-3" d="M119.9,67.82c.06-.04,.12-.07,.19-.1,1.06-.57,2.39-.49,3.57-.73,.54-.1,1.04-.27,1.49-.59,.38-.27,.68-.63,1.01-.95,.58-.55,1.25-.98,1.92-1.41,.9-.57,1.79-1.13,2.69-1.7,.07,.02,.15,.04,.22,.06,2.29,.61,4.51,1.59,6.44,2.98,.58,.41,1.14,.86,1.76,1.2,.81,.44,1.7,.69,2.52,1.09,1.78,.87,3.15,2.41,4.93,3.26,.62,.29,1.26,.5,1.9,.72,4.76,1.68,5.47,3.15,9.85,4.64,.12,.05,.24,.09,.37,.13s.27,.09,.41,.13"/>
        <path class="cls-3" d="M131.1,62.16c-.03,.08-.07,.16-.11,.24-.28,.64-.62,1.29-.99,1.96-.64,1.18-1.38,2.39-2.09,3.62-1.39,2.43-2.68,4.93-2.93,7.37-.03,.35-.05,.73,.1,1.05,.14,.31,.41,.54,.69,.73,2.35,1.66,5.43,1.67,8.23,2.31,2.44,.55,4.73,1.62,6.99,2.68,1.55,.72,3.1,1.44,4.51,2.41,1.44,1,2.7,2.23,4.05,3.35,2.66,2.2,5.67,3.93,8.67,5.64,.68,.39,1.2,.95,1.69,1.56,.51,.62,.98,1.29,1.55,1.86,.17,.18,.36,.35,.56,.51,.61,.46,1.29,.9,1.67,1.57,.38,.65,.41,1.45,.58,2.19,.41,1.82,1.62,3.34,2.45,5.01s1.23,3.82,.1,5.31c-.36,.46-.91,.84-1.5,.8-.27-.02-.53-.13-.78-.26-.81-.43-1.5-1.11-1.96-1.91-.09-.16-.17-.32-.21-.5-.01-.02-.02-.04-.02-.06-.06-.33,.01-.66,.06-.98,.39-2.81-.98-5.59-2.81-7.76-.42-.5-.88-.99-1.46-1.3-1.44-.77-3.95-.6-5.17-1.69"/>
        <path class="cls-3" d="M161.46,96.94c-2.53,1.46-5.91,.95-8.49,.93-1.04-.02-1.94,.05-2.62,.34-.21,.09-2.8-.39-3.94-.04-.47,.15-1.72,.64-1.69,1.74,0,.18,1.05,.68,1.23,.71,2.05,.37,4.06,1.02,5.95,1.91,2.31,1.09,4.11,3.62,4.53,6.2,.08,.49,.11,.99,.08,1.47-.03,.6-.17,1.19-.33,1.78-.13,.53-.28,1.05-.37,1.58-.47,2.75,.64,5.5,1.79,8.04,1.85,4.15,3.86,8.23,6.01,12.23,.71,1.31,1.44,2.63,2.48,3.7,.78,.81,1.71,1.45,2.7,1.98,1.9,1.02,4.37,1.55,6.11,.29,.79-.56,1.31-1.41,1.77-2.25,2.43-4.37,4.04-9.19,4.72-14.14,.23-.05,.47-.08,.7-.09,.7-.04,1.41,.1,2.04,.41,1.17,.56,2.43,1.68,3.55,1.02,.54-.31,.79-.94,1.01-1.52,.46-1.26,.93-2.53,1.39-3.79,1.6,.85,3.95,3.4,5.28,4.42,3.59,2.77,4.16,2.02,4.88,1.61,1.14-.64,2.14-1.55,2.86-2.65-1.04-.34-2.06-.74-3.06-1.2-3.19-1.44-6.11-3.45-8.59-5.92-.42-.42-.85-1.07-.51-1.55,.12-.17,.31-.27,.49-.37,2.22-1.12,4.55-2.01,6.95-2.66,.05-.01,.09-.03,.14-.04"/>
        <path class="cls-3" d="M205.26,111.61c-.06,.05-.11,.03-.16-.02-.06-.05-.11-.14-.12-.22-.21-1.11-.25-2.25-.11-3.37,.13-1.1,.43-2.18,.45-3.29,.01-1.11-.32-2.3-1.2-2.97-.11-.08-.23-.16-.34-.22-.9-.5-1.9-.39-2.72-1.14-.09,.05-.17,.09-.27,.12-.42,.16-.91,.15-1.36,.19-.56,.06-1.18,.25-1.42,.75-.29,.61,.11,1.29,.38,1.9,.45,1.04,.54,2.14,.48,3.27-.08,1.48-.42,3.01-.49,4.51-.01,.14-.02,.29-.02,.43-.02,.96,.09,1.93,.03,2.89-.01,.31-.04,.62-.1,.92-.16,.83-.51,1.68-.28,2.49,.16,.56,.57,1.01,.99,1.41,.47,.46,.97,.91,1.57,1.18,1.28,.56,2.82,.22,3.98-.56,1.16-.77,2.01-1.92,2.79-3.08,1.94-2.9,3.59-5.98,4.91-9.2,.8-1.94,1.49-4.03,1.11-6.09-.24-1.31-.89-2.51-1.32-3.77-.43-1.27-.6-2.74,.1-3.88,.1-.17,.21-.32,.29-.5,.1-.25,.1-.52,.11-.79,.01-.38-.02-1.03-.03-1.58,0-.25,0-.49,0-.66"/>
        <path class="cls-3" d="M203.51,101.59c.09-.01,.18-.03,.27-.07,.38-.11,.82-.32,1.16-.33,.44,0,.91-.1,1.21-.42,.47-.47,.4-1.24,.2-1.87-.32-.98-1.01-1.95-2.02-2.11-.11-.02-.23-.03-.34-.03-.35,0-.7,.08-1.04,.19-.58,.18-1.14,.42-1.67,.71-.17,.09-.34,.19-.45,.35-.13,.17-.17,.38-.21,.58-.12,.65-.22,1.39,.17,1.91,.01,.03,.03,.05,.05,.07"/>
        <path class="cls-3" d="M206.15,100.77c-.38,.84-.11,2.05,.47,2.76,.25,.29,.61,.46,.89,.72,.7,.68,.67,1.84,.26,2.73-.41,.88-1.13,1.58-1.72,2.36-.5,.65-.93,1.44-.95,2.25,0,.15,0,.29,.02,.44"/>
        <path class="cls-5" d="M209.15,78.74c.63-.46,1.39-.71,2.14-.91,1.08-.28,2.29-.44,3.24,.13,.72,.44,1.14,1.22,1.53,1.96,.44,.83,.88,1.69,.93,2.62,.06,1.14-.5,2.25-1.28,3.09-.77,.84-1.76,1.46-2.73,2.07-2.41,1.51-5.07,3.07-7.89,2.73-.18-.02-.36-.06-.5-.16-.12-.08-.2-.21-.27-.33-1.06-1.82-.44-3.91,.78-5.44,1.43-1.78,2.16-4.39,4.05-5.76Z"/>
        <path class="cls-3" d="M198.47,114.44c.51,.21,.36,.96,.46,1.5,.06,.27,.2,.51,.34,.75,.37,.64,.77,1.3,1.35,1.76,.58,.47,1.4,.71,2.09,.42,.46-.19,.81-.59,1.13-.98,.49-.57,.97-1.14,1.45-1.71,.33-.39,.67-.8,.81-1.29,.12-.39,.1-.81,.16-1.22,.05-.36,.16-.69,.3-1,.62-1.37,1.99-2.42,2.98-3.62,1.42-1.72,2.14-4.01,1.95-6.23-.08-1.02-.37-2.07-1.08-2.8-.2-.21-.44-.39-.56-.65-.15-.3-.14-.65-.12-.98,.08-1.2,.15-2.39,.22-3.59-2-.05-4.01-.1-6.01-.05-2.67,.06-5.33,.29-7.93,.92-1.15,.29-2.31,.65-3.5,.54,1.02-.52,1.97-1.16,2.84-1.91,.75-.65,1.44-1.37,2.13-2.09,1.97-2.08,3.97-4.18,5.38-6.68"/>
        <path class="cls-5" d="M198.73,93.58s.01,0,.03-.01c.32-.08,2.88-.73,3.36-.95,1.45-.62,2.56-.92,4.12-.8h.07"/>
        <path class="cls-5" d="M203.28,89.45c0,.07-.09,.25-.12,.3-.52,.92-1.41,1.56-2.16,2.3-.25,.25-1.99,1.36-2.24,1.52"/>
        <path class="cls-5" d="M203.25,89.41s.02,0,.02,.01"/>
        <path class="cls-3" d="M203.51,85.81c-.12-.08-.3-.2-.52-.33-.03-.02-.06-.04-.1-.06-.79-.48-1.97-1.14-2.37-1.43-.62-.45-1.24-.9-1.92-1.25-.75-.39-1.55-.65-2.36-.88-9.35-2.61-19.31-.88-28.97-1.74"/>
        <path class="cls-3" d="M156.57,112.08c.26-.08,.53-.16,.79-.25,.54-.18,1.07-.37,1.58-.6,1.12-.53,2.16-1.3,3.37-1.55"/>
        <path class="cls-3" d="M156.72,108.7c1.81,.16,3.65,.14,5.46-.08"/>
        <path class="cls-3" d="M157.36,111.83c-.47,.92-.06,2.61,.23,3.6,.3,.99,.8,1.9,1.19,2.85,.49,1.21,.8,2.49,1.23,3.72,.52,1.5,1.22,2.94,1.91,4.37,.82,1.69,1.66,3.4,2.9,4.82,1.14,1.29,2.6,2.3,4.22,2.9,1.03,.39,2.17,.6,3.21,.26,1.1-.36,1.9-1.28,2.65-2.15,.43-.51,.87-1.02,1.13-1.63,.21-.48,.31-.99,.39-1.5,.1-.54,.16-1.17-.24-1.55-.36-.35-.97-.31-1.4-.04-.42,.27-.71,.71-.98,1.13-.29-1.19,1.6-1.95,1.57-3.17-.02-.9-1.02-1.38-1.74-1.91-1.61-1.17-2.28-3.39-1.85-5.33,.19-.86,.57-1.67,.8-2.51,.37-1.35,.37-2.76,.37-4.16,0-2.81,.05-5.63,.03-8.45,0-2.01-.02-4.04-.47-6-.35-1.48-.95-2.89-1.29-4.37-.16-.71-.28-1.45-.42-2.17-.23-1.21-.54-2.38-1.3-3.33-.98-1.24-2.55-1.86-3.64-3-.75-.78-1.25-1.77-1.87-2.65-.74-1.07-1.67-2-2.74-2.73-.95-.66-2.06-1.23-2.53-2.28"/>
        <path class="cls-3" d="M130.48,62.85c-.16,.5-.32,1-.48,1.51-.84,2.57-1.77,5.27-2.65,7.75-.21,.59-.39,1.23-.24,1.83,.18,.7,.78,1.23,1.44,1.52,.66,.3,1.38,.4,2.09,.54,1.31,.26,2.59,.66,3.82,1.18,1,.42,2.01,.93,3.09,.88,.69-.04,1.36-.3,2.05-.29,1.11,.03,2.08,.77,2.81,1.6s1.33,1.79,2.17,2.5c1.68,1.42,4.02,1.66,6.16,2.11,2.59,.54,5.09,1.48,7.39,2.77,1.13,.64,2.27,1.42,2.85,2.58-1.34-.73-2.83-1.18-4.35-1.31-.22,.85,.41,1.65,.93,2.35,1.06,1.41,1.86,3.02,2.35,4.71,.04,.1,.06,.19,.09,.29"/>
        <path class="cls-6" d="M158.42,76.21c1.79-.06,3.58-.12,5.38-.17,.31,0,.65-.02,.93,.15,.37,.22,.51,.69,.64,1.11,.36,1.1,.98,2.1,1.78,2.94,1.67,1.78,4.12,2.85,6.56,2.69,.21,.66-.7,1.25-.57,1.93,.03,.17,.13,.33,.24,.47,.72,.98,1.77,1.72,2.94,2.06,3.05,.89,6.28-.89,9.44-.59-.72,.25-1.52,.18-2.23,.48-.7,.29-1.25,1.21-.77,1.8,.29,.35,.79,.4,1.25,.43,2.19,.13,4.39,.27,6.59,.4-2.46-.1-4.94,.28-7.25,1.12-.87,.31-1.73,.7-2.4,1.34-.43,.42-.77,.96-.92,1.54-.07,.31-.09,.63-.04,.95,.39,2.42,1.05,4.97,.96,7.42,.61-.42,1.52-.05,1.85,.6,.33,.66,.18,1.47-.18,2.11-.18,.31-.41,.63-.39,.98,.02,.27,.18,.51,.34,.73,1.21,1.63,2.6,3.12,4.15,4.43,.46-1.03,1.01-2.04,1.79-2.85,.79-.8,1.85-1.4,2.98-1.43-.95,.85-1.73,1.9-2.28,3.05,1.95-.34,3.5-1.79,4.92-3.18l-.36,2.01c1.84-.28,3.61-1.01,5.1-2.12,.01-.01,.02-.01,.03-.02"/>
      </g>
    </g>
    <path class="cls-1" d="M97.57,63.38c-.06,.63-.16,1.26-.4,1.84-.25,.59-.64,1.12-1.19,1.43-.88,.51-1.99,.38-2.95,.07-.32-.11-.65-.23-.89-.46-.21-.21-.35-.48-.48-.74-.27-.57-.55-1.13-.83-1.69-.05-.09-.09-.19-.13-.28-.02-.04-.04-.07-.06-.11l-.21,.1c.24,1.48,.49,2.96,.81,4.43,.22,1.06,.49,2.11,.83,3.15,.4,1.23,.9,2.43,1.06,3.71,.06,.41,.08,.84-.07,1.23-.14,.35-.4,.64-.7,.88-1.41,1.13-3.39,1.11-5.21,1.18-2.89,.12-5.76,.63-8.52,1.51-2.4,.76-4.81,1.88-6.39,3.85-.85,1.07-1.86,2.14-2.91,3.02-1.04,.87-2.01,1.83-2.98,2.79-.68,.67-1.37,1.35-1.95,2.1-.67,.87-1.2,1.83-1.72,2.79-.57,1.03-1.13,2.06-1.7,3.09-.52,.95-1.04,1.91-1.46,2.91-.51,1.24-.85,2.55-1.19,3.85-.43,1.64-.86,3.31-.86,5.01,.01,1.46-1.01,2.81-1.6,4.15-.36,.8-.78,1.59-.98,2.45-.34,1.41-.1,2.89-.08,4.35,.03,2.11-.43,4.19-.89,6.25-.62,2.8-1.24,5.61-1.86,8.41-.63,2.82-1.26,5.72-.87,8.59,.41,3.09,1.97,5.92,2.48,8.99,.11,.66,.32,1.32-.07,1.86-.26,.36-.69,.53-1.1,.69-1.88,.75-3.7,1.64-5.44,2.66-.28,.16-.57,.33-.88,.42-.21,.06-.43,.08-.65,.09-.25,.73,0,1.65-.51,2.23-.05,.05-.1,.1-.15,.14h.3c.31,1.77-.75,3.63-.19,5.33,.14,.44,.38,.83,.56,1.25,.35,.79,.49,1.67,.4,2.53-.04,.34-.11,.68-.27,.98-.2,.36-.52,.63-.87,.85-1.41,.87-3.19,.8-4.83,.58-1.64-.23-3.32-.59-4.93-.21-1.22,.28-2.38,.98-3.63,.92-.94-.04-1.81-.52-2.75-.62-.62-.07-1.29,.02-1.84-.27-.77-.4-1-1.56-.44-2.23,.34-.41,.88-.6,1.4-.67,.97-.13,1.97,.08,2.92-.13,.81-.19,1.52-.67,2.2-1.15,.38-.26,.75-.52,1.12-.78,1.13-.79,2.28-1.6,3.15-2.67,.81-1.02,1.36-2.34,1.2-3.63-.17-.06-.32-.15-.41-.31-.09-.16-.1-.35-.11-.53-.05-.8-.09-1.65,.29-2.36l.05-.04c-.06-.08-.11-.16-.15-.25-.21-.45-.18-.98-.13-1.48,.14-1.72,.28-3.43,.42-5.15,.06-.75,.12-1.49,.12-2.24-.01-.82-.1-1.63-.18-2.45-.12-1.14-.24-2.29-.36-3.44-.11-1.04-.08-2.06-.37-3.06-.44-1.48-.58-3.03-.71-4.56-.16-1.75-.31-3.51-.03-5.24,.15-.92,.42-1.83,.63-2.74,.02-.07,.03-.15,.04-.22-.08,.07-.17,.14-.25,.2l-.34-.04c-.1-1.22-.2-2.43-.3-3.65-.02-.29-.05-.6-.25-.81-.33-.35-.93-.21-1.31,.08-.38,.3-.67,.71-1.1,.93-.59,.31-1.34,.18-1.89-.2-.55-.38-.93-.96-1.22-1.56-.65-1.34-.94-2.85-.84-4.34-1.73,2.15-4.03,3.75-6.3,5.31-1.01,.7-2.02,1.4-3.03,2.1-.44,.3-.92,.62-1.46,.63-.5,.01-.96-.24-1.36-.52-.91-.64-1.68-1.49-2.22-2.47-.18-.33-.33-.74-.14-1.05,.09-.16,.25-.26,.4-.35,3-1.82,6.92-1.95,9.57-4.26,.9-.79,1.6-1.79,2.53-2.55,.52-.42,1.12-.77,1.54-1.29,.43-.53,.63-1.32,.24-1.88-.24-.34-.66-.52-1.06-.66-2.2-.78-4.68-.99-6.52-2.43-.64,2.28,.37,4.9-.67,7.03-.86,1.73-3.11,2.64-4.92,1.97-.8-.29-1.48-.83-2.11-1.39-1-.89-1.93-1.85-2.85-2.81-.71-.74-1.44-1.51-1.74-2.48-.2-.65-.23-1.41-.73-1.87-1.81-1.67-1.95-4.39-2.58-6.77-.2-.75-.4-1.52-.38-2.3,.03-1.44,.79-2.75,1.52-3.99,.58-.98,1.16-1.97,1.74-2.95-.33-.62-.5-1.41-.82-2.03-.23-.46-.47-.92-.61-1.41-.21-.71-.22-1.49-.02-2.21-.31-.22-.61-.45-.9-.68-.69-.54-1.37-1.08-2.06-1.62-.61-.49-1.24-.98-1.71-1.61-.66-.89-.98-1.98-1.49-2.96-.32-.61-.72-1.18-.98-1.81-.49-1.17-.46-2.52,.01-3.69,.24-.59,.58-1.14,1.03-1.59,.46-.47,.67-.97,1.31-1.25,1.75-.76,3.67-1.26,5.57-1.03,1.89,.22,3.76,1.27,4.63,2.97,.28,.53,.45,1.11,.65,1.67,.58,1.63,1.43,3.17,2.49,4.54,.28,.35,.57,.69,.76,1.09,.01,.02,.02,.04,.03,.07l.16,.06c.14-.39,.65-.62,.97-.86,.56-.41,1.12-.83,1.68-1.24,.85-.64,1.71-1.28,2.67-1.72,1.37-.63,2.87-.86,4.36-1.07,1.21-.18,2.42-.36,3.64-.39,3.05-.09,6.05,.72,9.07,1.04,.83,.09,1.67,.15,2.51,.13,3.33-.06,6.7-1.14,9.95-.92,.76,.05,1.51,.18,2.26,.4,.81-.6,1.7-1.22,2.51-1.82,.45-.34,.91-.68,1.4-.97,.95-.55,2.03-.91,3.13-.94,1.1-.03,2.22,.27,3.11,.92,.27-.18,.54-.36,.8-.54,1.8-1.22,3.64-2.49,5.55-3.47,.8-.41,1.63-.79,2.34-1.33,.88-.66,1.61-1.57,2.66-1.89,.81-.25,1.68-.11,2.52-.19,2.15-.18,3.91-1.71,5.45-3.22,.7-.7,1.42-1.42,2.35-1.75,1.23-.44,2.58-.1,3.88-.21l.07,.04c.08-.15,.18-.29,.31-.41,.24-.22,.54-.37,.84-.51,.62-.3,1.24-.6,1.86-.9,.98-.48,1.73-.67,2.43,.3,.25,.36,.5,.71,.73,1.07,.05,.07,.1,.15,.15,.22,.18,.28,.36,.57,.51,.87,.18,.35,.32,.71,.38,1.1,.05,.38,.03,.78-.01,1.17Z"/>
    <g>
      <g>
        <path d="M97.58,62.21c.06,.39,.03,.79-.01,1.18-.06,.63-.16,1.26-.4,1.84s-.64,1.12-1.19,1.43c-.87,.51-1.98,.37-2.95,.06-.32-.1-.64-.23-.89-.46-.21-.2-.34-.47-.47-.74-.23-.46-.46-.92-.69-1.39l-.15-.3c-.04-.09-.09-.18-.13-.27h.02c.43,.35,.76,.83,1.25,1.1,.42,.22,.91,.26,1.39,.26,.71,0,1.43-.07,2.09-.34,.65-.27,1.24-.76,1.52-1.41,.16-.36,.22-.75,.25-1.13,.02-.31,.03-.62-.02-.93,.18,.35,.32,.72,.38,1.1Z"/>
        <path d="M93.14,74.83c.05,.41,.07,.85-.08,1.23-.14,.36-.4,.65-.7,.88-1.41,1.14-3.39,1.12-5.2,1.19-2.89,.12-5.77,.62-8.53,1.5-2.4,.77-4.81,1.89-6.39,3.86-.85,1.07-1.86,2.13-2.9,3.01-1.05,.88-2.02,1.84-2.99,2.8-.68,.67-1.36,1.34-1.95,2.1-.67,.86-1.19,1.83-1.72,2.79-.57,1.03-1.13,2.06-1.69,3.09-.53,.95-1.05,1.9-1.46,2.91-.52,1.24-.86,2.54-1.2,3.84-.05,.21-.11,.41-.16,.62l-1.73-.1c.1-.59,.13-1.2,.16-1.8,.04-1.07,.1-2.15,.15-3.22,.01-.37,.03-.73,.05-1.1,.04-.71,.07-1.42,.31-2.09,.26-.75,.76-1.41,.92-2.19,.17-.76,0-1.58,.28-2.3,.27-.67,.88-1.12,1.43-1.59,1.23-1.05,2.23-2.38,2.97-3.83,.55-1.09,1.34-2.07,2.3-2.84,.75-.61,1.61-1.1,2.25-1.82,.47-.53,.81-1.16,1.25-1.7,.71-.84,1.66-1.44,2.59-2.02,.99-.62,2.01-1.25,3.14-1.51,.98-.23,2.03-.18,2.95-.57,.95-.4,1.69-1.25,2.69-1.52,.55-.15,1.13-.11,1.7-.09,.82,.04,1.65,.03,2.48,0,.46-.02,.94-.06,1.32-.31,.48-.33,.69-.93,.83-1.5,.22-.88,.33-1.79,.34-2.7,.31,.77,.88,1.44,1.6,1.85,.4-.41,.47-1.03,.53-1.6,.11-1.19,.22-2.37,.33-3.56,.07,1.05,.18,2.09,.33,3.13,.04,.33,.1,.67,.3,.92,.2,.26,.6,.39,.86,.19,.18-.13,.24-.38,.29-.61,.16-.8,.32-1.6,.49-2.4h.11c.13,1.09,.29,2.17,.69,3.37,.4,1.22,.89,2.43,1.06,3.7Z"/>
        <path d="M41.1,88.5c-.09,0-.17-.02-.26-.03-1.36-.17-2.67-.62-3.98-1.03-3.05-.94-6.17-1.6-9.29-2.27,1.63-1.08,3.71-1.21,5.66-1.01,1.94,.19,3.86,.67,5.81,.66,1.95,0,4.04-.59,5.26-2.11,1.01-1.27,1.32-3.04,2.51-4.14,.45-.4,.99-.69,1.52-.98,1.34-.71,2.68-1.43,4.03-2.14,.76,.05,1.51,.17,2.25,.39,.8-.6,1.69-1.21,2.5-1.81,.46-.34,.91-.68,1.41-.97,.94-.56,2.02-.91,3.12-.94,1.1-.04,2.22,.27,3.11,.92,.27-.18,.54-.36,.8-.55l.08,.12c-.7,1.33-2.47,1.54-3.86,2.12-2.05,.87-3.44,2.77-5.18,4.16-2.71,2.17-6.32,3.12-8.7,5.65-1.03,1.08-1.81,2.44-3.08,3.23-.56,.35-1.18,.56-1.83,.67-.62,.11-1.26,.12-1.88,.06Z"/>
        <path d="M46.76,157.62c-.18,.1-.37,.19-.58,.25-.3,.08-.61,.09-.93,.09l-4.23,.09c-.56,.01-1.14,.02-1.68-.13-.12-.03-.24-.07-.35-.13l.07-.18c3.18,.12,6.34-.9,9.04-2.57,.48-.29,.97-.65,1.15-1.18,.07-.23,.08-.48,.08-.73,.01-3.15-.68-6.35-2.36-9.01-.48-.78-1.05-1.51-1.47-2.32-.71-1.36-.83-2.82-1.06-4.33,1.43,.83,2.5,2.27,2.89,3.88,.1,.37,.16,.76,.36,1.09,.21,.33,.61,.57,.98,.44,.03-.92-.29-1.81-.62-2.67l-1.26-3.39c.46,.13,.87,.42,1.15,.8,.2-.81,.11-1.67,.11-2.51,.02-1.98,.61-3.91,1.09-5.83,1.23-4.89,1.9-10.07,1.67-15.1,1.43-.78,2.55-2.12,3.06-3.67,.17-.54,.28-1.11,.49-1.64,.45-1.17,1.35-2.11,1.8-3.28,.13-.34,.21-.69,.28-1.04l1.73,.1c-.37,1.45-.7,2.91-.7,4.4,.01,1.46-1,2.81-1.6,4.14-.36,.81-.77,1.6-.98,2.45-.34,1.42-.09,2.9-.07,4.36,.02,2.11-.44,4.19-.89,6.24-.62,2.81-1.25,5.61-1.87,8.41-.62,2.83-1.25,5.73-.87,8.59,.41,3.09,1.97,5.93,2.49,9,.11,.65,.31,1.32-.08,1.86-.26,.35-.69,.52-1.1,.69-1.88,.75-3.7,1.64-5.44,2.66-.1,.06-.2,.11-.3,.17Z"/>
        <path d="M53.94,92.75c.06,2.16-.17,2.57-.28,4.73-.02,.39,.14,1.27,.14,1.91,0,.26-.02,.48-.1,.62-.29,.53-.88,.22-1.32,.63-.32,.31-.52,1.3-.8,1.65-.42,.52-.76,1.12-.6,1.77,.19,.79-.01,1.64-.37,2.37-.37,.73-.9,1.36-1.43,1.98-.55,.66-1.1,1.31-1.76,1.86-1.11,.93-2.56,1.61-3.09,2.95-.35,.9-.2,1.9-.22,2.86-.04,2.16-.94,4.24-2.22,5.98-1.23,1.66-2.78,3.03-4.41,4.28,.51-2.27,.66-4.63,.45-6.95h-.08c-.03-.5,.18-.94,.49-1.33,.29-.38,.67-.71,1.02-1.02,.83-.74,1.6-1.54,2.26-2.43,.72-.97,1.3-2.02,1.86-3.09,.13-.26,.27-.51,.4-.77,1.77-3.35,3.7-6.62,5.8-9.78,1.51-2.27,3.32-1.93,3.97-11.88,.15,1.68,.27,2.7,.29,3.66Z"/>
        <path d="M38.37,160.4c-.17-.06-.31-.15-.4-.3-.1-.16-.11-.35-.12-.53-.05-.8-.09-1.65,.29-2.36l.05-.04c.2,.28,.49,.48,.8,.62,.11,.06,.23,.1,.35,.13,.54,.15,1.12,.14,1.68,.13l4.23-.09c.32,0,.63-.01,.93-.09,.21-.06,.4-.15,.58-.25-.34,.76-.25,2.37-.79,2.99-.13,.15-.42,.2-.75,.21-.6,.01-1.38-.13-1.74-.11-1.58,.09-3.17,.11-4.72-.2-.13-.02-.27-.05-.39-.11Z"/>
        <path d="M37.85,119.39h.08c.21,2.32,.06,4.68-.45,6.95-.08,.07-.17,.14-.25,.2l-.35-.04c-.1-1.22-.2-2.44-.29-3.66-.03-.28-.06-.59-.26-.8-.33-.35-.93-.21-1.31,.08s-.67,.71-1.1,.93c-.59,.31-1.34,.17-1.89-.21-.55-.37-.92-.96-1.21-1.56-.65-1.34-.95-2.85-.85-4.33-1.73,2.15-4.03,3.74-6.3,5.31-1.01,.7-2.02,1.39-3.03,2.09-.44,.31-.92,.63-1.46,.64-.49,.01-.95-.24-1.36-.52-.91-.65-1.67-1.5-2.21-2.48-.18-.32-.34-.73-.15-1.05,.09-.15,.25-.25,.4-.35,.94-.57,1.97-.97,3.02-1.32,2.31-.79,4.73-1.35,6.55-2.94,.9-.78,1.6-1.79,2.53-2.54,.52-.42,1.12-.77,1.55-1.3,.42-.52,.62-1.32,.23-1.87-.24-.35-.66-.53-1.06-.67-2.2-.77-4.68-.98-6.51-2.42-.65,2.28,.36,4.89-.68,7.02-.66,1.35-2.17,2.2-3.66,2.2-.43,0-.85-.07-1.26-.22-.8-.3-1.48-.83-2.11-1.4-1-.88-1.93-1.84-2.85-2.81-.71-.73-1.44-1.51-1.74-2.48-.2-.65-.23-1.41-.73-1.87-1.8-1.66-1.95-4.39-2.58-6.76-.2-.76-.39-1.52-.38-2.3,.04-1.44,.79-2.76,1.52-4l1.74-2.94c-.32-.63-.49-1.41-.82-2.04-.23-.45-.46-.91-.61-1.4-.21-.72-.22-1.49-.02-2.21,.28,.2,.57,.38,.88,.54,.48,.24,1,.41,1.53,.49l-.06,.31c-.07,1,1,1.67,1.94,2.03,.91,.35,1.84,.66,2.77,.95,4.15,1.32,8.36,2.44,12.61,3.36h0c.42,.1,.85,.19,1.27,.28-3.04,.26-6.1,.39-9.16,.39-.26,.67-.04,1.42,.18,2.1,.25,.77,.5,1.53,.8,2.27,.67,1.65,1.58,3.19,2.69,4.57,.64,.78,1.46,1.56,2.47,1.56,.59-.68,.31-1.75-.14-2.53-.46-.78-1.08-1.53-1.1-2.44,1.14,1.34,2.15,2.8,3,4.34,.32,.58,.62,1.18,1.08,1.67s1.1,.85,1.76,.79c.1-1.02,.13-2.04,.12-3.07,.6,1.11,1.2,2.21,1.8,3.31,.25,.45,.56,.94,1.05,1.02,.74,.12,1.24-.69,1.62-1.33,1.65-2.79,5.01-4.52,5.89-7.64,.21-.73,.26-1.48,.3-2.24,.15-2.84,.08-5.71-.19-8.55,.62,.06,1.26,.05,1.88-.06,.14,2.65,.25,5.3,.31,7.96,.01,.63,.03,1.27-.04,1.9-.12,1.05-.46,2.06-.66,3.1-.27,1.42-.26,2.89-.1,4.33,.11,.98,.29,1.97,.25,2.96-.03,.74-.21,1.5-.59,2.13-.12,.21-.28,.4-.45,.58-.85,.83-2.1,1.05-3.27,1.23-.09,.02-.19,.03-.28,.01-.25-.07-.35-.39-.28-.63,.07-.25,.26-.44,.43-.63,1.2-1.35,1.66-3.18,2.08-4.93,.25-1.02,.43-2.26-.35-2.97-.84,1.56-1.83,3.03-2.94,4.4-.54,.66-1.12,1.33-1.39,2.14-.08,.27-.13,.58,.02,.82,.08,.15,.24,.26,.34,.4,.27,.35,.22,.84,.05,1.25-.16,.4-.42,.77-.55,1.18-.24,.75-.02,1.61,.55,2.15,.36,.35,.84,.55,1.26,.85,.41,.3,.77,.75,.72,1.26l.25,.13c-.31,.39-.52,.83-.49,1.33Zm-17.24-8.74c.19-1.61-.73-3.15-.85-4.76-.04-.62,.03-1.24,.01-1.85-.02-.84-.22-1.67-.32-2.51-.1-.93-.05-1.86,.08-2.79,.07-.5,.25-1.15-.24-1.48-.59-.41-1.89-.29-2.58-.32-.92-.04-1.84-.02-2.75,.06-.18,.02-.37,.04-.52,.14-.19,.13-.27,.35-.34,.56-.88,2.72-.44,5.83,1.16,8.2,.36,.53,.78,1.17,.5,1.74-.78-.49-1.31-1.29-1.81-2.06-.38-.58-.76-1.16-1.03-1.8-.88-2.06-.52-4.43,.1-6.58,.2-.72,.44-1.47,.34-2.22-.1-.74-.67-1.49-1.43-1.51-.37-.01-.73,.16-1.03,.38-1.34,.96-1.71,2.77-1.91,4.41-.16,1.26-.27,2.58,.19,3.77,.16,.41,.39,.8,.58,1.21,.12,.27,.22,.55,.32,.83,.1,.29,.19,.57,.29,.85,.81,2.13,2.29,3.96,4.04,5.43,.39,.33,.82,.65,1.33,.71,.23,.02,.46-.01,.69,.03,.96,.16,1.42,1.39,2.37,1.65,.07,.02,.15,.03,.23,.02,.27-.06,.34-.4,.49-.63,.43-.63,1.59-.37,1.97-1.03,.07-.14,.1-.3,.12-.45Zm-2.24-15.95c.35-.27,.41-.78,.28-1.2-.13-.4-.4-.75-.75-.96-.51-.32-1.14-.35-1.74-.36-.7-.01-1.72-.19-2.34,.23-.64,.42-1.04,1.35-.73,2.07,.23,.53,.75,.85,1.26,1.11,.72,.37,1.61,.66,2.3,.25,.35-.22,.59-.58,.94-.77,.26-.14,.56-.19,.78-.37Z"/>
        <path d="M39.88,76.24c-3.02,.05-6.04,.09-9.06,.14-1.08,.01-2.16,.03-3.22,.21-2.69,.46-5.08,1.95-7.39,3.41-.35,.23-.72,.47-.88,.86-.24,.56,.05,1.19,.36,1.72,1.36,2.28,3.19,4.23,5.02,6.16,.48,.51,.96,1.02,1.51,1.45,.83,.65,1.79,1.11,2.74,1.56-.25-.07-.51-.14-.76-.21-1.76-.54-3.44-1.36-5.09-2.17s-3.34-1.65-4.56-3.02c-.43-.48-.98-1.07-1.58-.86-.23,.08-.4,.26-.57,.43-.59,.62-1.26,1.2-2.04,1.56-.78,.37-1.69,.51-2.51,.25l-.04-.37c.26-.05,.52-.12,.77-.22,.54-.22,1.02-.55,1.49-.88,1.01-.7,2.04-1.42,2.74-2.43,.32-.46,.56-.97,.68-1.52,.13-.59-.07-1.09-.04-1.65,0-.06,.02-.12,.04-.18,.14-.39,.66-.62,.97-.86,.56-.42,1.12-.83,1.68-1.25,.85-.63,1.71-1.27,2.68-1.72,1.36-.63,2.87-.85,4.35-1.07,1.21-.17,2.42-.35,3.65-.38,3.04-.09,6.04,.72,9.06,1.04Z"/>
        <path d="M7.99,86.32c-.3-.22-.6-.46-.9-.69-.69-.54-1.37-1.08-2.06-1.62-.61-.48-1.24-.98-1.71-1.6-.66-.89-.98-1.98-1.49-2.96-.32-.61-.72-1.18-.98-1.81-.49-1.17-.45-2.53,.01-3.69,.24-.6,.59-1.14,1.03-1.6,.46-.47,.68-.96,1.32-1.24,1.74-.77,3.66-1.27,5.56-1.04s3.76,1.27,4.63,2.97c.28,.53,.45,1.11,.65,1.68,.58,1.63,1.43,3.17,2.5,4.53,.27,.35,.56,.7,.76,1.1,0,.02,.02,.04,.02,.06l.16,.07c-.02,.06-.04,.12-.04,.18-.03,.56,.17,1.06,.04,1.65-.12,.55-.36,1.06-.68,1.52-.7,1.01-1.73,1.73-2.74,2.43-.47,.33-.95,.66-1.49,.88-.25,.1-.51,.17-.77,.22-.47,.07-.94,.07-1.41,0-.53-.08-1.05-.25-1.53-.49-.31-.16-.6-.34-.88-.54Zm8.04-2.29c.14-.3,.14-.63,.13-.95,0-.5-.02-1-.1-1.49-.3-1.91-1.54-3.55-1.93-5.44-.07-.32-.11-.64-.26-.93-.11-.23-.29-.41-.47-.6-.55-.59-1.45-1.92-2.12-2.37-1.71-1.16-2.51-.98-4.58-.9-.44,.02-1.94,.52-2.34,.7-.28,.13-.53,.33-.74,.55-.75,.8-1.08,1.98-.78,3.03,.07,.22,.16,.43,.32,.59,.28,.29,.73,.33,1.14,.31,.57-.04,1.22-.25,1.57,.31,.31,.51,.19,1.23,.14,1.79-.06,.75,.02,1.55,.49,2.15,.29,.37,.71,.62,1.03,.95,.43,.44,.69,1.01,1.05,1.51,.72,.97,1.81,1.6,2.86,2.19,.34,.2,.69,.4,1.08,.47,1.04,.21,2.03-.49,2.86-1.16,.26-.2,.52-.42,.65-.71Z"/>
      </g>
      <g>
        <path class="cls-3" d="M17.33,80.41s-.01-.04-.02-.06c-.2-.4-.49-.75-.76-1.1-1.07-1.36-1.92-2.9-2.5-4.53-.2-.57-.37-1.15-.65-1.68-.87-1.7-2.73-2.74-4.63-2.97s-3.82,.27-5.56,1.04c-.64,.28-.86,.77-1.32,1.24-.44,.46-.79,1-1.03,1.6-.46,1.16-.5,2.52-.01,3.69,.26,.63,.66,1.2,.98,1.81,.51,.98,.83,2.07,1.49,2.96,.47,.62,1.1,1.12,1.71,1.6,.69,.54,1.37,1.08,2.06,1.62,.3,.23,.6,.47,.9,.69,.28,.2,.57,.38,.88,.54,.48,.24,1,.41,1.53,.49,.47,.08,.94,.08,1.41,0,.26-.05,.52-.12,.77-.22,.54-.22,1.02-.55,1.49-.88,1.01-.7,2.04-1.42,2.74-2.43,.32-.46,.56-.97,.68-1.52,.13-.59-.07-1.09-.04-1.65,0-.06,.02-.12,.04-.18,.14-.39,.66-.62,.97-.86,.56-.42,1.12-.83,1.68-1.25,.85-.63,1.71-1.27,2.68-1.72,1.36-.63,2.87-.85,4.35-1.07,1.21-.17,2.42-.35,3.65-.38,3.04-.09,6.04,.72,9.06,1.04,.84,.09,1.68,.15,2.52,.13,3.33-.06,6.71-1.14,9.96-.92,.76,.05,1.51,.17,2.25,.39,.8-.6,1.69-1.21,2.5-1.81,.46-.34,.91-.68,1.41-.97,.94-.56,2.02-.91,3.12-.94,1.1-.04,2.22,.27,3.11,.92,.27-.18,.54-.36,.8-.55,1.8-1.22,3.64-2.48,5.56-3.47,.8-.41,1.62-.79,2.34-1.33,.87-.66,1.61-1.56,2.65-1.89,.81-.25,1.68-.11,2.52-.18,2.15-.19,3.92-1.71,5.45-3.23,.7-.69,1.43-1.42,2.36-1.75,1.22-.43,2.57-.1,3.87-.2"/>
        <path class="cls-4" d="M96.54,60.03c-.23-.37-.47-.72-.73-1.07-.69-.97-1.44-.78-2.43-.31l-1.86,.9c-.3,.14-.6,.29-.84,.52-.13,.12-.23,.26-.31,.41-.24,.43-.3,.96-.23,1.46,.08,.57,.31,1.11,.56,1.62,.04,.09,.09,.18,.13,.27l.15,.3c.23,.47,.46,.93,.69,1.39,.13,.27,.26,.54,.47,.74,.25,.23,.57,.36,.89,.46,.97,.31,2.08,.45,2.95-.06,.55-.31,.95-.85,1.19-1.43s.34-1.21,.4-1.84c.04-.39,.07-.79,.01-1.18-.06-.38-.2-.75-.38-1.1-.15-.3-.33-.59-.51-.86-.05-.07-.1-.15-.15-.22Z"/>
        <path class="cls-3" d="M90.98,64.13c.22,1.31,.29,2.47,.41,3.62,.13,1.1,.29,2.18,.69,3.38,.4,1.22,.89,2.43,1.06,3.7,.05,.41,.07,.85-.08,1.23-.14,.36-.4,.65-.7,.88-1.41,1.14-3.39,1.12-5.2,1.19-2.89,.12-5.77,.62-8.53,1.5-2.4,.77-4.81,1.89-6.39,3.86-.85,1.07-1.86,2.13-2.9,3.01-1.05,.88-2.02,1.84-2.99,2.8-.68,.67-1.36,1.34-1.95,2.1-.67,.86-1.19,1.83-1.72,2.79-.57,1.03-1.13,2.06-1.69,3.09-.53,.95-1.05,1.9-1.46,2.91-.52,1.24-.86,2.54-1.2,3.84-.05,.21-.11,.41-.16,.62-.37,1.45-.7,2.91-.7,4.4,.01,1.46-1,2.81-1.6,4.14-.36,.81-.77,1.6-.98,2.45-.34,1.42-.09,2.9-.07,4.36,.02,2.11-.44,4.19-.89,6.24-.62,2.81-1.25,5.61-1.87,8.41-.62,2.83-1.25,5.73-.87,8.59,.41,3.09,1.97,5.93,2.49,9,.11,.65,.31,1.32-.08,1.86-.26,.35-.69,.52-1.1,.69-1.88,.75-3.7,1.64-5.44,2.66-.1,.06-.2,.11-.3,.17-.18,.1-.37,.19-.58,.25-.3,.08-.61,.09-.93,.09l-4.23,.09c-.56,.01-1.14,.02-1.68-.13-.12-.03-.24-.07-.35-.13-.31-.14-.6-.34-.8-.62-.06-.08-.11-.16-.15-.25-.21-.46-.17-.98-.13-1.48,.14-1.72,.28-3.44,.42-5.15,.06-.75,.12-1.5,.12-2.24,0-.82-.09-1.64-.18-2.45l-.36-3.45c-.11-1.03-.08-2.05-.37-3.05-.43-1.48-.57-3.03-.71-4.57-.15-1.74-.31-3.5-.03-5.23,.15-.93,.42-1.83,.64-2.75,.02-.07,.03-.14,.04-.21,.51-2.27,.66-4.63,.45-6.95"/>
        <path class="cls-2" d="M38.34,160.19l.03,.21c.16,1.3-.38,2.62-1.2,3.63-.86,1.08-2.01,1.89-3.15,2.68-.37,.26-.74,.52-1.12,.77-.68,.48-1.39,.97-2.2,1.15-.95,.22-1.95,0-2.91,.13-.53,.07-1.07,.27-1.41,.68-.55,.66-.32,1.82,.44,2.23,.56,.29,1.22,.2,1.84,.27,.94,.1,1.81,.57,2.75,.62,1.25,.06,2.41-.64,3.63-.93,1.62-.37,3.29-.01,4.93,.21,1.64,.23,3.42,.29,4.83-.58,.35-.21,.67-.49,.87-.85,.16-.29,.23-.63,.27-.97,.09-.86-.05-1.74-.4-2.54-.18-.41-.42-.81-.56-1.24-.51-1.55,.32-3.23,.24-4.84,0-.16-.02-.33-.05-.49"/>
        <path class="cls-6" d="M46.76,157.61h0c-.34,.77-.25,2.38-.79,3-.13,.15-.42,.2-.75,.21-.6,.01-1.38-.13-1.74-.11-1.58,.09-3.17,.11-4.72-.2-.13-.02-.27-.05-.39-.11-.17-.06-.31-.15-.4-.3-.1-.16-.11-.35-.12-.53-.05-.8-.09-1.65,.29-2.36"/>
        <path class="cls-6" d="M37.85,119.4h0c-.03-.51,.18-.95,.49-1.34,.29-.38,.67-.71,1.02-1.02,.83-.74,1.6-1.54,2.26-2.43,.72-.97,1.3-2.02,1.86-3.09,.13-.26,.27-.51,.4-.77,1.77-3.35,3.7-6.62,5.8-9.78,1.51-2.27,3.32-1.93,3.97-11.88,.15,1.68,.27,2.7,.29,3.66,.06,2.16-.17,2.57-.28,4.73-.02,.39,.14,1.27,.14,1.91,0,.26-.02,.48-.1,.62-.29,.53-.88,.22-1.32,.63-.32,.31-.52,1.3-.8,1.65-.42,.52-.76,1.12-.6,1.77,.19,.79-.01,1.64-.37,2.37-.37,.73-.9,1.36-1.43,1.98-.55,.66-1.1,1.31-1.76,1.86-1.11,.93-2.56,1.61-3.09,2.95-.35,.9-.2,1.9-.22,2.86-.04,2.16-.94,4.24-2.22,5.98-1.23,1.66-2.78,3.03-4.41,4.28-.08,.07-.17,.14-.25,.2"/>
        <path class="cls-6" d="M52.39,75.43s-.02,.01-.03,.02c-1.35,.71-2.69,1.43-4.03,2.14-.53,.29-1.07,.58-1.52,.98-1.19,1.1-1.5,2.87-2.51,4.14-1.22,1.52-3.31,2.11-5.26,2.11-1.95,.01-3.87-.47-5.81-.66-1.95-.2-4.03-.07-5.66,1.01,3.12,.67,6.24,1.33,9.29,2.27,1.31,.41,2.62,.86,3.98,1.03,.09,.01,.17,.02,.26,.03,.62,.06,1.26,.05,1.88-.06,.65-.11,1.27-.32,1.83-.67,1.27-.79,2.05-2.15,3.08-3.23,2.38-2.53,5.99-3.48,8.7-5.65,1.74-1.39,3.13-3.29,5.18-4.16,1.39-.58,3.16-.79,3.86-2.12"/>
        <path class="cls-6" d="M90.72,63.55c.43,.36,.76,.84,1.25,1.11,.42,.22,.91,.26,1.39,.26,.71,0,1.43-.07,2.09-.34,.65-.27,1.24-.76,1.52-1.41,.16-.36,.22-.75,.25-1.13,.02-.31,.03-.62-.02-.93-.03-.14-.06-.27-.11-.4-.11-.28-.3-.53-.55-.68-.12-.09-.26-.15-.41-.17"/>
        <path class="cls-6" d="M91.28,67.76c-.17,.8-.33,1.6-.49,2.4-.05,.23-.11,.48-.29,.61-.26,.2-.66,.07-.86-.19-.2-.25-.26-.59-.3-.92-.15-1.04-.26-2.08-.33-3.13-.11,1.19-.22,2.37-.33,3.56-.06,.57-.13,1.19-.53,1.6-.72-.41-1.29-1.08-1.6-1.85-.01,.91-.12,1.82-.34,2.7-.14,.57-.35,1.17-.83,1.5-.38,.25-.86,.29-1.32,.31-.83,.04-1.66,.05-2.48,0-.57-.02-1.15-.06-1.7,.09-1,.27-1.74,1.12-2.69,1.52-.92,.39-1.97,.34-2.95,.57-1.13,.26-2.15,.89-3.14,1.51-.93,.58-1.88,1.18-2.59,2.02-.44,.54-.78,1.17-1.25,1.7-.64,.72-1.5,1.21-2.25,1.82-.96,.77-1.75,1.75-2.3,2.84-.74,1.45-1.74,2.78-2.97,3.83-.55,.47-1.16,.92-1.43,1.59-.29,.72-.11,1.54-.28,2.3-.16,.78-.66,1.44-.92,2.19-.24,.67-.27,1.38-.31,2.09-.02,.37-.04,.73-.05,1.1-.05,1.07-.11,2.15-.15,3.22-.03,.6-.06,1.21-.16,1.8-.07,.35-.15,.7-.28,1.04-.45,1.17-1.35,2.11-1.8,3.28-.21,.53-.32,1.1-.49,1.64-.51,1.55-1.63,2.89-3.06,3.67,.23,5.03-.44,10.21-1.67,15.1-.48,1.92-1.07,3.85-1.09,5.83,0,.84,.09,1.7-.11,2.51-.28-.38-.69-.67-1.15-.8l1.26,3.39c.33,.86,.65,1.75,.62,2.67-.37,.13-.77-.11-.98-.44-.2-.33-.26-.72-.36-1.09-.39-1.61-1.46-3.05-2.89-3.88,.23,1.51,.35,2.97,1.06,4.33,.42,.81,.99,1.54,1.47,2.32,1.68,2.66,2.37,5.86,2.36,9.01,0,.25-.01,.5-.08,.73-.18,.53-.67,.89-1.15,1.18-2.7,1.67-5.86,2.69-9.04,2.57"/>
        <path class="cls-6" d="M36.88,126.5c-.1-1.22-.2-2.44-.29-3.66-.03-.28-.06-.59-.26-.8-.33-.35-.93-.21-1.31,.08s-.67,.71-1.1,.93c-.59,.31-1.34,.17-1.89-.21-.55-.37-.92-.96-1.21-1.56-.65-1.34-.95-2.85-.85-4.33-1.73,2.15-4.03,3.74-6.3,5.31-1.01,.7-2.02,1.39-3.03,2.09-.44,.31-.92,.63-1.46,.64-.49,.01-.95-.24-1.36-.52-.91-.65-1.67-1.5-2.21-2.48-.18-.32-.34-.73-.15-1.05,.09-.15,.25-.25,.4-.35,.94-.57,1.97-.97,3.02-1.32,2.31-.79,4.73-1.35,6.55-2.94,.9-.78,1.6-1.79,2.53-2.54,.52-.42,1.12-.77,1.55-1.3,.42-.52,.62-1.32,.23-1.87-.24-.35-.66-.53-1.06-.67-2.2-.77-4.68-.98-6.51-2.42-.65,2.28,.36,4.89-.68,7.02-.66,1.35-2.17,2.2-3.66,2.2-.43,0-.85-.07-1.26-.22-.8-.3-1.48-.83-2.11-1.4-1-.88-1.93-1.84-2.85-2.81-.71-.73-1.44-1.51-1.74-2.48-.2-.65-.23-1.41-.73-1.87-1.8-1.66-1.95-4.39-2.58-6.76-.2-.76-.39-1.52-.38-2.3,.04-1.44,.79-2.76,1.52-4l1.74-2.94c-.32-.63-.49-1.41-.82-2.04-.23-.45-.46-.91-.61-1.4-.21-.72-.22-1.49-.02-2.21,.01-.06,.03-.12,.05-.18"/>
        <path class="cls-6" d="M10.34,87.66c-.07,1,1,1.67,1.94,2.03,.91,.35,1.84,.66,2.77,.95,4.15,1.32,8.36,2.44,12.61,3.36h0c.42,.1,.85,.19,1.27,.28-3.04,.26-6.1,.39-9.16,.39-.26,.67-.04,1.42,.18,2.1,.25,.77,.5,1.53,.8,2.27,.67,1.65,1.58,3.19,2.69,4.57,.64,.78,1.46,1.56,2.47,1.56,.59-.68,.31-1.75-.14-2.53-.46-.78-1.08-1.53-1.1-2.44,1.14,1.34,2.15,2.8,3,4.34,.32,.58,.62,1.18,1.08,1.67s1.1,.85,1.76,.79c.1-1.02,.13-2.04,.12-3.07,.6,1.11,1.2,2.21,1.8,3.31,.25,.45,.56,.94,1.05,1.02,.74,.12,1.24-.69,1.62-1.33,1.65-2.79,5.01-4.52,5.89-7.64,.21-.73,.26-1.48,.3-2.24,.15-2.84,.08-5.71-.19-8.55-.01-.07-.01-.13-.02-.2"/>
        <path class="cls-5" d="M42.98,88.44c.14,2.65,.25,5.3,.31,7.96,.01,.63,.03,1.27-.04,1.9-.12,1.05-.46,2.06-.66,3.1-.27,1.42-.26,2.89-.1,4.33,.11,.98,.29,1.97,.25,2.96-.03,.74-.21,1.5-.59,2.13-.12,.21-.28,.4-.45,.58-.85,.83-2.1,1.05-3.27,1.23-.09,.02-.19,.03-.28,.01-.25-.07-.35-.39-.28-.63,.07-.25,.26-.44,.43-.63,1.2-1.35,1.66-3.18,2.08-4.93,.25-1.02,.43-2.26-.35-2.97-.84,1.56-1.83,3.03-2.94,4.4-.54,.66-1.12,1.33-1.39,2.14-.08,.27-.13,.58,.02,.82,.08,.15,.24,.26,.34,.4,.27,.35,.22,.84,.05,1.25-.16,.4-.42,.77-.55,1.18-.24,.75-.02,1.61,.55,2.15,.36,.35,.84,.55,1.26,.85,.41,.3,.77,.75,.72,1.26"/>
        <path class="cls-6" d="M11.92,103.78c.27,.64,.65,1.22,1.03,1.8,.5,.77,1.03,1.57,1.81,2.06,.28-.57-.14-1.21-.5-1.74-1.6-2.37-2.04-5.48-1.16-8.2,.07-.21,.15-.43,.34-.56,.15-.1,.34-.12,.52-.14,.91-.08,1.83-.1,2.75-.06,.69,.03,1.99-.09,2.58,.32,.49,.33,.31,.98,.24,1.48-.13,.93-.18,1.86-.08,2.79,.1,.84,.3,1.67,.32,2.51,.02,.61-.05,1.23-.01,1.85,.12,1.61,1.04,3.15,.85,4.76-.02,.15-.05,.31-.12,.45-.38,.66-1.54,.4-1.97,1.03-.15,.23-.22,.57-.49,.63-.08,0-.16,0-.23-.02-.95-.26-1.41-1.49-2.37-1.65-.23-.04-.46-.01-.69-.03-.51-.06-.94-.38-1.33-.71-1.75-1.47-3.23-3.3-4.04-5.43-.1-.28-.19-.56-.29-.85-.1-.28-.2-.56-.32-.83-.19-.41-.42-.8-.58-1.21-.46-1.19-.35-2.51-.19-3.77,.2-1.64,.57-3.45,1.91-4.41,.3-.22,.66-.39,1.03-.38,.76,.02,1.33,.77,1.43,1.51,.1,.75-.14,1.5-.34,2.22-.62,2.15-.98,4.52-.1,6.58Z"/>
        <path class="cls-6" d="M13.09,94.48c.23,.53,.75,.85,1.26,1.11,.72,.37,1.61,.66,2.3,.25,.35-.22,.59-.58,.94-.77,.26-.14,.56-.19,.78-.37,.35-.27,.41-.78,.28-1.2-.13-.4-.4-.75-.75-.96-.51-.32-1.14-.35-1.74-.36-.7-.01-1.72-.19-2.34,.23-.64,.42-1.04,1.35-.73,2.07Z"/>
        <path class="cls-6" d="M11.85,87.73c.82,.26,1.73,.12,2.51-.25,.78-.36,1.45-.94,2.04-1.56,.17-.17,.34-.35,.57-.43,.6-.21,1.15,.38,1.58,.86,1.22,1.37,2.91,2.21,4.56,3.02s3.33,1.63,5.09,2.17c.25,.07,.51,.14,.76,.21-.95-.45-1.91-.91-2.74-1.56-.55-.43-1.03-.94-1.51-1.45-1.83-1.93-3.66-3.88-5.02-6.16-.31-.53-.6-1.16-.36-1.72,.16-.39,.53-.63,.88-.86,2.31-1.46,4.7-2.95,7.39-3.41,1.06-.18,2.14-.2,3.22-.21,3.02-.05,6.04-.09,9.06-.14,.25,0,.49-.01,.74-.01"/>
      </g>
    </g>
  </g>
</svg>