<?xml version="1.0" encoding="UTF-8"?>
<svg id="Layer_2" data-name="Layer 2" xmlns="http://www.w3.org/2000/svg" viewBox="0 0 219.12 173.21">
  <defs>
    <style>
      .cls-1 {
        fill: #fff;
      }

      .cls-2 {
        fill: #4bcedb;
      }
    </style>
  </defs>
  <g id="Layer_1-2" data-name="Layer 1">
    <g>
      <path d="M47.23,59.57l28.13-29.82,6.19,29.82H47.23Zm30.87-2.62l-4.35-21.13-19.97,21.18,24.32-.05Z"/>
      <path d="M130.49,59.57l6.19-29.82,28.13,29.82h-34.32Zm27.78-2.57l-19.98-21.18-4.35,21.13,24.33,.05Z"/>
      <path d="M163.55,61.07l-56.73,72.01-.24,.3,.17-.53,23.22-71.78h33.58Zm-49.56,58.05l43.65-55.39h-25.73s-17.92,55.39-17.92,55.39Z"/>
      <polygon class="cls-2" points="158.27 57 133.94 56.95 138.29 35.82 158.27 57"/>
      <polygon class="cls-2" points="157.64 63.73 113.99 119.12 131.91 63.74 157.64 63.73"/>
      <path d="M135.16,29.63l-6.03,28.99-22.17-27.32h0s-.96-1.18-.96-1.18v-.49h29.16Zm-7.78,22.1l4.05-19.1h-19.42l15.37,19.1Z"/>
      <polygon class="cls-2" points="131.43 32.63 127.38 51.73 112.01 32.63 131.43 32.63"/>
      <path d="M128.53,61.07l-22.6,69.34-22.44-69.34h45.04Zm-22.59,59.63l18.46-56.63h-36.78l18.32,56.63Z"/>
      <path d="M106.01,32.48l21.98,27.09h-43.95l21.97-27.09Zm15.69,24.09l-15.69-19.33-15.67,19.33h31.36Z"/>
      <polygon class="cls-2" points="124.4 64.07 105.94 120.7 87.62 64.07 124.4 64.07"/>
      <polygon class="cls-2" points="106.01 37.24 121.7 56.57 90.34 56.57 106.01 37.24"/>
      <path d="M106,29.63v.49l-.95,1.17h0s-22.17,27.33-22.17,27.33l-6.03-28.99h29.15Zm-21.37,22.1l15.37-19.1h-19.42l4.05,19.1Z"/>
      <path d="M105.14,132.85l.17,.53-.24-.3L48.34,61.07h33.58l23.22,71.78Zm-7.24-13.73l-17.92-55.38h-25.72s43.64,55.38,43.64,55.38Z"/>
      <polygon class="cls-2" points="100 32.63 84.63 51.73 80.58 32.63 100 32.63"/>
      <polygon class="cls-2" points="79.98 63.74 97.9 119.12 54.26 63.73 79.98 63.74"/>
      <polygon class="cls-2" points="73.75 35.82 78.1 56.95 53.78 57 73.75 35.82"/>
    </g>
    <g>
      <path d="M20.73,57.28l1.08-2.24,6.44,3.11-4.47-7.19,1.14-2.37,3.27,5.88,10.52,.06-1.17,2.42-8.16-.22,1.5,2.69,4.43,2.14-1.08,2.24-13.5-6.53Z"/>
      <path d="M28.18,43.41l1.52-2.33,14.75,4.84-1.38,2.1-3.66-1.27-2.41,3.68,2.63,2.84-1.3,1.98-10.17-11.84Zm9.34,2.69l-6.69-2.32,4.81,5.18,1.87-2.86Z"/>
      <path d="M32.09,37.53l5.77-7.12,1.64,1.33-2.11,2.6,10.01,8.12-1.56,1.93-10.01-8.12-2.1,2.58-1.64-1.33Z"/>
      <path d="M39.4,28.81l1.75-1.76,9.14,9.1,3.75-3.76,1.49,1.48-5.5,5.52-10.62-10.59Z"/>
      <path d="M47,21.49l6.75-5.31,1.23,1.56-4.8,3.78,2.65,3.37,3.76-2.96,1.24,1.57-3.76,2.96,2.9,3.69,4.88-3.84,1.26,1.6-6.83,5.37-9.27-11.78Z"/>
      <path d="M56.56,14.3l3.91-2.25c1.42-.82,2.64-1.1,3.69-.84,1.04,.25,1.91,.98,2.6,2.18,.92,1.6,.91,3.11-.03,4.54l5.85,4.45-2.33,1.34-5.15-4.26-2.02,1.17,3.13,5.43-2.15,1.24-7.49-12.99Zm3.11,.43l2.44,4.24,1.65-.95c.74-.42,1.16-.94,1.27-1.54s-.02-1.24-.4-1.89c-.78-1.36-1.88-1.63-3.3-.81l-1.67,.96Z"/>
      <path d="M68.17,8.1l2.28-.99,5.96,13.76-2.28,.99-5.96-13.76Z"/>
      <path d="M88.29,5.12l-1.88,1.23c-.43-.71-.89-1.2-1.38-1.47s-1.07-.32-1.75-.15c-.63,.16-1.07,.47-1.33,.93-.25,.46-.32,.93-.2,1.42,.13,.54,.43,.91,.9,1.13s1.33,.41,2.6,.56c1.08,.13,1.93,.3,2.55,.51,.62,.21,1.16,.56,1.64,1.05,.47,.49,.8,1.11,.99,1.87,.3,1.22,.13,2.37-.52,3.45-.65,1.08-1.75,1.81-3.31,2.19-2.69,.67-4.69-.28-6-2.83l2-1.14c.82,1.7,2.03,2.35,3.61,1.95,.77-.19,1.31-.54,1.61-1.04,.3-.5,.38-1.05,.23-1.64-.11-.43-.35-.8-.72-1.1s-1.16-.52-2.36-.67c-1.28-.15-2.21-.32-2.8-.49-.59-.18-1.14-.52-1.65-1.03-.51-.51-.86-1.14-1.05-1.9-.29-1.16-.13-2.23,.48-3.22,.61-.99,1.58-1.65,2.92-1.98,2.37-.59,4.17,.21,5.41,2.39Z"/>
      <path d="M91.63,1.16l2.47-.25,.62,6.19,4.39-.44-.62-6.19,2.47-.25,1.49,14.92-2.47,.25-.66-6.65-4.39,.44,.66,6.65-2.47,.25-1.49-14.92Z"/>
      <path d="M115.38,7.99c-.11,2.56-.64,4.48-1.61,5.75-.97,1.27-2.32,1.87-4.07,1.8-1.75-.07-3.06-.78-3.94-2.12s-1.26-3.3-1.15-5.87c.1-2.55,.65-4.46,1.62-5.73,.98-1.28,2.34-1.88,4.1-1.8,1.73,.07,3.04,.78,3.9,2.12,.87,1.34,1.25,3.3,1.14,5.86Zm-2.6-.1c.07-1.78-.08-3.19-.45-4.23-.37-1.04-1.07-1.58-2.1-1.62-1.03-.04-1.77,.44-2.23,1.45s-.71,2.4-.79,4.17c-.07,1.74,.07,3.14,.43,4.2,.36,1.06,1.07,1.61,2.14,1.65,1,.04,1.73-.43,2.19-1.42,.46-.99,.73-2.39,.8-4.2Z"/>
      <path d="M123.37,9.21l4.91,1-1.56,7.64-1.3-.26,.06-1.93c-1.02,1.2-2.34,1.63-3.95,1.3-1.64-.33-2.79-1.26-3.44-2.78-.65-1.52-.75-3.42-.28-5.7,.49-2.4,1.33-4.21,2.53-5.43,1.2-1.22,2.75-1.63,4.64-1.25,2.64,.54,3.91,2.35,3.82,5.44l-2.31,.1c0-1.32-.18-2.21-.54-2.67-.36-.46-.84-.75-1.43-.88-1.97-.4-3.33,1.26-4.09,4.99-.76,3.75-.14,5.83,1.88,6.24,1.67,.34,2.77-.77,3.29-3.33l-2.63-.54,.4-1.95Z"/>
      <path d="M133.87,4.34l8.05,3-.69,1.86-5.72-2.13-1.5,4.02,4.49,1.67-.7,1.87-4.49-1.67-1.64,4.4,5.82,2.17-.71,1.9-8.14-3.03,5.23-14.05Z"/>
      <path d="M145.02,8.78l2.55,1.43-1,11.84,5.3-9.42,1.81,1.02-7.35,13.07-2.02-1.14,1.06-13.18-5.89,10.47-1.81-1.02,7.35-13.07Z"/>
      <path d="M160.34,31.57l1.5,1.75c-2.55,2.19-4.88,2.36-6.99,.51-1.37-1.2-1.92-2.63-1.67-4.27,.25-1.64,1.16-3.34,2.71-5.1,1.67-1.9,3.3-3.04,4.9-3.43,1.6-.39,3.07,0,4.4,1.18,2.06,1.82,2.15,4.17,.25,7.04l-1.96-1.27c1.31-1.87,1.43-3.28,.36-4.22-1.44-1.27-3.46-.42-6.07,2.55-2.43,2.76-2.93,4.77-1.49,6.04,.58,.51,1.19,.67,1.84,.5,.65-.17,1.39-.6,2.21-1.29Z"/>
      <path d="M170.96,28.12l1.65,1.85-9.63,8.58,3.53,3.96-1.57,1.4-5.18-5.81,11.19-9.98Z"/>
      <path d="M177.73,35.93l1.4,1.98-7.59,5.38c-.85,.6-1.44,1.09-1.78,1.46-.34,.38-.51,.81-.52,1.29s.18,1,.56,1.55c.36,.51,.74,.85,1.14,1,.4,.15,.82,.16,1.26,.03,.44-.13,1.19-.57,2.24-1.32l7.56-5.35,1.29,1.82-7.46,5.28c-1.2,.85-2.18,1.41-2.94,1.7-.77,.29-1.58,.27-2.44-.05-.86-.32-1.66-1-2.4-2.04-.57-.81-.93-1.6-1.09-2.38-.16-.78-.04-1.54,.33-2.26,.38-.73,1.33-1.63,2.86-2.71l7.59-5.38Z"/>
      <path d="M185.45,47.28l2.15,3.99c.54,1.01,.88,1.81,1,2.42,.12,.61,0,1.24-.36,1.91-.36,.66-.94,1.21-1.74,1.64-1.46,.79-2.78,.66-3.95-.4,.36,1.85-.32,3.23-2.04,4.16-.97,.53-1.99,.67-3.05,.44s-2.07-1.23-3.02-2.99l-2.19-4.05,13.2-7.12Zm-10.29,8.31l.95,1.76c.87,1.61,2.02,2.03,3.44,1.26,.55-.3,.96-.74,1.21-1.32s.1-1.39-.47-2.44l-.85-1.58-4.28,2.31Zm5.97-3.22l.75,1.38c.53,.97,1.05,1.52,1.58,1.63s1.07,.02,1.64-.29c.66-.36,1.04-.79,1.14-1.3,.1-.51-.06-1.13-.46-1.88l-.86-1.59-3.78,2.04Z"/>
    </g>
    <path class="cls-1" d="M218.89,85.76c-.47,1.61-1.7,2.91-3.12,3.79-.99,.62-2.08,1.05-3.2,1.4-.01,.54-.02,1.07-.03,1.61-.01,.27-.02,.54-.12,.79-.07,.18-.19,.34-.29,.5-.08,.14-.15,.28-.21,.43-.44,1.06-.26,2.33,.11,3.45,.43,1.27,1.09,2.46,1.33,3.78,.38,2.06-.31,4.15-1.11,6.08-1.33,3.22-2.98,6.31-4.92,9.2-.77,1.16-1.62,2.31-2.79,3.09-1.16,.78-2.69,1.12-3.97,.55-.3-.13-.57-.31-.83-.51-.26-.2-.5-.43-.74-.66-.42-.41-.84-.86-1-1.42-.23-.81,.13-1.66,.29-2.48,.06-.31,.09-.62,.1-.93,.05-.96-.06-1.93-.04-2.89,0-.14,0-.28,.02-.42-2.39,.65-4.72,1.54-6.94,2.66-.19,.09-.38,.19-.5,.36-.34,.49,.09,1.13,.51,1.55,2,1.99,4.3,3.69,6.8,5.02,.29,.17,.59,.32,.89,.47,.3,.16,.6,.3,.91,.44h0c.99,.46,2.01,.86,3.05,1.2-.73,1.09-1.72,2.01-2.87,2.65-.72,.4-1.28,1.15-4.88-1.62-1.32-1.02-3.67-3.57-5.27-4.41-.47,1.26-.93,2.52-1.4,3.78-.21,.59-.46,1.21-1,1.53-1.12,.65-2.39-.47-3.55-1.03-.85-.4-1.83-.52-2.74-.31-.68,4.95-2.29,9.77-4.72,14.13-.47,.84-.99,1.69-1.77,2.26-1.75,1.26-4.22,.72-6.12-.29-.98-.53-1.92-1.18-2.7-1.98-1.03-1.07-1.77-2.4-2.47-3.71-2.15-4-4.16-8.08-6.02-12.22-1.14-2.55-2.25-5.3-1.79-8.05,.19-1.13,.64-2.21,.71-3.36,.03-.48,0-.96-.08-1.45-.41-2.59-2.21-5.13-4.53-6.22-1.89-.89-3.9-1.53-5.96-1.91-.18-.03-.37-.07-.49-.2-.25-.27-.06-.7,.14-1,.27-.42,.54-.83,.81-1.24,.14-.21,.29-.43,.51-.54,.2-.1,.43-.1,.66-.09,1.74,.03,3.83,.28,5.93,.41,2.94,.2,5.89,.17,7.95-1.01-.57-.57-1.04-1.25-1.55-1.88-.49-.6-1.01-1.15-1.68-1.54-3-1.72-6.02-3.44-8.68-5.64-1.35-1.12-2.6-2.36-4.05-3.35-1.4-.97-2.95-1.7-4.5-2.42-2.27-1.06-4.55-2.12-6.99-2.68-2.8-.64-5.88-.65-8.23-2.3-.28-.2-.55-.43-.69-.73-.15-.33-.14-.7-.1-1.06,.25-2.44,1.54-4.94,2.93-7.37-1.34-.57-2.79-.9-4.25-.99-.39-.02-.79-.02-1.18,0-.48,.02-.97,.06-1.42,.23-.37,.14-.7,.35-1.03,.55-.05,.02-.09,.04-.13,.07-.11,.08-.23,.15-.34,.21-.51,.26-1.11,.44-1.65,.24-.72-.27-1.04-1.1-1.2-1.85-.41-1.97-.22-4.05,.52-5.92,.18-.47,.45-.97,.91-1.16,.43-.18,.92-.05,1.36,.1,1.94,.67,3.7,1.78,5.62,2.53,1.91,.74,4.13,1.09,5.98,.18-.03,.08-.07,.16-.11,.24,2.28,.62,4.5,1.6,6.43,2.98,.58,.42,1.14,.87,1.77,1.21,.8,.44,1.7,.68,2.52,1.09,1.77,.86,3.15,2.4,4.93,3.25,.61,.3,1.26,.5,1.9,.73,4.76,1.68,5.47,3.14,9.85,4.64l.03-.09c1.79-.05,3.58-.11,5.37-.17,.32-.01,.66-.01,.93,.15,.38,.23,.51,.7,.65,1.12,.36,1.1,.98,2.1,1.77,2.94l.12-.12c9.67,.85,19.63-.88,28.97,1.74,.81,.22,1.62,.49,2.37,.87,.68,.35,1.3,.8,1.92,1.25,.53,.39,1.8,1.16,2.33,1.54l.12,.03c.25-1.08,.72-2.14,1.28-3.03,.83-1.32,1.72-2.6,2.68-3.83,.4-.52,.81-1.02,1.32-1.43,.63-.51,1.39-.84,2.17-1.05,2.03-.51,4.27-.1,5.99,1.09,.43,.3,.84,.66,1.16,1.08,.46,.63,.71,1.39,.93,2.14,.5,1.71,.89,3.54,.39,5.24Z"/>
    <g>
      <g>
        <path d="M206.24,91.82c-.65-.16-1.26-.43-1.77-.86-.54-.45-.93-.96-1.19-1.51-.01-.01-.02-.02-.01-.03-.6-1.2-.6-2.6-.28-3.94,.25-1.06,.71-2.09,1.26-2.96,.83-1.32,1.73-2.6,2.69-3.83,.39-.51,.81-1.02,1.31-1.43,.63-.5,1.39-.84,2.18-1.04,2.02-.52,4.26-.11,5.98,1.08,.44,.31,.84,.66,1.16,1.09,.47,.63,.71,1.39,.93,2.14,.5,1.7,.89,3.53,.39,5.24-.47,1.6-1.69,2.91-3.11,3.79-1.01,.63-2.13,1.06-3.27,1.43-.46,.14-.92,.27-1.38,.4-1.12,.3-2.26,.59-3.42,.6-.49,0-.99-.05-1.47-.17Zm9.47-6.19c.78-.84,1.34-1.95,1.28-3.09-.05-.93-.49-1.79-.93-2.62-.39-.74-.81-1.52-1.53-1.96-.95-.57-2.16-.41-3.24-.13-.75,.2-1.51,.45-2.14,.91-1.89,1.37-2.62,3.98-4.05,5.76-1.22,1.53-1.84,3.62-.78,5.44,.07,.12,.15,.25,.27,.33,.14,.1,.32,.14,.5,.16,2.82,.34,5.48-1.22,7.89-2.73,.97-.61,1.96-1.23,2.73-2.07Z"/>
        <path d="M203.27,89.42s0,.02,.01,.03c0,.07-.09,.25-.12,.3-.52,.92-1.41,1.56-2.16,2.3-.25,.25-1.99,1.36-2.24,1.52,.32-.08,2.88-.73,3.36-.95,1.45-.62,2.56-.92,4.12-.8,.48,.12,.98,.17,1.47,.17,1.16-.01,2.3-.3,3.42-.6,.46-.13,.92-.26,1.38-.4,0,.55,.04,1.2,.03,1.58-.01,.27-.01,.54-.11,.79-.08,.18-.19,.33-.29,.5-.7,1.14-.53,2.61-.1,3.88,.43,1.26,1.08,2.46,1.32,3.77,.38,2.06-.31,4.15-1.11,6.09-1.32,3.22-2.97,6.3-4.91,9.2-.78,1.16-1.63,2.31-2.79,3.08-1.16,.78-2.7,1.12-3.98,.56-.6-.27-1.1-.72-1.57-1.18-.42-.4-.83-.85-.99-1.41-.23-.81,.12-1.66,.28-2.49,.06-.3,.09-.61,.1-.92h.08c.51,.21,.36,.96,.46,1.5,.06,.27,.2,.51,.34,.75,.37,.64,.77,1.3,1.35,1.76,.58,.47,1.4,.71,2.09,.42,.46-.19,.81-.59,1.13-.98,.49-.57,.97-1.14,1.45-1.71,.33-.39,.67-.8,.81-1.29,.12-.39,.1-.81,.16-1.22,.05-.36,.16-.69,.3-1,.62-1.37,1.99-2.42,2.98-3.62,1.42-1.72,2.14-4.01,1.95-6.23-.08-1.02-.37-2.07-1.08-2.8-.2-.21-.44-.39-.56-.65-.15-.3-.14-.65-.12-.98,.08-1.2,.15-2.39,.22-3.59-2-.05-4.01-.1-6.01-.05-2.67,.06-5.33,.29-7.93,.92-1.15,.29-2.31,.65-3.5,.54,1.02-.52,1.97-1.16,2.84-1.91,.75-.65,1.44-1.37,2.13-2.09,1.97-2.08,3.97-4.18,5.38-6.68l.03-.11s.07,.04,.1,.06c-.32,1.34-.32,2.74,.28,3.94Z"/>
        <path d="M207.51,104.25c.7,.68,.67,1.84,.26,2.73-.41,.88-1.13,1.58-1.72,2.36-.5,.65-.93,1.44-.95,2.25-.06-.05-.11-.14-.12-.22-.21-1.11-.25-2.25-.11-3.37,.13-1.1,.43-2.18,.45-3.29,.01-1.11-.32-2.3-1.2-2.97-.11-.08-.23-.16-.34-.22,.38-.11,.82-.32,1.16-.33,.44,0,.91-.1,1.21-.42-.38,.84-.11,2.05,.47,2.76,.25,.29,.61,.46,.89,.72Z"/>
        <path d="M200.04,121.62c1,.46,2.02,.86,3.06,1.2-.72,1.1-1.72,2.01-2.86,2.65-.72,.41-1.29,1.16-4.88-1.61-1.33-1.02-3.68-3.57-5.28-4.42-.46,1.26-.93,2.53-1.39,3.79-.22,.58-.47,1.21-1.01,1.52-1.12,.66-2.38-.46-3.55-1.02-.63-.31-1.34-.45-2.04-.41l-.13-1.9c.67-.07,1.3-.37,1.65-.95,.33-.55,.34-1.23,.48-1.87,.14-.63,.5-1.31,1.14-1.43,.04,.41,.15,.9,.55,1.01,.29,.09,.61-.11,.74-.39,.14-.27,.14-.59,.11-.89,0-1.48-1.12-2.97-2.04-4.03-.48-.54-1.01-1.37-1.48-.41-.35,.71-.3,1.89-.42,2.67-.05,.34-.1,.68-.29,.97-.14,.23-.35,.4-.56,.57-.52,.43-1.05,.86-1.57,1.29-.37,.3-.88,.62-1.3,.38-.07-.04-.13-.09-.18-.15-.18-.22-.22-.56-.2-.86,.11-1.17,.91-2.15,1.31-3.25,.35-.97,.38-2.03,.41-3.07,.04-1.29,.08-2.57,.11-3.86,0-.36,.02-.73-.12-1.06s-.47-.61-.83-.57c.02-1.13,0-2.28-.3-3.37-.28-1.01-.78-1.93-1.14-2.91-.35-.98-.56-2.07-.21-3.06,.19-.56,.55-1.05,.8-1.59,.12-.27,.22-.56,.28-.85l1.13,.17c-.07,.31-.09,.63-.04,.95,.39,2.42,1.05,4.97,.96,7.42,.61-.42,1.52-.05,1.85,.6,.33,.66,.18,1.47-.18,2.11-.18,.31-.41,.63-.39,.98,.02,.27,.18,.51,.34,.73,1.21,1.63,2.6,3.12,4.15,4.43,.46-1.03,1.01-2.04,1.79-2.85,.79-.8,1.85-1.4,2.98-1.43-.95,.85-1.73,1.9-2.28,3.05,1.95-.34,3.5-1.79,4.92-3.18l-.36,2.01c1.84-.28,3.61-1.01,5.1-2.12-.08,1.48-.42,3.01-.49,4.51-2.4,.65-4.73,1.54-6.95,2.66-.18,.1-.37,.2-.49,.37-.34,.48,.09,1.13,.51,1.55,2.48,2.47,5.4,4.48,8.59,5.92Z"/>
        <path d="M158.76,76.42c-.13-.04-.25-.08-.37-.13l.03-.08c1.79-.06,3.58-.12,5.38-.17,.31,0,.65-.02,.93,.15,.37,.22,.51,.69,.64,1.11,.36,1.1,.98,2.1,1.78,2.94,1.67,1.78,4.12,2.85,6.56,2.69,.21,.66-.7,1.25-.57,1.93,.03,.17,.13,.33,.24,.47,.72,.98,1.77,1.72,2.94,2.06,3.05,.89,6.28-.89,9.44-.59-.72,.25-1.52,.18-2.23,.48-.7,.29-1.25,1.21-.77,1.8,.29,.35,.79,.4,1.25,.43,2.19,.13,4.39,.27,6.59,.4-2.46-.1-4.94,.28-7.25,1.12-.87,.31-1.73,.7-2.4,1.34-.43,.42-.77,.96-.92,1.54l-1.13-.17c.11-.48,.13-.97,.06-1.45-.01-.13-.04-.25-.13-.34-.1-.1-.25-.12-.4-.13-1.48-.06-3.07,.23-4.38-.48-.42-.23-.78-.55-1.2-.78s-.94-.36-1.37-.16l-.68,.14c-.23-1.21-.54-2.38-1.3-3.33-.98-1.24-2.55-1.86-3.64-3-.75-.78-1.25-1.77-1.87-2.65-.74-1.07-1.67-2-2.74-2.73-.95-.66-2.06-1.23-2.53-2.28l.04-.13Z"/>
        <path d="M181.96,121.42l.13,1.9c-.23,.01-.47,.04-.7,.09-.68,4.95-2.29,9.77-4.72,14.14-.46,.84-.98,1.69-1.77,2.25-1.74,1.26-4.21,.73-6.11-.29-.99-.53-1.92-1.17-2.7-1.98-1.04-1.07-1.77-2.39-2.48-3.7-2.15-4-4.16-8.08-6.01-12.23-1.15-2.54-2.26-5.29-1.79-8.04,.09-.53,.24-1.05,.37-1.58l.39,.1c.26-.08,.53-.16,.79-.25-.47,.92-.06,2.61,.23,3.6,.3,.99,.8,1.9,1.19,2.85,.49,1.21,.8,2.49,1.23,3.72,.52,1.5,1.22,2.94,1.91,4.37,.82,1.69,1.66,3.4,2.9,4.82,1.14,1.29,2.6,2.3,4.22,2.9,1.03,.39,2.17,.6,3.21,.26,1.1-.36,1.9-1.28,2.65-2.15,.43-.51,.87-1.02,1.13-1.63,.21-.48,.31-.99,.39-1.5,.1-.54,.16-1.17-.24-1.55-.36-.35-.97-.31-1.4-.04-.42,.27-.71,.71-.98,1.13-.29-1.19,1.6-1.95,1.57-3.17-.02-.9-1.02-1.38-1.74-1.91-1.61-1.17-2.28-3.39-1.85-5.33,.19-.86,.57-1.67,.8-2.51,.37-1.35,.37-2.76,.37-4.16,0-2.81,.05-5.63,.03-8.45,0-2.01-.02-4.04-.47-6-.35-1.48-.95-2.89-1.29-4.37-.16-.71-.28-1.45-.42-2.17l.68-.14c.36,1.05,.73,2.09,1.09,3.13,.69,1.97,1.38,3.95,1.81,5.99,.38,1.81,.56,3.65,.52,5.5,0,.52-.03,1.05,.08,1.56,.09,.4,.26,.79,.37,1.19,.61,2.27-.88,4.67-.43,6.97,.31,1.53,1.4,2.74,2.5,3.88,.16,.16,.32,.32,.47,.48,.79,.82,1.6,1.69,2.66,2.12,.44,.17,.93,.24,1.41,.2Z"/>
        <path d="M166.72,106.22c.83,1.67,1.23,3.82,.1,5.31-.36,.46-.91,.84-1.5,.8-.27-.02-.53-.13-.78-.26-.81-.43-1.5-1.11-1.96-1.91-.09-.16-.17-.32-.21-.5-.01-.02-.02-.04-.02-.06-.06-.33,.01-.66,.06-.98,.39-2.81-.98-5.59-2.81-7.76-.42-.5-.88-.99-1.46-1.3-1.44-.77-3.95-.6-5.17-1.69,2.58,.02,5.96,.53,8.49-.93,.17,.18,.36,.35,.56,.51,.61,.46,1.29,.9,1.67,1.57,.38,.65,.41,1.45,.58,2.19,.41,1.82,1.62,3.34,2.45,5.01Z"/>
        <path d="M162.18,108.62h.23c-.05,.32-.12,.65-.06,.98,0,.02,.01,.04,.02,.06l-.06,.02c-1.21,.25-2.25,1.02-3.37,1.55-.51,.23-1.04,.42-1.58,.6-.26,.09-.53,.17-.79,.25l-.39-.1c.16-.59,.3-1.18,.33-1.78,.03-.48,0-.98-.08-1.47l.29-.03c1.81,.16,3.65,.14,5.46-.08Z"/>
        <path d="M127.91,67.98c.71-1.23,1.45-2.44,2.09-3.62-.84,2.57-1.77,5.27-2.65,7.75-.21,.59-.39,1.23-.24,1.83,.18,.7,.78,1.23,1.44,1.52,.66,.3,1.38,.4,2.09,.54,1.31,.26,2.59,.66,3.82,1.18,1,.42,2.01,.93,3.09,.88,.69-.04,1.36-.3,2.05-.29,1.11,.03,2.08,.77,2.81,1.6s1.33,1.79,2.17,2.5c1.68,1.42,4.02,1.66,6.16,2.11,2.59,.54,5.09,1.48,7.39,2.77,1.13,.64,2.27,1.42,2.85,2.58-1.34-.73-2.83-1.18-4.35-1.31-.22,.85,.41,1.65,.93,2.35,1.06,1.41,1.86,3.02,2.35,4.71-.49-.61-1.01-1.17-1.69-1.56-3-1.71-6.01-3.44-8.67-5.64-1.35-1.12-2.61-2.35-4.05-3.35-1.41-.97-2.96-1.69-4.51-2.41-2.26-1.06-4.55-2.13-6.99-2.68-2.8-.64-5.88-.65-8.23-2.31-.28-.19-.55-.42-.69-.73-.15-.32-.13-.7-.1-1.05,.25-2.44,1.54-4.94,2.93-7.37Z"/>
        <path d="M130,64.36c-.64,1.18-1.38,2.39-2.09,3.62-1.34-.57-2.79-.91-4.25-.99,.54-.1,1.04-.27,1.49-.59,.38-.27,.68-.63,1.01-.95,.58-.55,1.25-.98,1.92-1.41,.9-.57,1.79-1.13,2.69-1.7,.07,.02,.15,.04,.22,.06-.28,.64-.62,1.29-.99,1.96Z"/>
      </g>
      <g>
        <path d="M118.42,68.85c-.22,0-.45-.04-.68-.12-.76-.29-1.28-1.05-1.51-2.22-.43-2.04-.24-4.25,.54-6.2,.21-.53,.54-1.16,1.19-1.44,.6-.24,1.2-.09,1.72,.09,1.08,.37,2.11,.88,3.11,1.38,.82,.41,1.67,.83,2.52,1.16,1.52,.6,3.72,1.12,5.58,.21l.44,.9c-2.19,1.07-4.68,.49-6.38-.17-.89-.35-1.76-.78-2.6-1.19-.97-.48-1.97-.98-2.99-1.33-.34-.12-.73-.22-1.01-.11-.3,.13-.5,.54-.64,.88-.7,1.77-.87,3.77-.48,5.63,.11,.57,.36,1.29,.88,1.48,.43,.16,.96-.06,1.24-.21,.17-.09,.33-.19,.51-.3,.36-.22,.69-.42,1.06-.55,.57-.21,1.15-.25,1.59-.26,.4-.01,.8,0,1.21,.01,1.5,.08,3.03,.44,4.42,1.03,.1,.04,.22,.08,.34,.14l-.45,.89c-.08-.04-.16-.07-.25-.11-1.31-.56-2.72-.89-4.11-.96-.38-.02-.75-.02-1.13,0-.54,.01-.93,.07-1.27,.2-.28,.1-.56,.27-.84,.44-.23,.14-.41,.25-.59,.35-.37,.2-.86,.39-1.38,.39Z"/>
        <path d="M159.03,77.03c-.09-.03-.18-.06-.27-.08l-.15-.05c-.15-.04-.28-.09-.41-.15-2.19-.74-3.46-1.48-4.81-2.26-1.31-.76-2.66-1.54-5.01-2.37l-.21-.07c-.57-.2-1.16-.4-1.74-.67-.95-.45-1.78-1.08-2.58-1.7-.78-.6-1.52-1.16-2.36-1.57-.35-.17-.72-.32-1.09-.46-.48-.19-.98-.38-1.45-.64-.49-.27-.93-.59-1.36-.91l-.45-.32c-1.8-1.3-3.92-2.28-6.28-2.9h-.01s-2.5,1.58-2.5,1.58c-.64,.41-1.29,.83-1.84,1.35-.09,.09-.18,.18-.27,.27-.24,.25-.49,.5-.79,.72-.47,.33-1.01,.55-1.69,.67-.4,.08-.82,.13-1.24,.17-.8,.09-1.56,.17-2.18,.5-.08,.04-.11,.05-.15,.08l-.55-.83c.09-.06,.17-.1,.27-.14,.76-.41,1.65-.5,2.51-.6,.39-.04,.79-.08,1.16-.16,.54-.1,.95-.26,1.3-.51,.23-.16,.44-.38,.65-.6,.1-.1,.2-.2,.3-.3,.62-.59,1.32-1.04,2-1.47l2.88-1.82,.44,.12c2.47,.66,4.69,1.69,6.59,3.05l.46,.33c.42,.31,.82,.6,1.25,.84,.42,.23,.87,.4,1.34,.59,.39,.15,.78,.31,1.16,.49,.93,.45,1.74,1.07,2.52,1.67,.8,.61,1.55,1.18,2.4,1.59,.52,.25,1.06,.43,1.63,.62l.21,.07c2.44,.86,3.84,1.67,5.18,2.45,1.3,.75,2.54,1.47,4.66,2.19,.14,.06,.24,.09,.36,.13l.4,.13-.27,.96Z"/>
        <path d="M165.4,112.83s-.08,0-.12,0c-.39-.03-.72-.18-.98-.32-.89-.47-1.65-1.22-2.16-2.1-.1-.17-.19-.36-.25-.58l-.03-.05-.02-.17c-.06-.28,0-.63,.05-.94l.02-.12c.43-3.11-1.51-5.95-2.7-7.36-.38-.45-.8-.91-1.31-1.18-.55-.3-1.32-.44-2.13-.6-1.15-.22-2.34-.45-3.14-1.16l.67-.75c.59,.53,1.64,.73,2.66,.92,.85,.16,1.73,.33,2.41,.7,.66,.35,1.16,.89,1.61,1.42,2.24,2.66,3.28,5.56,2.92,8.15l-.02,.13c-.04,.25-.08,.48-.04,.69,.04,.16,.1,.27,.17,.41,.41,.72,1.04,1.33,1.76,1.71,.16,.08,.38,.19,.58,.2,.4,.05,.82-.3,1.07-.61,1.24-1.64,.2-4.07-.15-4.78-.26-.53-.57-1.05-.87-1.56-.65-1.11-1.33-2.26-1.62-3.56-.05-.22-.09-.44-.13-.67-.09-.51-.17-.99-.4-1.38-.28-.49-.77-.85-1.28-1.23l-.26-.19c-.23-.18-.44-.37-.62-.57-.41-.41-.77-.87-1.12-1.31-.15-.19-.3-.39-.46-.57-.43-.53-.91-1.08-1.55-1.44-2.81-1.6-5.99-3.42-8.74-5.69-.45-.37-.88-.75-1.32-1.13-.86-.75-1.75-1.54-2.7-2.19-1.37-.95-2.93-1.67-4.43-2.37-2.21-1.04-4.48-2.1-6.89-2.65-.76-.17-1.56-.3-2.34-.43-2.1-.34-4.28-.69-6.07-1.96-.26-.18-.65-.48-.86-.93-.2-.42-.18-.89-.14-1.3,.27-2.63,1.69-5.29,2.99-7.57,.24-.42,.49-.83,.73-1.25,.47-.8,.93-1.59,1.35-2.36,.44-.79,.73-1.38,.97-1.92,.04-.09,.08-.15,.1-.21l.94,.35c-.04,.1-.08,.19-.13,.29-.24,.55-.55,1.17-1,1.98-.42,.78-.89,1.58-1.37,2.39-.24,.41-.48,.82-.72,1.24-1.26,2.19-2.62,4.74-2.87,7.17-.02,.28-.04,.58,.05,.79,.08,.18,.24,.34,.52,.53,1.61,1.14,3.58,1.46,5.66,1.8,.79,.13,1.61,.26,2.4,.44,2.51,.57,4.84,1.66,7.09,2.71,1.54,.72,3.14,1.46,4.58,2.45,.99,.69,1.91,1.49,2.79,2.26,.43,.38,.86,.75,1.3,1.11,2.68,2.22,5.82,4.01,8.6,5.59,.79,.45,1.37,1.1,1.83,1.68,.16,.19,.31,.39,.47,.59,.35,.44,.67,.86,1.05,1.23,.16,.17,.34,.33,.52,.47l.24,.18c.55,.41,1.17,.87,1.55,1.54,.31,.54,.42,1.13,.52,1.71,.04,.21,.07,.41,.12,.62,.26,1.16,.87,2.19,1.51,3.28,.31,.54,.63,1.07,.9,1.62,1.11,2.23,1.13,4.41,.05,5.83-.5,.64-1.17,1-1.82,1Z"/>
        <path d="M172.43,141.03c-1.2,0-2.54-.36-3.88-1.08-1.15-.61-2.07-1.29-2.82-2.07-1.12-1.15-1.88-2.56-2.56-3.81-2.18-4.05-4.21-8.18-6.03-12.27-1.19-2.63-2.32-5.45-1.83-8.33,.07-.4,.17-.8,.27-1.2l.1-.41c.17-.64,.29-1.16,.32-1.69,.03-.44,0-.9-.07-1.36-.4-2.48-2.11-4.82-4.25-5.83-1.87-.88-3.83-1.51-5.83-1.87-.01,0-1.64-.51-1.64-1.2-.03-.98,.72-1.79,2.04-2.22,.87-.27,2.33-.12,3.3-.03,.3,.03,.53,.06,.66,.06h0c.67-.27,1.53-.38,2.76-.35,.49,0,1.02,.03,1.57,.05,2.22,.09,4.74,.2,6.66-.91l.5,.87c-2.17,1.25-4.84,1.14-7.2,1.04-.53-.02-1.05-.04-1.54-.05-1.12-.02-1.89,.07-2.42,.3-.18,.08-.36,.06-1.09,0-.83-.08-2.23-.22-2.9-.01-.37,.12-1.21,.45-1.32,1.08,.22,.14,.68,.37,.82,.41,2.07,.37,4.11,1.03,6.06,1.95,2.42,1.14,4.36,3.78,4.81,6.57,.09,.54,.12,1.07,.09,1.58-.03,.65-.19,1.29-.35,1.88l-.1,.41c-.1,.37-.19,.74-.26,1.12-.44,2.6,.62,5.25,1.75,7.75,1.81,4.07,3.83,8.17,6,12.2,.64,1.19,1.37,2.53,2.4,3.59,.68,.71,1.52,1.32,2.58,1.89,.81,.44,3.62,1.75,5.58,.33,.73-.52,1.22-1.35,1.62-2.08,2.42-4.35,3.99-9.05,4.66-13.97l.05-.35,.34-.07c.25-.06,.52-.09,.79-.1,.78-.04,1.58,.11,2.28,.46,.28,.13,.56,.3,.85,.46,.97,.56,1.66,.91,2.23,.57,.37-.21,.57-.68,.8-1.27l1.58-4.32,.51,.27c1.07,.57,2.41,1.81,3.6,2.91,.66,.61,1.28,1.19,1.75,1.55,3.05,2.35,3.66,1.98,4.15,1.68l.17-.1c.9-.5,1.69-1.17,2.31-1.96-.83-.29-1.66-.63-2.47-1-3.26-1.47-6.2-3.5-8.73-6.02-.78-.78-.99-1.6-.56-2.19,.18-.26,.43-.4,.63-.51,2.28-1.15,4.65-2.06,7.08-2.72,.08-.03,.13-.04,.17-.05l.19,.98s-.09,.03-.14,.04c-2.33,.63-4.64,1.52-6.82,2.62-.13,.07-.26,.14-.31,.21-.11,.15,.09,.54,.45,.91,2.44,2.43,5.29,4.39,8.44,5.82,.98,.45,2,.85,3.01,1.18l.62,.2-.36,.55c-.75,1.15-1.8,2.12-3.03,2.81l-.14,.08c-.96,.59-1.96,.84-5.29-1.74-.51-.39-1.15-.98-1.83-1.61-.95-.88-2.01-1.87-2.89-2.46l-1.18,3.22c-.22,.58-.52,1.38-1.23,1.78-1.11,.66-2.24,0-3.23-.57-.26-.15-.53-.31-.79-.43-.55-.27-1.17-.4-1.8-.36-.1,0-.19,.01-.29,.02-.72,4.91-2.31,9.6-4.73,13.95-.46,.83-1.02,1.78-1.92,2.42-.76,.55-1.71,.83-2.75,.83Zm-27.22-41.15s0,0,0,.01c0,0,0,0,0-.01Z"/>
        <path d="M201.95,121.21c-.55,0-1.09-.1-1.58-.32-.7-.32-1.26-.83-1.72-1.28-.44-.42-.93-.95-1.12-1.63-.21-.74-.03-1.48,.13-2.13,.05-.2,.1-.39,.13-.59,.05-.26,.08-.54,.09-.84,.03-.54,.01-1.05,0-1.6-.02-.43-.03-.86-.02-1.28,0-.14,.01-.3,.02-.46,.04-.78,.15-1.58,.25-2.35,.1-.75,.2-1.45,.24-2.15,.07-1.23-.07-2.2-.44-3.04l-.1-.23c-.28-.6-.62-1.34-.27-2.09,.28-.58,.91-.94,1.82-1.03l.34-.02c.33-.02,.64-.04,.9-.14,.08-.03,.13-.05,.21-.09l.31-.17,.27,.24c.39,.36,.84,.48,1.37,.62,.41,.11,.83,.22,1.26,.46,.13,.07,.26,.16,.39,.25,.91,.69,1.42,1.92,1.41,3.38-.01,.73-.14,1.44-.26,2.13-.07,.4-.14,.81-.19,1.21-.13,1.06-.1,2.14,.1,3.21,0-.02-.02-.04-.05-.06-.08-.08-.32-.11-.48,.02l.64,.77c-.25,.21-.59,.19-.83-.05-.13-.1-.24-.31-.26-.51-.22-1.14-.26-2.33-.11-3.49,.05-.42,.12-.85,.2-1.27,.12-.68,.23-1.32,.25-1.97,0-.53-.08-1.86-1-2.56-.08-.06-.19-.13-.28-.18-.32-.18-.66-.27-1.03-.36-.48-.13-1.02-.27-1.52-.63-.02,0-.03,.01-.05,.02-.36,.14-.78,.17-1.16,.19l-.3,.02c-.31,.03-.85,.14-1.01,.47-.15,.32,.06,.76,.27,1.24l.11,.25c.43,1,.6,2.11,.52,3.5-.04,.74-.14,1.5-.25,2.23-.1,.75-.21,1.53-.24,2.28-.01,.14-.02,.28-.02,.41,0,.42,0,.82,.02,1.23,.02,.55,.04,1.12,0,1.69-.01,.34-.05,.68-.11,.99-.04,.21-.09,.42-.15,.64-.14,.58-.28,1.13-.14,1.62,.13,.45,.49,.83,.85,1.18,.41,.4,.88,.84,1.43,1.09,1.02,.45,2.36,.25,3.5-.52,1.12-.75,1.96-1.91,2.65-2.94,1.93-2.89,3.57-5.95,4.86-9.11,.77-1.87,1.44-3.87,1.08-5.81-.15-.8-.46-1.56-.79-2.37-.18-.44-.36-.88-.52-1.33-.58-1.71-.53-3.2,.15-4.3l.1-.16c.06-.09,.12-.18,.16-.28,.05-.13,.06-.32,.06-.53,0-.31,0-.66-.01-1.02l-.02-.6c-.01-.25-.01-.49-.01-.67h1c0,.17,0,.4,0,.64l.02,.6c.01,.38,.02,.76,.01,1.01-.01,.35-.02,.65-.15,.96-.07,.16-.15,.29-.24,.42l-.09,.14c-.66,1.07-.39,2.47-.06,3.47,.15,.43,.32,.85,.49,1.28,.33,.82,.68,1.66,.84,2.56,.4,2.19-.31,4.36-1.14,6.37-1.32,3.22-2.99,6.34-4.96,9.29-.75,1.11-1.66,2.37-2.93,3.22-.9,.6-1.92,.92-2.88,.92Z"/>
        <path d="M203.56,102.08l-.11-.99s.09-.01,.12-.03c.18-.06,.3-.1,.42-.14,.31-.11,.62-.22,.93-.23,.42,0,.71-.1,.86-.26,.36-.36,.18-1.08,.09-1.38-.25-.77-.81-1.64-1.62-1.77-.39-.07-.69,0-1.15,.14-.54,.17-1.08,.39-1.58,.67-.11,.06-.23,.13-.28,.19-.07,.09-.1,.24-.13,.38-.1,.55-.19,1.17,.08,1.52l.07,.14-.3,.1-.48,.48-.08-.13h-.01c-.51-.67-.4-1.54-.26-2.29,.05-.25,.11-.53,.3-.79,.16-.24,.4-.38,.61-.49,.56-.31,1.15-.56,1.76-.75,.62-.2,1.12-.27,1.62-.17,1.06,.17,1.96,1.08,2.4,2.45,.32,1.01,.21,1.85-.32,2.38-.34,.36-.85,.55-1.55,.57-.15,0-.4,.09-.62,.17-.14,.05-.28,.1-.41,.14-.06,.03-.2,.07-.35,.09Z"/>
        <path d="M204.62,112.09c-.02-.18-.04-.36-.02-.54,.02-.78,.37-1.64,1.05-2.52,.18-.24,.37-.47,.57-.7,.43-.52,.84-1.01,1.1-1.56,.31-.67,.39-1.63-.15-2.16-.09-.09-.21-.17-.33-.25-.19-.14-.41-.29-.59-.5-.75-.92-.98-2.33-.55-3.29l.91,.41c-.28,.62-.1,1.62,.4,2.24,.09,.11,.25,.22,.4,.33,.15,.11,.3,.22,.44,.34,.91,.88,.84,2.29,.37,3.31-.31,.68-.78,1.24-1.23,1.78-.18,.22-.37,.44-.54,.67-.55,.71-.83,1.37-.85,1.96,0,.14,0,.25,.02,.36l-.99,.13Z"/>
        <path d="M205.89,90.6c-.27,0-.54-.02-.81-.05-.15-.02-.38-.05-.56-.18-.13-.09-.22-.22-.31-.37-.97-1.66-.67-3.75,.79-5.58,.54-.68,1-1.5,1.44-2.29,.71-1.29,1.45-2.63,2.64-3.49h0c.66-.48,1.44-.73,2.18-.93,.93-.24,2.28-.49,3.34,.14,.77,.47,1.2,1.29,1.58,2.01,.4,.75,.89,1.68,.94,2.67,.06,1.06-.42,2.22-1.31,3.18-.77,.84-1.77,1.47-2.73,2.08-2.38,1.49-4.71,2.81-7.18,2.81Zm7.09-12.9c-.6,0-1.19,.13-1.66,.25-.72,.19-1.47,.43-2.1,.89h0c-1.14,.83-1.86,2.14-2.56,3.41-.44,.8-.9,1.63-1.46,2.33-1.4,1.75-1.68,3.73-.77,5.3,.07,.12,.14,.23,.23,.29,.1,.08,.24,.12,.44,.14,2.69,.32,5.23-1.1,7.81-2.71,.97-.61,1.95-1.23,2.7-2.05,.85-.91,1.3-2,1.25-3-.05-.93-.53-1.84-.92-2.57-.37-.69-.78-1.48-1.48-1.91-.45-.27-.97-.36-1.48-.36Z"/>
        <path d="M202.06,119.49c-.6,0-1.22-.23-1.75-.66-.63-.5-1.06-1.18-1.47-1.9-.15-.26-.32-.55-.4-.89-.04-.19-.05-.37-.06-.56-.01-.19-.03-.55-.11-.59l.38-.92c.66,.27,.7,.99,.72,1.46,0,.14,.01,.28,.04,.41,.04,.17,.16,.37,.28,.59,.37,.63,.73,1.23,1.23,1.62,.5,.41,1.13,.55,1.59,.35,.35-.15,.64-.48,.94-.84,.5-.58,.98-1.15,1.45-1.71,.28-.33,.6-.71,.71-1.1,.06-.21,.08-.43,.1-.67,.01-.16,.02-.32,.05-.48,.05-.37,.16-.74,.34-1.13,.45-1,1.24-1.81,2.01-2.6,.36-.37,.72-.74,1.04-1.13,1.35-1.63,2.02-3.77,1.84-5.87-.09-1.1-.4-1.94-.94-2.5l-.15-.15c-.18-.17-.38-.36-.51-.64-.2-.39-.19-.82-.17-1.22,.07-1.03,.13-2.05,.19-3.07-1.8-.04-3.65-.08-5.47-.04-3.07,.07-5.56,.36-7.82,.91l-.42,.11c-1.04,.27-2.11,.55-3.24,.44l-1.72-.16,1.54-.78c.98-.5,1.9-1.12,2.74-1.84,.72-.63,1.41-1.34,2.07-2.03l.09-.1c1.9-2.01,3.87-4.09,5.24-6.51l.87,.49c-1.42,2.52-3.44,4.65-5.38,6.7l-.07,.08c-.7,.73-1.41,1.47-2.17,2.12-.34,.29-.69,.57-1.05,.83,.27-.06,.55-.14,.83-.21l.43-.11c2.34-.57,4.9-.87,8.04-.94,2.02-.05,4.06,0,6.03,.05h.52s-.03,.53-.03,.53c-.07,1.2-.14,2.39-.22,3.59-.02,.27-.02,.54,.07,.72,.06,.12,.17,.23,.3,.35,.06,.06,.12,.12,.18,.18,.7,.72,1.11,1.77,1.22,3.11,.2,2.35-.55,4.76-2.06,6.59-.34,.41-.72,.8-1.1,1.19-.74,.76-1.44,1.48-1.81,2.32-.14,.3-.22,.59-.26,.86-.02,.14-.03,.28-.04,.42-.02,.29-.04,.58-.14,.88-.17,.6-.58,1.08-.91,1.47-.48,.57-.96,1.14-1.45,1.71-.35,.43-.76,.88-1.32,1.12-.27,.11-.55,.17-.84,.17Z"/>
        <path d="M198.73,93.7v-.12l-.03-.12c.76-.19,2.94-.76,3.36-.95,1.42-.61,2.56-.94,4.18-.81h.06v.25h-.07c-1.57-.12-2.69,.2-4.07,.79-.52,.24-3.35,.95-3.38,.96,0,0-.03,.01-.06,.01Z"/>
        <path d="M198.83,93.67l-.13-.21,.03-.02c1.24-.79,2.04-1.34,2.19-1.48,.2-.2,.42-.39,.63-.59,.56-.51,1.14-1.03,1.51-1.68,.04-.06,.1-.2,.1-.24h.25c0,.13-.14,.36-.14,.37-.39,.69-.98,1.22-1.56,1.74-.21,.19-.42,.38-.62,.58-.21,.21-1.33,.94-2.23,1.52l-.03,.02Z"/>
        <path d="M203.25,89.53v-.12s.02,0,.02,0l-.02,.12Zm.14-.12h-.14v-.13s.14,.13,.14,.13Z"/>
        <path d="M203.23,86.22l-.03-.02c-.11-.08-.27-.18-.46-.29l-.11-.06c-.28-.17-.61-.36-.93-.55-.61-.36-1.2-.7-1.47-.9-.59-.43-1.21-.88-1.85-1.21-.75-.39-1.56-.64-2.27-.84-5.78-1.62-11.95-1.55-17.92-1.48-3.6,.04-7.33,.08-10.96-.24l.09-1c3.59,.32,7.29,.28,10.86,.24,6.03-.07,12.27-.14,18.2,1.52,.75,.21,1.63,.49,2.46,.92,.71,.37,1.36,.84,1.98,1.29,.24,.17,.82,.52,1.39,.85,.33,.19,.66,.39,.94,.56,.03,.01,.08,.04,.12,.08,.18,.1,.35,.22,.48,.3l-.52,.86Z"/>
        <path d="M156.72,112.55l-.29-.96,.16-.05c.21-.06,.41-.13,.62-.2,.44-.15,1-.34,1.54-.58,.34-.16,.67-.35,1.01-.53,.77-.43,1.56-.87,2.46-1.05l.2,.98c-.75,.16-1.45,.54-2.18,.95-.36,.2-.71,.39-1.07,.57-.59,.26-1.18,.47-1.64,.62-.21,.07-.43,.14-.65,.21l-.15,.05Z"/>
        <path d="M159.08,109.3c-.8,0-1.6-.04-2.41-.11l.09-1c1.81,.16,3.61,.13,5.36-.08l.12,.99c-1.04,.13-2.09,.19-3.15,.19Z"/>
        <path d="M171.13,135.02c-.7,0-1.45-.15-2.27-.46-1.69-.62-3.21-1.67-4.42-3.04-1.31-1.5-2.19-3.32-2.98-4.93l-.05-.1c-.67-1.39-1.37-2.83-1.88-4.32-.17-.5-.33-1.01-.49-1.52-.22-.73-.45-1.48-.74-2.18-.13-.33-.28-.65-.43-.97-.28-.61-.57-1.25-.78-1.92-.55-1.86-.61-3.16-.2-3.97l.89,.46c-.2,.39-.31,1.26,.26,3.23,.18,.61,.45,1.18,.73,1.79,.15,.33,.31,.67,.45,1.01,.3,.75,.54,1.52,.77,2.26,.15,.5,.3,.99,.47,1.48,.5,1.44,1.18,2.85,1.84,4.22l.05,.1c.75,1.55,1.61,3.31,2.83,4.71,1.09,1.24,2.48,2.19,4.02,2.76,1.13,.43,2.09,.51,2.88,.25,.98-.32,1.71-1.17,2.43-2,.45-.53,.83-.98,1.05-1.5,.18-.41,.27-.85,.36-1.38,.08-.41,.13-.9-.09-1.11-.17-.16-.52-.15-.79,.02-.34,.22-.6,.62-.83,.98l-.63,.98-.28-1.13c-.21-.88,.38-1.55,.86-2.09,.36-.41,.7-.8,.69-1.18,0-.45-.45-.78-1.11-1.22-.15-.1-.29-.2-.43-.3-1.69-1.23-2.53-3.63-2.04-5.84,.11-.52,.29-1.01,.46-1.48,.12-.35,.25-.7,.35-1.05,.35-1.29,.35-2.68,.35-4.03,0-1.17,0-2.35,.02-3.53,.01-1.64,.02-3.28,.01-4.92,0-2.14-.03-4.05-.46-5.89-.17-.7-.4-1.41-.62-2.1-.24-.73-.49-1.49-.67-2.27-.11-.47-.2-.96-.28-1.44l-.14-.74c-.24-1.27-.54-2.29-1.2-3.11-.49-.62-1.15-1.08-1.86-1.57-.6-.42-1.23-.85-1.75-1.4-.54-.56-.95-1.21-1.34-1.83-.19-.3-.38-.59-.58-.88-.72-1.04-1.6-1.91-2.61-2.6-.17-.12-.34-.23-.51-.34-.86-.57-1.75-1.15-2.19-2.15l.91-.41c.33,.73,1.06,1.21,1.83,1.72,.18,.12,.36,.24,.53,.36,1.12,.76,2.08,1.72,2.87,2.86,.21,.29,.4,.6,.6,.91,.39,.61,.75,1.19,1.22,1.67,.46,.48,1.01,.86,1.6,1.27,.73,.51,1.49,1.03,2.07,1.77,.84,1.04,1.17,2.32,1.4,3.55l.14,.75c.09,.47,.17,.94,.28,1.4,.17,.73,.41,1.47,.64,2.18,.23,.71,.47,1.44,.65,2.19,.45,1.95,.48,3.92,.48,6.12,.01,1.64,0,3.29-.01,4.93,0,1.18-.02,2.35-.02,3.52,0,1.41,0,2.88-.39,4.29-.1,.38-.24,.75-.37,1.12-.17,.47-.32,.91-.42,1.36-.41,1.83,.27,3.81,1.66,4.82,.13,.09,.26,.18,.4,.27,.68,.46,1.53,1.03,1.55,2.03,.01,.52-.22,.96-.51,1.35,.41-.03,.84,.07,1.17,.39,.64,.61,.46,1.58,.38,2-.08,.51-.19,1.07-.42,1.61-.28,.65-.73,1.18-1.16,1.7-.81,.94-1.68,1.95-2.92,2.36-.4,.13-.82,.2-1.27,.2Z"/>
        <path d="M159.52,95.51c-.04-.14-.05-.19-.07-.25-.49-1.68-1.27-3.25-2.29-4.6l-.06-.08c-.54-.73-1.22-1.64-.95-2.69l.11-.41,.42,.04c.85,.07,1.7,.24,2.52,.5-.42-.32-.87-.59-1.3-.84-2.27-1.27-4.71-2.19-7.25-2.72-.34-.07-.68-.14-1.03-.2-1.89-.36-3.84-.74-5.35-2.01-.59-.5-1.06-1.1-1.51-1.68-.23-.3-.46-.59-.71-.87-.56-.64-1.44-1.4-2.45-1.43-.29,.01-.66,.06-1.01,.14-.32,.07-.65,.13-.99,.15-1.07,.04-2.01-.36-2.93-.76l-.38-.16c-1.22-.51-2.47-.9-3.72-1.15l-.34-.06c-.61-.12-1.25-.23-1.86-.51-.89-.39-1.52-1.07-1.72-1.85-.18-.73,.01-1.45,.25-2.12,.96-2.72,1.88-5.39,2.65-7.74l.48-1.51,.95,.3-.48,1.51c-.77,2.36-1.69,5.04-2.66,7.77-.19,.52-.34,1.07-.23,1.54,.12,.48,.55,.92,1.16,1.18,.5,.23,1.05,.33,1.63,.44l.35,.07c1.32,.26,2.64,.67,3.92,1.21l.39,.17c.85,.37,1.66,.71,2.48,.68,.28-.02,.56-.08,.85-.13,.39-.08,.79-.16,1.23-.16,1.09,.03,2.19,.64,3.18,1.77,.26,.29,.5,.61,.75,.92,.44,.57,.86,1.1,1.37,1.53,1.31,1.11,3.13,1.46,4.89,1.8,.35,.07,.7,.13,1.05,.21,2.64,.55,5.17,1.5,7.53,2.82,1.14,.65,2.4,1.48,3.05,2.79l.71,1.42-1.4-.76c-1.12-.61-2.37-1.02-3.64-1.19,.09,.46,.45,.94,.8,1.42l.06,.08c1.08,1.44,1.92,3.12,2.43,4.87,.02,.04,.04,.12,.07,.21l-.94,.36Z"/>
        <path d="M186.81,111.53l-.25-.21c-1.55-1.31-2.96-2.81-4.19-4.47-.18-.24-.36-.53-.39-.86-.02-.38,.17-.71,.35-.99l.08-.13c.37-.65,.43-1.35,.17-1.87-.15-.29-.45-.52-.78-.61-.26-.07-.51-.03-.71,.1l-.41,.28,.02-.5c.07-1.81-.29-3.69-.63-5.52-.12-.62-.23-1.24-.33-1.85-.05-.34-.04-.69,.04-1.04,.16-.61,.51-1.19,.99-1.66,.75-.72,1.73-1.12,2.49-1.4,1.07-.39,2.2-.68,3.34-.88-.87-.05-1.74-.11-2.61-.16-.42-.03-1.05-.07-1.43-.52-.22-.27-.29-.62-.2-.99,.11-.43,.43-.84,.83-1.08-.53,.08-1.06,.18-1.58,.28-1.77,.34-3.61,.69-5.37,.18-1.22-.36-2.31-1.12-3.07-2.15-.16-.2-.25-.39-.28-.57-.08-.42,.14-.79,.33-1.12,.13-.22,.24-.42,.27-.6-2.37,.09-4.8-.95-6.52-2.78-.84-.88-1.47-1.93-1.84-3.03-.13-.41-.25-.81-.53-.97-.22-.13-.51-.12-.79-.12-1.65,.05-3.3,.1-4.94,.16h-.44s-.02-.49-.02-.49h.44c1.64-.07,3.29-.12,4.94-.17,.32,0,.72-.02,1.07,.19,.44,.26,.6,.78,.74,1.23,.34,1.05,.94,2.03,1.73,2.86,1.68,1.79,4.07,2.75,6.36,2.61h.2s.06,.17,.06,.17c.14,.45-.09,.84-.29,1.19-.16,.27-.31,.53-.27,.77,.02,.11,.08,.22,.19,.36,.7,.95,1.7,1.65,2.81,1.97,1.65,.48,3.34,.16,5.14-.19,1.39-.27,2.83-.55,4.26-.41l1.14,.11-1.08,.38c-.36,.12-.73,.17-1.09,.22-.4,.05-.78,.11-1.13,.25-.37,.15-.68,.51-.77,.87-.05,.21-.02,.4,.1,.55,.22,.26,.63,.31,1.07,.34,1.06,.06,2.13,.13,3.2,.19,1.13,.07,2.26,.14,3.39,.21l-.02,.5c-2.42-.11-4.89,.28-7.15,1.11-.72,.25-1.63,.63-2.31,1.29-.42,.41-.72,.91-.85,1.42-.06,.29-.08,.58-.04,.85,.1,.6,.21,1.22,.33,1.84,.32,1.72,.65,3.5,.64,5.23,.22-.06,.46-.06,.71,0,.47,.12,.89,.45,1.1,.87,.33,.67,.27,1.55-.19,2.35l-.08,.14c-.15,.25-.29,.48-.28,.71,.01,.2,.15,.41,.29,.6,1.14,1.54,2.44,2.94,3.86,4.17,.53-1.14,1.07-1.96,1.7-2.62,.93-.94,2.05-1.48,3.15-1.51l.68-.02-.51,.46c-.79,.7-1.46,1.56-1.98,2.5,1.58-.45,2.88-1.62,4.28-3l.56-.55-.44,2.43c1.69-.31,3.28-1,4.64-2.01l.35,.36-.07,.05h0c-1.54,1.13-3.32,1.87-5.19,2.16l-.35,.05,.29-1.59c-1.18,1.12-2.68,2.39-4.49,2.71l-.48,.08,.21-.44c.45-.95,1.06-1.83,1.78-2.59-.73,.19-1.45,.62-2.08,1.25-.64,.67-1.18,1.53-1.74,2.78l-.14,.3Z"/>
      </g>
    </g>
    <path class="cls-1" d="M97.57,63.38c-.06,.63-.16,1.26-.4,1.84-.25,.59-.64,1.12-1.19,1.43-.88,.51-1.99,.38-2.95,.07-.32-.11-.65-.23-.89-.46-.21-.21-.35-.48-.48-.74-.27-.57-.55-1.13-.83-1.69-.05-.09-.09-.19-.13-.28-.02-.04-.04-.07-.06-.11l-.21,.1c.24,1.48,.49,2.96,.81,4.43,.22,1.06,.49,2.11,.83,3.15,.4,1.23,.9,2.43,1.06,3.71,.06,.41,.08,.84-.07,1.23-.14,.35-.4,.64-.7,.88-1.41,1.13-3.39,1.11-5.21,1.18-2.89,.12-5.76,.63-8.52,1.51-2.4,.76-4.81,1.88-6.39,3.85-.85,1.07-1.86,2.14-2.91,3.02-1.04,.87-2.01,1.83-2.98,2.79-.68,.67-1.37,1.35-1.95,2.1-.67,.87-1.2,1.83-1.72,2.79-.57,1.03-1.13,2.06-1.7,3.09-.52,.95-1.04,1.91-1.46,2.91-.51,1.24-.85,2.55-1.19,3.85-.43,1.64-.86,3.31-.86,5.01,.01,1.46-1.01,2.81-1.6,4.15-.36,.8-.78,1.59-.98,2.45-.34,1.41-.1,2.89-.08,4.35,.03,2.11-.43,4.19-.89,6.25-.62,2.8-1.24,5.61-1.86,8.41-.63,2.82-1.26,5.72-.87,8.59,.41,3.09,1.97,5.92,2.48,8.99,.11,.66,.32,1.32-.07,1.86-.26,.36-.69,.53-1.1,.69-1.88,.75-3.7,1.64-5.44,2.66-.28,.16-.57,.33-.88,.42-.21,.06-.43,.08-.65,.09-.25,.73,0,1.65-.51,2.23-.05,.05-.1,.1-.15,.14h.3c.31,1.77-.75,3.63-.19,5.33,.14,.44,.38,.83,.56,1.25,.35,.79,.49,1.67,.4,2.53-.04,.34-.11,.68-.27,.98-.2,.36-.52,.63-.87,.85-1.41,.87-3.19,.8-4.83,.58-1.64-.23-3.32-.59-4.93-.21-1.22,.28-2.38,.98-3.63,.92-.94-.04-1.81-.52-2.75-.62-.62-.07-1.29,.02-1.84-.27-.77-.4-1-1.56-.44-2.23,.34-.41,.88-.6,1.4-.67,.97-.13,1.97,.08,2.92-.13,.81-.19,1.52-.67,2.2-1.15,.38-.26,.75-.52,1.12-.78,1.13-.79,2.28-1.6,3.15-2.67,.81-1.02,1.36-2.34,1.2-3.63-.17-.06-.32-.15-.41-.31-.09-.16-.1-.35-.11-.53-.05-.8-.09-1.65,.29-2.36l.05-.04c-.06-.08-.11-.16-.15-.25-.21-.45-.18-.98-.13-1.48,.14-1.72,.28-3.43,.42-5.15,.06-.75,.12-1.49,.12-2.24-.01-.82-.1-1.63-.18-2.45-.12-1.14-.24-2.29-.36-3.44-.11-1.04-.08-2.06-.37-3.06-.44-1.48-.58-3.03-.71-4.56-.16-1.75-.31-3.51-.03-5.24,.15-.92,.42-1.83,.63-2.74,.02-.07,.03-.15,.04-.22-.08,.07-.17,.14-.25,.2l-.34-.04c-.1-1.22-.2-2.43-.3-3.65-.02-.29-.05-.6-.25-.81-.33-.35-.93-.21-1.31,.08-.38,.3-.67,.71-1.1,.93-.59,.31-1.34,.18-1.89-.2-.55-.38-.93-.96-1.22-1.56-.65-1.34-.94-2.85-.84-4.34-1.73,2.15-4.03,3.75-6.3,5.31-1.01,.7-2.02,1.4-3.03,2.1-.44,.3-.92,.62-1.46,.63-.5,.01-.96-.24-1.36-.52-.91-.64-1.68-1.49-2.22-2.47-.18-.33-.33-.74-.14-1.05,.09-.16,.25-.26,.4-.35,3-1.82,6.92-1.95,9.57-4.26,.9-.79,1.6-1.79,2.53-2.55,.52-.42,1.12-.77,1.54-1.29,.43-.53,.63-1.32,.24-1.88-.24-.34-.66-.52-1.06-.66-2.2-.78-4.68-.99-6.52-2.43-.64,2.28,.37,4.9-.67,7.03-.86,1.73-3.11,2.64-4.92,1.97-.8-.29-1.48-.83-2.11-1.39-1-.89-1.93-1.85-2.85-2.81-.71-.74-1.44-1.51-1.74-2.48-.2-.65-.23-1.41-.73-1.87-1.81-1.67-1.95-4.39-2.58-6.77-.2-.75-.4-1.52-.38-2.3,.03-1.44,.79-2.75,1.52-3.99,.58-.98,1.16-1.97,1.74-2.95-.33-.62-.5-1.41-.82-2.03-.23-.46-.47-.92-.61-1.41-.21-.71-.22-1.49-.02-2.21-.31-.22-.61-.45-.9-.68-.69-.54-1.37-1.08-2.06-1.62-.61-.49-1.24-.98-1.71-1.61-.66-.89-.98-1.98-1.49-2.96-.32-.61-.72-1.18-.98-1.81-.49-1.17-.46-2.52,.01-3.69,.24-.59,.58-1.14,1.03-1.59,.46-.47,.67-.97,1.31-1.25,1.75-.76,3.67-1.26,5.57-1.03,1.89,.22,3.76,1.27,4.63,2.97,.28,.53,.45,1.11,.65,1.67,.58,1.63,1.43,3.17,2.49,4.54,.28,.35,.57,.69,.76,1.09,.01,.02,.02,.04,.03,.07l.16,.06c.14-.39,.65-.62,.97-.86,.56-.41,1.12-.83,1.68-1.24,.85-.64,1.71-1.28,2.67-1.72,1.37-.63,2.87-.86,4.36-1.07,1.21-.18,2.42-.36,3.64-.39,3.05-.09,6.05,.72,9.07,1.04,.83,.09,1.67,.15,2.51,.13,3.33-.06,6.7-1.14,9.95-.92,.76,.05,1.51,.18,2.26,.4,.81-.6,1.7-1.22,2.51-1.82,.45-.34,.91-.68,1.4-.97,.95-.55,2.03-.91,3.13-.94,1.1-.03,2.22,.27,3.11,.92,.27-.18,.54-.36,.8-.54,1.8-1.22,3.64-2.49,5.55-3.47,.8-.41,1.63-.79,2.34-1.33,.88-.66,1.61-1.57,2.66-1.89,.81-.25,1.68-.11,2.52-.19,2.15-.18,3.91-1.71,5.45-3.22,.7-.7,1.42-1.42,2.35-1.75,1.23-.44,2.58-.1,3.88-.21l.07,.04c.08-.15,.18-.29,.31-.41,.24-.22,.54-.37,.84-.51,.62-.3,1.24-.6,1.86-.9,.98-.48,1.73-.67,2.43,.3,.25,.36,.5,.71,.73,1.07,.05,.07,.1,.15,.15,.22,.18,.28,.36,.57,.51,.87,.18,.35,.32,.71,.38,1.1,.05,.38,.03,.78-.01,1.17Z"/>
    <g>
      <g>
        <path d="M97.58,62.21c.06,.39,.03,.79-.01,1.18-.06,.63-.16,1.26-.4,1.84s-.64,1.12-1.19,1.43c-.87,.51-1.98,.37-2.95,.06-.32-.1-.64-.23-.89-.46-.21-.2-.34-.47-.47-.74-.23-.46-.46-.92-.69-1.39l-.15-.3c-.04-.09-.09-.18-.13-.27h.02c.43,.35,.76,.83,1.25,1.1,.42,.22,.91,.26,1.39,.26,.71,0,1.43-.07,2.09-.34,.65-.27,1.24-.76,1.52-1.41,.16-.36,.22-.75,.25-1.13,.02-.31,.03-.62-.02-.93,.18,.35,.32,.72,.38,1.1Z"/>
        <path d="M93.14,74.83c.05,.41,.07,.85-.08,1.23-.14,.36-.4,.65-.7,.88-1.41,1.14-3.39,1.12-5.2,1.19-2.89,.12-5.77,.62-8.53,1.5-2.4,.77-4.81,1.89-6.39,3.86-.85,1.07-1.86,2.13-2.9,3.01-1.05,.88-2.02,1.84-2.99,2.8-.68,.67-1.36,1.34-1.95,2.1-.67,.86-1.19,1.83-1.72,2.79-.57,1.03-1.13,2.06-1.69,3.09-.53,.95-1.05,1.9-1.46,2.91-.52,1.24-.86,2.54-1.2,3.84-.05,.21-.11,.41-.16,.62l-1.73-.1c.1-.59,.13-1.2,.16-1.8,.04-1.07,.1-2.15,.15-3.22,.01-.37,.03-.73,.05-1.1,.04-.71,.07-1.42,.31-2.09,.26-.75,.76-1.41,.92-2.19,.17-.76,0-1.58,.28-2.3,.27-.67,.88-1.12,1.43-1.59,1.23-1.05,2.23-2.38,2.97-3.83,.55-1.09,1.34-2.07,2.3-2.84,.75-.61,1.61-1.1,2.25-1.82,.47-.53,.81-1.16,1.25-1.7,.71-.84,1.66-1.44,2.59-2.02,.99-.62,2.01-1.25,3.14-1.51,.98-.23,2.03-.18,2.95-.57,.95-.4,1.69-1.25,2.69-1.52,.55-.15,1.13-.11,1.7-.09,.82,.04,1.65,.03,2.48,0,.46-.02,.94-.06,1.32-.31,.48-.33,.69-.93,.83-1.5,.22-.88,.33-1.79,.34-2.7,.31,.77,.88,1.44,1.6,1.85,.4-.41,.47-1.03,.53-1.6,.11-1.19,.22-2.37,.33-3.56,.07,1.05,.18,2.09,.33,3.13,.04,.33,.1,.67,.3,.92,.2,.26,.6,.39,.86,.19,.18-.13,.24-.38,.29-.61,.16-.8,.32-1.6,.49-2.4h.11c.13,1.09,.29,2.17,.69,3.37,.4,1.22,.89,2.43,1.06,3.7Z"/>
        <path d="M41.1,88.5c-.09,0-.17-.02-.26-.03-1.36-.17-2.67-.62-3.98-1.03-3.05-.94-6.17-1.6-9.29-2.27,1.63-1.08,3.71-1.21,5.66-1.01,1.94,.19,3.86,.67,5.81,.66,1.95,0,4.04-.59,5.26-2.11,1.01-1.27,1.32-3.04,2.51-4.14,.45-.4,.99-.69,1.52-.98,1.34-.71,2.68-1.43,4.03-2.14,.76,.05,1.51,.17,2.25,.39,.8-.6,1.69-1.21,2.5-1.81,.46-.34,.91-.68,1.41-.97,.94-.56,2.02-.91,3.12-.94,1.1-.04,2.22,.27,3.11,.92,.27-.18,.54-.36,.8-.55l.08,.12c-.7,1.33-2.47,1.54-3.86,2.12-2.05,.87-3.44,2.77-5.18,4.16-2.71,2.17-6.32,3.12-8.7,5.65-1.03,1.08-1.81,2.44-3.08,3.23-.56,.35-1.18,.56-1.83,.67-.62,.11-1.26,.12-1.88,.06Z"/>
        <path d="M46.76,157.62c-.18,.1-.37,.19-.58,.25-.3,.08-.61,.09-.93,.09l-4.23,.09c-.56,.01-1.14,.02-1.68-.13-.12-.03-.24-.07-.35-.13l.07-.18c3.18,.12,6.34-.9,9.04-2.57,.48-.29,.97-.65,1.15-1.18,.07-.23,.08-.48,.08-.73,.01-3.15-.68-6.35-2.36-9.01-.48-.78-1.05-1.51-1.47-2.32-.71-1.36-.83-2.82-1.06-4.33,1.43,.83,2.5,2.27,2.89,3.88,.1,.37,.16,.76,.36,1.09,.21,.33,.61,.57,.98,.44,.03-.92-.29-1.81-.62-2.67l-1.26-3.39c.46,.13,.87,.42,1.15,.8,.2-.81,.11-1.67,.11-2.51,.02-1.98,.61-3.91,1.09-5.83,1.23-4.89,1.9-10.07,1.67-15.1,1.43-.78,2.55-2.12,3.06-3.67,.17-.54,.28-1.11,.49-1.64,.45-1.17,1.35-2.11,1.8-3.28,.13-.34,.21-.69,.28-1.04l1.73,.1c-.37,1.45-.7,2.91-.7,4.4,.01,1.46-1,2.81-1.6,4.14-.36,.81-.77,1.6-.98,2.45-.34,1.42-.09,2.9-.07,4.36,.02,2.11-.44,4.19-.89,6.24-.62,2.81-1.25,5.61-1.87,8.41-.62,2.83-1.25,5.73-.87,8.59,.41,3.09,1.97,5.93,2.49,9,.11,.65,.31,1.32-.08,1.86-.26,.35-.69,.52-1.1,.69-1.88,.75-3.7,1.64-5.44,2.66-.1,.06-.2,.11-.3,.17Z"/>
        <path d="M53.94,92.75c.06,2.16-.17,2.57-.28,4.73-.02,.39,.14,1.27,.14,1.91,0,.26-.02,.48-.1,.62-.29,.53-.88,.22-1.32,.63-.32,.31-.52,1.3-.8,1.65-.42,.52-.76,1.12-.6,1.77,.19,.79-.01,1.64-.37,2.37-.37,.73-.9,1.36-1.43,1.98-.55,.66-1.1,1.31-1.76,1.86-1.11,.93-2.56,1.61-3.09,2.95-.35,.9-.2,1.9-.22,2.86-.04,2.16-.94,4.24-2.22,5.98-1.23,1.66-2.78,3.03-4.41,4.28,.51-2.27,.66-4.63,.45-6.95h-.08c-.03-.5,.18-.94,.49-1.33,.29-.38,.67-.71,1.02-1.02,.83-.74,1.6-1.54,2.26-2.43,.72-.97,1.3-2.02,1.86-3.09,.13-.26,.27-.51,.4-.77,1.77-3.35,3.7-6.62,5.8-9.78,1.51-2.27,3.32-1.93,3.97-11.88,.15,1.68,.27,2.7,.29,3.66Z"/>
        <path d="M38.37,160.4c-.17-.06-.31-.15-.4-.3-.1-.16-.11-.35-.12-.53-.05-.8-.09-1.65,.29-2.36l.05-.04c.2,.28,.49,.48,.8,.62,.11,.06,.23,.1,.35,.13,.54,.15,1.12,.14,1.68,.13l4.23-.09c.32,0,.63-.01,.93-.09,.21-.06,.4-.15,.58-.25-.34,.76-.25,2.37-.79,2.99-.13,.15-.42,.2-.75,.21-.6,.01-1.38-.13-1.74-.11-1.58,.09-3.17,.11-4.72-.2-.13-.02-.27-.05-.39-.11Z"/>
        <path d="M37.85,119.39h.08c.21,2.32,.06,4.68-.45,6.95-.08,.07-.17,.14-.25,.2l-.35-.04c-.1-1.22-.2-2.44-.29-3.66-.03-.28-.06-.59-.26-.8-.33-.35-.93-.21-1.31,.08s-.67,.71-1.1,.93c-.59,.31-1.34,.17-1.89-.21-.55-.37-.92-.96-1.21-1.56-.65-1.34-.95-2.85-.85-4.33-1.73,2.15-4.03,3.74-6.3,5.31-1.01,.7-2.02,1.39-3.03,2.09-.44,.31-.92,.63-1.46,.64-.49,.01-.95-.24-1.36-.52-.91-.65-1.67-1.5-2.21-2.48-.18-.32-.34-.73-.15-1.05,.09-.15,.25-.25,.4-.35,.94-.57,1.97-.97,3.02-1.32,2.31-.79,4.73-1.35,6.55-2.94,.9-.78,1.6-1.79,2.53-2.54,.52-.42,1.12-.77,1.55-1.3,.42-.52,.62-1.32,.23-1.87-.24-.35-.66-.53-1.06-.67-2.2-.77-4.68-.98-6.51-2.42-.65,2.28,.36,4.89-.68,7.02-.66,1.35-2.17,2.2-3.66,2.2-.43,0-.85-.07-1.26-.22-.8-.3-1.48-.83-2.11-1.4-1-.88-1.93-1.84-2.85-2.81-.71-.73-1.44-1.51-1.74-2.48-.2-.65-.23-1.41-.73-1.87-1.8-1.66-1.95-4.39-2.58-6.76-.2-.76-.39-1.52-.38-2.3,.04-1.44,.79-2.76,1.52-4l1.74-2.94c-.32-.63-.49-1.41-.82-2.04-.23-.45-.46-.91-.61-1.4-.21-.72-.22-1.49-.02-2.21,.28,.2,.57,.38,.88,.54,.48,.24,1,.41,1.53,.49l-.06,.31c-.07,1,1,1.67,1.94,2.03,.91,.35,1.84,.66,2.77,.95,4.15,1.32,8.36,2.44,12.61,3.36h0c.42,.1,.85,.19,1.27,.28-3.04,.26-6.1,.39-9.16,.39-.26,.67-.04,1.42,.18,2.1,.25,.77,.5,1.53,.8,2.27,.67,1.65,1.58,3.19,2.69,4.57,.64,.78,1.46,1.56,2.47,1.56,.59-.68,.31-1.75-.14-2.53-.46-.78-1.08-1.53-1.1-2.44,1.14,1.34,2.15,2.8,3,4.34,.32,.58,.62,1.18,1.08,1.67s1.1,.85,1.76,.79c.1-1.02,.13-2.04,.12-3.07,.6,1.11,1.2,2.21,1.8,3.31,.25,.45,.56,.94,1.05,1.02,.74,.12,1.24-.69,1.62-1.33,1.65-2.79,5.01-4.52,5.89-7.64,.21-.73,.26-1.48,.3-2.24,.15-2.84,.08-5.71-.19-8.55,.62,.06,1.26,.05,1.88-.06,.14,2.65,.25,5.3,.31,7.96,.01,.63,.03,1.27-.04,1.9-.12,1.05-.46,2.06-.66,3.1-.27,1.42-.26,2.89-.1,4.33,.11,.98,.29,1.97,.25,2.96-.03,.74-.21,1.5-.59,2.13-.12,.21-.28,.4-.45,.58-.85,.83-2.1,1.05-3.27,1.23-.09,.02-.19,.03-.28,.01-.25-.07-.35-.39-.28-.63,.07-.25,.26-.44,.43-.63,1.2-1.35,1.66-3.18,2.08-4.93,.25-1.02,.43-2.26-.35-2.97-.84,1.56-1.83,3.03-2.94,4.4-.54,.66-1.12,1.33-1.39,2.14-.08,.27-.13,.58,.02,.82,.08,.15,.24,.26,.34,.4,.27,.35,.22,.84,.05,1.25-.16,.4-.42,.77-.55,1.18-.24,.75-.02,1.61,.55,2.15,.36,.35,.84,.55,1.26,.85,.41,.3,.77,.75,.72,1.26l.25,.13c-.31,.39-.52,.83-.49,1.33Zm-17.24-8.74c.19-1.61-.73-3.15-.85-4.76-.04-.62,.03-1.24,.01-1.85-.02-.84-.22-1.67-.32-2.51-.1-.93-.05-1.86,.08-2.79,.07-.5,.25-1.15-.24-1.48-.59-.41-1.89-.29-2.58-.32-.92-.04-1.84-.02-2.75,.06-.18,.02-.37,.04-.52,.14-.19,.13-.27,.35-.34,.56-.88,2.72-.44,5.83,1.16,8.2,.36,.53,.78,1.17,.5,1.74-.78-.49-1.31-1.29-1.81-2.06-.38-.58-.76-1.16-1.03-1.8-.88-2.06-.52-4.43,.1-6.58,.2-.72,.44-1.47,.34-2.22-.1-.74-.67-1.49-1.43-1.51-.37-.01-.73,.16-1.03,.38-1.34,.96-1.71,2.77-1.91,4.41-.16,1.26-.27,2.58,.19,3.77,.16,.41,.39,.8,.58,1.21,.12,.27,.22,.55,.32,.83,.1,.29,.19,.57,.29,.85,.81,2.13,2.29,3.96,4.04,5.43,.39,.33,.82,.65,1.33,.71,.23,.02,.46-.01,.69,.03,.96,.16,1.42,1.39,2.37,1.65,.07,.02,.15,.03,.23,.02,.27-.06,.34-.4,.49-.63,.43-.63,1.59-.37,1.97-1.03,.07-.14,.1-.3,.12-.45Zm-2.24-15.95c.35-.27,.41-.78,.28-1.2-.13-.4-.4-.75-.75-.96-.51-.32-1.14-.35-1.74-.36-.7-.01-1.72-.19-2.34,.23-.64,.42-1.04,1.35-.73,2.07,.23,.53,.75,.85,1.26,1.11,.72,.37,1.61,.66,2.3,.25,.35-.22,.59-.58,.94-.77,.26-.14,.56-.19,.78-.37Z"/>
        <path d="M39.88,76.24c-3.02,.05-6.04,.09-9.06,.14-1.08,.01-2.16,.03-3.22,.21-2.69,.46-5.08,1.95-7.39,3.41-.35,.23-.72,.47-.88,.86-.24,.56,.05,1.19,.36,1.72,1.36,2.28,3.19,4.23,5.02,6.16,.48,.51,.96,1.02,1.51,1.45,.83,.65,1.79,1.11,2.74,1.56-.25-.07-.51-.14-.76-.21-1.76-.54-3.44-1.36-5.09-2.17s-3.34-1.65-4.56-3.02c-.43-.48-.98-1.07-1.58-.86-.23,.08-.4,.26-.57,.43-.59,.62-1.26,1.2-2.04,1.56-.78,.37-1.69,.51-2.51,.25l-.04-.37c.26-.05,.52-.12,.77-.22,.54-.22,1.02-.55,1.49-.88,1.01-.7,2.04-1.42,2.74-2.43,.32-.46,.56-.97,.68-1.52,.13-.59-.07-1.09-.04-1.65,0-.06,.02-.12,.04-.18,.14-.39,.66-.62,.97-.86,.56-.42,1.12-.83,1.68-1.25,.85-.63,1.71-1.27,2.68-1.72,1.36-.63,2.87-.85,4.35-1.07,1.21-.17,2.42-.35,3.65-.38,3.04-.09,6.04,.72,9.06,1.04Z"/>
        <path d="M7.99,86.32c-.3-.22-.6-.46-.9-.69-.69-.54-1.37-1.08-2.06-1.62-.61-.48-1.24-.98-1.71-1.6-.66-.89-.98-1.98-1.49-2.96-.32-.61-.72-1.18-.98-1.81-.49-1.17-.45-2.53,.01-3.69,.24-.6,.59-1.14,1.03-1.6,.46-.47,.68-.96,1.32-1.24,1.74-.77,3.66-1.27,5.56-1.04s3.76,1.27,4.63,2.97c.28,.53,.45,1.11,.65,1.68,.58,1.63,1.43,3.17,2.5,4.53,.27,.35,.56,.7,.76,1.1,0,.02,.02,.04,.02,.06l.16,.07c-.02,.06-.04,.12-.04,.18-.03,.56,.17,1.06,.04,1.65-.12,.55-.36,1.06-.68,1.52-.7,1.01-1.73,1.73-2.74,2.43-.47,.33-.95,.66-1.49,.88-.25,.1-.51,.17-.77,.22-.47,.07-.94,.07-1.41,0-.53-.08-1.05-.25-1.53-.49-.31-.16-.6-.34-.88-.54Zm8.04-2.29c.14-.3,.14-.63,.13-.95,0-.5-.02-1-.1-1.49-.3-1.91-1.54-3.55-1.93-5.44-.07-.32-.11-.64-.26-.93-.11-.23-.29-.41-.47-.6-.55-.59-1.45-1.92-2.12-2.37-1.71-1.16-2.51-.98-4.58-.9-.44,.02-1.94,.52-2.34,.7-.28,.13-.53,.33-.74,.55-.75,.8-1.08,1.98-.78,3.03,.07,.22,.16,.43,.32,.59,.28,.29,.73,.33,1.14,.31,.57-.04,1.22-.25,1.57,.31,.31,.51,.19,1.23,.14,1.79-.06,.75,.02,1.55,.49,2.15,.29,.37,.71,.62,1.03,.95,.43,.44,.69,1.01,1.05,1.51,.72,.97,1.81,1.6,2.86,2.19,.34,.2,.69,.4,1.08,.47,1.04,.21,2.03-.49,2.86-1.16,.26-.2,.52-.42,.65-.71Z"/>
      </g>
      <g>
        <path d="M11.13,87.91c-.27,0-.54-.02-.81-.07-.56-.09-1.13-.27-1.67-.54-.33-.17-.63-.36-.95-.58-.21-.16-.42-.32-.63-.48l-2.35-1.84c-.6-.47-1.28-1.01-1.8-1.69-.46-.62-.76-1.31-1.05-1.98-.15-.35-.31-.71-.48-1.05-.11-.22-.24-.43-.37-.65-.22-.38-.46-.78-.63-1.2-.52-1.25-.52-2.73,0-4.07,.26-.66,.64-1.25,1.13-1.76,.13-.13,.24-.27,.34-.4,.27-.33,.58-.71,1.14-.96,2.1-.93,4.06-1.29,5.82-1.08,2.21,.27,4.13,1.51,5.02,3.24,.24,.45,.4,.92,.55,1.39l.12,.35c.56,1.59,1.38,3.06,2.42,4.39l.11,.14c.15,.19,.3,.39,.45,.6,.14-.11,.28-.21,.41-.29,.09-.06,.17-.11,.25-.17l1.69-1.25c.89-.66,1.77-1.31,2.77-1.77,1.41-.65,2.95-.88,4.44-1.1l.27-.04c1.13-.16,2.3-.32,3.49-.35,2.02-.06,4.02,.27,5.97,.59,1.04,.17,2.11,.34,3.16,.46,.97,.1,1.75,.15,2.46,.13,1.44-.03,2.92-.25,4.36-.47,1.86-.28,3.77-.57,5.65-.45,.75,.05,1.45,.16,2.12,.34,.37-.28,.76-.55,1.15-.83,.39-.28,.78-.56,1.15-.83l.12-.09c.42-.31,.85-.63,1.33-.91,1.05-.63,2.21-.98,3.36-1.01,1.12-.04,2.22,.25,3.12,.82,.17-.12,.34-.23,.5-.35l.21-.14c1.74-1.18,3.54-2.4,5.42-3.37l.38-.19c.68-.34,1.31-.66,1.89-1.09,.25-.19,.49-.4,.73-.61,.61-.54,1.24-1.09,2.07-1.36,.6-.19,1.2-.19,1.78-.18,.28,0,.57,0,.85-.02,1.96-.17,3.63-1.59,5.14-3.09,.74-.73,1.53-1.51,2.55-1.87,.87-.31,1.77-.27,2.64-.23,.47,.02,.92,.04,1.36,0l.08,1c-.5,.04-1,.02-1.48,0-.81-.03-1.57-.07-2.26,.18-.81,.29-1.48,.95-2.14,1.6-1.68,1.67-3.52,3.21-5.8,3.41-.31,.03-.63,.02-.94,.02-.53,0-1.03,0-1.48,.13-.63,.2-1.15,.66-1.71,1.15-.26,.23-.51,.45-.78,.66-.64,.48-1.35,.84-2.04,1.18l-.38,.19c-1.82,.94-3.6,2.14-5.32,3.31l-.19,.13c-.25,.18-.53,.37-.8,.55l-.29,.19-.28-.21c-.78-.57-1.77-.88-2.8-.82-.98,.03-1.97,.33-2.88,.87-.44,.25-.83,.54-1.25,.85l-.12,.09c-.38,.28-.77,.56-1.17,.84-.45,.32-.9,.65-1.33,.96l-.2,.15-.24-.07c-.67-.2-1.37-.32-2.14-.37-1.76-.12-3.54,.15-5.43,.44-1.47,.22-2.99,.46-4.49,.48-.75,.02-1.57-.02-2.58-.13-1.08-.11-2.16-.29-3.21-.46-1.9-.31-3.85-.63-5.78-.57-1.13,.03-2.27,.19-3.38,.34l-.22,.03c-1.46,.22-2.93,.43-4.21,1.03-.91,.42-1.75,1.04-2.56,1.64l-1.71,1.27c-.09,.07-.19,.14-.31,.21-.19,.12-.45,.29-.49,.42-.02,.24,0,.43,.03,.62,.04,.34,.09,.72,0,1.15-.13,.59-.38,1.16-.76,1.7-.76,1.09-1.88,1.87-2.86,2.55-.53,.37-1.02,.7-1.59,.93-.26,.1-.54,.19-.86,.25-.27,.04-.53,.06-.78,.06Zm-3.3-17.4c-1.35,0-2.83,.35-4.42,1.05-.34,.15-.52,.37-.76,.67-.12,.15-.25,.31-.4,.46-.4,.42-.71,.9-.92,1.44-.43,1.09-.44,2.3-.01,3.31,.15,.37,.35,.71,.57,1.08,.13,.23,.27,.46,.39,.69,.19,.36,.35,.74,.52,1.11,.28,.65,.54,1.25,.93,1.78,.44,.58,1.06,1.07,1.62,1.5l2.34,1.84c.2,.16,.4,.31,.6,.46,.27,.19,.54,.36,.81,.5,.44,.22,.9,.37,1.38,.44,.41,.07,.84,.07,1.26,0,.24-.05,.46-.11,.66-.19,.47-.19,.91-.49,1.39-.83,.96-.67,1.96-1.36,2.62-2.31,.3-.43,.5-.88,.6-1.34,.06-.27,.03-.52,0-.81-.03-.25-.06-.5-.04-.76,0-.03,0-.06,0-.09l-.09,.03c-.15-.31-.37-.59-.6-.88l-.11-.14c-1.11-1.41-1.97-2.98-2.58-4.67l-.13-.37c-.15-.44-.29-.86-.5-1.25-.74-1.44-2.37-2.48-4.25-2.71-.29-.03-.58-.05-.88-.05Zm9,9.9h0Z"/>
        <path d="M94.62,67.37c-.51,0-1.08-.1-1.7-.3-.31-.1-.71-.25-1.03-.54-.26-.25-.41-.56-.55-.85-.23-.46-.46-.92-.69-1.39l-.29-.58c-.24-.48-.5-1.08-.59-1.72-.09-.62,.01-1.22,.27-1.69,.1-.2,.23-.36,.38-.5,.27-.26,.6-.43,.94-.58l1.86-.9c.94-.45,2.01-.82,2.9,.43,.26,.35,.51,.71,.74,1.09l.14,.21c.23,.35,.4,.63,.54,.91,.21,.41,.35,.82,.42,1.21,.07,.45,.03,.89,0,1.28-.05,.55-.15,1.28-.43,1.95-.3,.71-.78,1.29-1.35,1.61-.44,.26-.96,.39-1.55,.39Zm.03-8.73c-.3,0-.65,.13-1.1,.35l-1.86,.9c-.28,.13-.55,.26-.74,.45-.1,.09-.17,.19-.24,.32-.19,.34-.25,.77-.19,1.23,.08,.54,.31,1.06,.53,1.51l.28,.57c.23,.47,.46,.93,.69,1.39,.12,.25,.23,.48,.39,.64,.2,.19,.49,.29,.74,.37,1.12,.36,2.01,.35,2.65-.02,.44-.25,.8-.69,1.03-1.25,.24-.58,.33-1.23,.37-1.73,.04-.34,.07-.73,.01-1.09-.05-.31-.16-.64-.34-.98-.12-.25-.28-.51-.49-.82l-.16-.23c-.22-.36-.46-.7-.71-1.04-.27-.38-.54-.54-.86-.54Z"/>
        <path d="M40.59,158.55c-.46,0-.92-.02-1.38-.15-.17-.04-.32-.1-.45-.17-.4-.18-.74-.44-.97-.77-.08-.11-.15-.22-.2-.34-.26-.58-.21-1.19-.17-1.72l.42-5.15c.06-.73,.12-1.48,.12-2.2-.01-.8-.09-1.62-.18-2.39l-.36-3.45c-.03-.32-.06-.63-.08-.95-.05-.7-.09-1.37-.28-2.01-.44-1.52-.59-3.11-.73-4.65v-.12c-.16-1.72-.31-3.49-.03-5.25,.11-.67,.28-1.33,.44-1.96,.07-.27,.14-.55,.21-.82,.02-.07,.02-.12,.03-.16,.51-2.26,.65-4.55,.45-6.84l1-.09c.22,2.39,.06,4.78-.46,7.1,0,.05-.02,.15-.05,.24-.06,.26-.13,.54-.2,.82-.17,.64-.32,1.25-.42,1.88-.27,1.64-.12,3.35,.03,5.01v.1c.15,1.5,.29,3.04,.7,4.47,.22,.75,.27,1.5,.31,2.23,.02,.3,.04,.61,.07,.91l.36,3.45c.09,.79,.17,1.65,.18,2.5,0,.77-.06,1.54-.12,2.29l-.42,5.15c-.04,.44-.07,.89,.09,1.23,.02,.05,.05,.1,.1,.16,.13,.19,.34,.34,.6,.46,.09,.05,.17,.08,.27,.1,.48,.13,1.02,.12,1.54,.11l4.23-.09c.28,0,.56,0,.81-.07,.14-.04,.29-.1,.47-.2l.29-.16c1.76-1.03,3.61-1.94,5.51-2.7,.38-.16,.71-.29,.88-.52,.2-.27,.14-.64,.04-1.21l-.05-.27c-.24-1.42-.72-2.83-1.19-4.19-.53-1.55-1.08-3.15-1.3-4.82-.39-2.96,.25-5.91,.88-8.76l.85-3.83c.34-1.53,.68-3.05,1.02-4.58,.45-2.03,.9-4.09,.88-6.13,0-.4-.03-.8-.05-1.21-.06-1.07-.13-2.18,.14-3.27,.18-.72,.49-1.39,.78-2.04l.22-.49c.17-.37,.36-.74,.56-1.12,.49-.92,1-1.88,.99-2.82,0-1.59,.35-3.11,.72-4.53l.16-.61c.34-1.31,.69-2.64,1.23-3.92,.41-1.01,.92-1.94,1.48-2.96,.56-1.03,1.12-2.06,1.69-3.09l.11-.2c.49-.9,1.01-1.83,1.65-2.66,.61-.79,1.31-1.48,1.99-2.15,.97-.96,1.96-1.94,3.02-2.83,.99-.83,1.97-1.85,2.83-2.94,1.4-1.74,3.5-3.02,6.63-4.02,2.78-.89,5.7-1.4,8.66-1.52h.42c1.63-.07,3.32-.13,4.49-1.08,.27-.21,.46-.44,.55-.67,.11-.29,.09-.66,.05-.99-.13-.94-.44-1.85-.77-2.81-.09-.26-.18-.53-.27-.79-.43-1.29-.59-2.47-.71-3.48-.03-.32-.06-.64-.09-.96-.08-.84-.16-1.7-.31-2.64l.99-.17c.16,.97,.24,1.86,.32,2.71,.03,.32,.06,.63,.09,.94,.12,.99,.27,2.07,.67,3.27,.09,.26,.18,.52,.27,.78,.33,.96,.68,1.96,.82,3.01,.06,.46,.08,.98-.11,1.48-.16,.41-.45,.78-.86,1.09-1.42,1.15-3.36,1.22-5.07,1.28l-.41,.02c-2.87,.12-5.7,.62-8.4,1.48-2.93,.94-4.88,2.11-6.15,3.7-.9,1.14-1.93,2.2-2.97,3.08-1.03,.87-2.01,1.83-2.95,2.76-.67,.66-1.34,1.32-1.92,2.06-.6,.77-1.09,1.66-1.57,2.53l-.11,.2c-.57,1.03-1.13,2.06-1.69,3.09-.56,.99-1.04,1.89-1.44,2.86-.51,1.21-.85,2.52-1.18,3.78-.02,.1-.05,.21-.08,.32l-.08,.29c-.35,1.36-.69,2.81-.69,4.28,0,1.19-.56,2.26-1.11,3.29-.19,.35-.38,.71-.53,1.05l-.23,.5c-.29,.63-.57,1.23-.72,1.86-.23,.95-.17,1.93-.11,2.98,.02,.42,.05,.84,.05,1.25,.02,2.16-.44,4.27-.89,6.32-.35,1.57-.69,3.1-1.03,4.62l-.85,3.83c-.61,2.77-1.23,5.63-.86,8.42,.21,1.57,.74,3.13,1.26,4.63,.48,1.4,.98,2.85,1.23,4.35l.05,.25c.11,.6,.25,1.34-.21,1.99-.34,.46-.84,.66-1.27,.84-1.9,.76-3.71,1.64-5.42,2.65l-.29,.17c-.26,.15-.48,.24-.7,.3-.38,.1-.75,.11-1.07,.11l-4.22,.09c-.15,0-.29,0-.44,0Z"/>
        <path d="M31.57,173.21c-.06,0-.12,0-.19,0-.58-.03-1.1-.19-1.61-.34-.41-.12-.79-.24-1.17-.28-.17-.02-.34-.03-.51-.03-.48-.02-1.03-.04-1.56-.31-.55-.29-.93-.83-1.05-1.48-.12-.64,.03-1.28,.41-1.74,.41-.49,1.04-.8,1.82-.91,.48-.06,.94-.05,1.39-.04,.52,.02,1.01,.03,1.46-.08,.71-.16,1.38-.63,1.97-1.05,.37-.24,.71-.48,1.05-.72,1.1-.77,2.27-1.57,3.09-2.61,.8-.99,1.19-2.13,1.06-3.15l-.02-.11,.63-.18,.64-.09-.64,.09h.66s.02,.12,.02,.12c.17,1.37-.32,2.87-1.34,4.13-.94,1.18-2.19,2.04-3.28,2.8-.42,.3-.77,.54-1.13,.78-.64,.45-1.46,1.03-2.42,1.24-.6,.14-1.2,.13-1.78,.11-.42-.01-.81-.02-1.19,.03-.26,.03-.74,.14-1,.45-.13,.16-.18,.41-.14,.66,.05,.26,.19,.48,.38,.58,.25,.13,.6,.14,1,.16,.2,0,.41,.01,.61,.04,.5,.05,.96,.19,1.41,.33,.45,.14,.88,.27,1.3,.29,.67,.03,1.37-.22,2.1-.48,.43-.16,.88-.32,1.35-.43,1.49-.34,2.96-.12,4.39,.09,.26,.04,.52,.08,.77,.11,1.37,.19,3.11,.31,4.4-.49,.3-.18,.52-.39,.64-.61,.12-.22,.17-.52,.19-.73,.08-.74-.04-1.5-.35-2.2-.06-.14-.13-.28-.2-.42-.14-.28-.28-.56-.38-.88-.35-1.08-.17-2.14,.02-3.17,.11-.65,.22-1.25,.19-1.83,0-.15-.02-.28-.04-.4l1.28-.24c.04,.2,.06,.41,.06,.61,.04,.69-.09,1.4-.21,2.09-.16,.91-.31,1.78-.06,2.54,.08,.25,.2,.48,.31,.71,.08,.16,.16,.31,.23,.47,.4,.91,.55,1.9,.45,2.87-.04,.32-.11,.79-.35,1.22-.24,.43-.61,.79-1.1,1.09-1.64,1.01-3.67,.89-5.25,.67-.26-.03-.52-.07-.79-.11-1.37-.2-2.66-.39-3.91-.11-.39,.09-.78,.23-1.2,.39-.77,.28-1.56,.56-2.42,.56Z"/>
        <path d="M45.16,161.07c-.32,0-.67-.03-.98-.07-.28-.03-.54-.05-.69-.04-1.52,.09-3.15,.12-4.78-.21-.11-.02-.29-.05-.45-.13-.22-.08-.39-.21-.5-.4-.13-.21-.14-.45-.15-.64-.05-.76-.11-1.71,.32-2.5l.44,.24c-.36,.67-.3,1.53-.26,2.23,0,.16,.02,.31,.08,.41,.05,.09,.14,.15,.27,.2,.13,.06,.26,.08,.34,.1,1.58,.32,3.18,.28,4.67,.2,.19,0,.46,.02,.77,.05,.32,.03,.68,.06,.98,.06,.44-.01,.54-.1,.57-.12,.27-.31,.37-.99,.45-1.6,.07-.5,.14-.98,.3-1.33l.22,.1h.26s-.02,.11-.02,.11c-.13,.29-.19,.73-.26,1.19-.1,.71-.21,1.44-.57,1.86-.16,.19-.45,.28-.93,.3h-.07Z"/>
        <path d="M37.38,126.74l-.3-.4c.08-.06,.16-.12,.23-.19,1.98-1.52,3.32-2.82,4.37-4.24,.96-1.31,2.13-3.39,2.17-5.84,0-.24,0-.48,0-.73-.02-.74-.04-1.5,.24-2.22,.41-1.04,1.33-1.7,2.22-2.34,.32-.23,.65-.46,.94-.71,.62-.52,1.15-1.13,1.73-1.83,.48-.57,1.03-1.21,1.4-1.93,.38-.77,.5-1.55,.35-2.2-.2-.81,.27-1.52,.65-1.99,.1-.13,.21-.42,.32-.69,.15-.4,.29-.77,.5-.98,.26-.24,.55-.29,.79-.33,.26-.04,.39-.07,.49-.24,.07-.12,.07-.41,.07-.5,0-.31-.04-.71-.08-1.05-.04-.36-.07-.66-.06-.87,.04-.85,.11-1.44,.16-1.96,.09-.81,.15-1.46,.12-2.75,0-.26-.02-.52-.04-.8-.62,5.55-1.75,6.8-2.84,8.02-.32,.36-.62,.69-.92,1.14-2.04,3.08-3.99,6.36-5.79,9.76-.06,.13-.13,.26-.2,.38-.07,.13-.13,.25-.2,.38-.63,1.2-1.19,2.19-1.88,3.13-.62,.84-1.37,1.64-2.29,2.47-.38,.34-.73,.64-.99,.98-.32,.4-.46,.78-.44,1.16l-.5,.03h0c-.03-.51,.15-1,.54-1.5,.29-.38,.67-.71,1-1.01,.94-.84,1.67-1.62,2.27-2.43,.67-.91,1.22-1.88,1.84-3.06,.06-.13,.13-.26,.2-.39,.07-.13,.13-.25,.2-.38,1.81-3.42,3.76-6.72,5.82-9.81,.32-.47,.65-.84,.97-1.19,1.2-1.33,2.45-2.72,2.96-10.56h.5s.11,1.14,.11,1.14c.1,1.05,.17,1.8,.19,2.53,.04,1.33-.04,2.02-.12,2.82-.05,.51-.12,1.09-.16,1.93,0,.17,.02,.47,.06,.79,.04,.36,.08,.76,.08,1.1,0,.25-.02,.54-.13,.74-.21,.39-.56,.45-.84,.49-.2,.03-.38,.06-.52,.2-.13,.12-.26,.48-.38,.79-.12,.33-.24,.64-.4,.83-.5,.61-.67,1.09-.55,1.55,.23,.97-.08,1.92-.39,2.54-.4,.78-.96,1.45-1.46,2.03-.59,.71-1.14,1.34-1.79,1.89-.31,.26-.65,.5-.97,.73-.87,.62-1.69,1.21-2.04,2.12-.24,.62-.23,1.3-.21,2.03,0,.25,.01,.5,0,.75-.05,2.58-1.26,4.75-2.27,6.12-1.08,1.46-2.46,2.79-4.46,4.33-.07,.06-.17,.14-.25,.2Z"/>
        <path d="M41.85,88.78c-.25,0-.51-.01-.77-.04l-.23-.03c-1.26-.16-2.44-.53-3.59-.89l-.48-.15c-2.94-.91-6-1.56-8.96-2.2l-.88-.19,.5-.33c1.45-.96,3.35-1.3,5.82-1.05,.73,.07,1.46,.18,2.18,.29,1.18,.18,2.42,.39,3.61,.36,2.19,0,4.04-.74,5.07-2.02,.42-.53,.73-1.18,1.03-1.81,.4-.84,.8-1.71,1.51-2.35,.46-.41,1-.7,1.52-.99l.06-.03,1.56-.83c.81-.43,1.62-.86,2.44-1.29h0s.05-.03,.05-.03l.09,.18,.22,.2-.09,.07c-.84,.44-1.66,.88-2.48,1.32l-1.56,.83c-.55,.3-1.06,.58-1.47,.95-.63,.58-1,1.37-1.39,2.2-.31,.65-.63,1.33-1.09,1.91-1.13,1.41-3.13,2.21-5.52,2.21-1.22,0-2.44-.19-3.63-.37-.7-.11-1.43-.22-2.15-.29-2.05-.21-3.67,0-4.95,.65,2.87,.62,5.83,1.26,8.68,2.14l.48,.15c1.12,.36,2.29,.72,3.46,.87l.26,.03c.64,.06,1.25,.04,1.81-.06,.66-.11,1.24-.33,1.74-.64,.81-.5,1.41-1.25,2.04-2.03,.31-.39,.64-.79,.99-1.16,1.38-1.47,3.18-2.42,4.92-3.34,1.3-.69,2.65-1.41,3.8-2.33,.58-.46,1.13-.99,1.66-1.5,1.07-1.03,2.18-2.09,3.58-2.69,.36-.15,.75-.28,1.12-.4,1.1-.36,2.14-.7,2.62-1.61l.44,.23c-.57,1.08-1.76,1.47-2.91,1.85-.36,.12-.74,.24-1.08,.38-1.31,.56-2.34,1.54-3.42,2.59-.54,.52-1.1,1.06-1.7,1.54-1.19,.95-2.56,1.68-3.88,2.38-1.71,.9-3.47,1.84-4.79,3.25-.34,.35-.65,.75-.96,1.13-.63,.78-1.29,1.59-2.17,2.14-.55,.35-1.2,.58-1.92,.71-.38,.07-.77,.1-1.18,.1Z"/>
        <path d="M93.36,65.17c-.47,0-1.02-.03-1.51-.29-.35-.19-.61-.46-.86-.72-.14-.14-.28-.29-.43-.42l.32-.38c.17,.14,.32,.3,.47,.45,.24,.25,.46,.48,.74,.63,.38,.2,.86,.23,1.27,.23,.82,0,1.46-.1,2-.32,.65-.27,1.15-.73,1.39-1.28,.16-.36,.21-.75,.23-1.05,.02-.32,.03-.6-.02-.87-.03-.12-.05-.23-.1-.35-.1-.24-.25-.44-.45-.55-.11-.08-.21-.12-.31-.14l.06-.5c.19,.02,.37,.1,.53,.22,.26,.16,.5,.44,.63,.79,.06,.14,.09,.29,.12,.44,.06,.35,.04,.69,.02,1-.03,.34-.08,.79-.27,1.21-.28,.66-.89,1.22-1.65,1.54-.6,.25-1.29,.36-2.19,.36Z"/>
        <path d="M39.58,157.87c-.17,0-.35,0-.52,0l.02-.5c2.96,.11,6.04-.76,8.9-2.53,.43-.26,.89-.59,1.04-1.05,.06-.18,.07-.39,.07-.65,.01-3.38-.79-6.45-2.32-8.88-.18-.29-.37-.58-.57-.86-.32-.47-.65-.96-.92-1.47-.63-1.2-.8-2.44-.99-3.75-.03-.22-.06-.43-.09-.65l-.08-.52,.45,.26c1.48,.86,2.6,2.37,3.01,4.04,.02,.08,.04,.17,.06,.25,.07,.28,.13,.54,.27,.77,.11,.18,.31,.33,.52,.35-.02-.78-.29-1.54-.6-2.36l-1.43-3.85,.47,.13c.34,.1,.66,.27,.92,.5,.05-.44,.04-.89,.03-1.37,0-.2-.01-.4-.01-.6,.02-1.71,.45-3.38,.87-5,.08-.3,.15-.6,.23-.89,1.32-5.25,1.88-10.3,1.66-15.03v-.16s.13-.08,.13-.08c1.38-.75,2.45-2.04,2.94-3.53,.06-.2,.12-.4,.17-.61,.09-.34,.19-.7,.32-1.04,.23-.61,.58-1.15,.92-1.68,.34-.53,.66-1.03,.88-1.59,.13-.33,.2-.68,.27-1,.1-.57,.13-1.17,.16-1.76,.03-.71,.06-1.43,.1-2.15l.05-1.07c0-.35,.03-.69,.05-1.05v-.15c.05-.68,.09-1.39,.33-2.06,.11-.33,.27-.64,.42-.93,.21-.41,.4-.8,.49-1.22,.07-.3,.08-.62,.09-.95,.01-.46,.02-.94,.21-1.39,.26-.64,.79-1.09,1.29-1.51l.2-.17c1.15-.98,2.16-2.28,2.91-3.75,.57-1.12,1.39-2.13,2.37-2.92,.26-.21,.52-.4,.79-.6,.52-.38,1.02-.74,1.42-1.19,.25-.28,.47-.6,.68-.91,.18-.27,.36-.53,.56-.78,.75-.89,1.76-1.52,2.65-2.07,.95-.59,2.02-1.27,3.22-1.54,.39-.09,.8-.14,1.19-.19,.61-.07,1.19-.14,1.72-.37,.39-.17,.75-.41,1.13-.67,.49-.34,1-.69,1.6-.86,.54-.15,1.09-.12,1.62-.1h.16c.75,.04,1.55,.04,2.46,0,.43-.02,.87-.05,1.2-.27,.42-.29,.6-.84,.72-1.35,.21-.84,.32-1.73,.33-2.64v-1.25s.48,1.16,.48,1.16c.26,.66,.74,1.24,1.31,1.62,.24-.36,.29-.85,.34-1.3l.33-3.56h.5c.07,1.04,.18,2.09,.33,3.12,.03,.28,.08,.6,.25,.8,.07,.09,.17,.15,.27,.18,.07,.02,.16,.03,.24-.03,.12-.08,.16-.3,.2-.46,.17-.83,.32-1.61,.49-2.4l.49,.1c-.17,.78-.32,1.57-.48,2.35-.06,.28-.13,.62-.4,.81-.18,.13-.41,.18-.66,.12-.21-.05-.41-.18-.54-.36-.24-.3-.31-.7-.35-1.04-.03-.18-.05-.36-.07-.54l-.09,.96c-.06,.57-.13,1.27-.6,1.75l-.13,.14-.17-.1c-.5-.29-.93-.68-1.27-1.16-.05,.64-.16,1.26-.31,1.86-.15,.6-.37,1.26-.93,1.65-.44,.29-.96,.33-1.45,.35-.92,.04-1.74,.05-2.5,.01h-.15c-.52-.03-1-.04-1.47,.08-.52,.14-.97,.45-1.44,.78-.38,.27-.78,.54-1.22,.73-.59,.25-1.24,.33-1.86,.4-.38,.05-.77,.09-1.13,.18-1.11,.26-2.15,.91-3.06,1.48-.86,.54-1.83,1.14-2.53,1.97-.19,.23-.36,.49-.54,.74-.22,.32-.45,.66-.72,.96-.44,.5-.98,.89-1.51,1.27-.26,.19-.52,.38-.77,.58-.93,.74-1.7,1.7-2.23,2.76-.78,1.53-1.83,2.88-3.03,3.91l-.21,.18c-.48,.41-.94,.79-1.15,1.32-.15,.37-.16,.78-.17,1.22,0,.34-.02,.69-.1,1.04-.1,.48-.32,.92-.53,1.34-.15,.3-.29,.58-.39,.88-.22,.61-.25,1.25-.29,1.92v.1c-.03,.4-.05,.74-.06,1.09l-.05,1.07c-.04,.72-.07,1.43-.1,2.15-.03,.61-.06,1.23-.16,1.83-.07,.35-.15,.72-.29,1.09-.23,.61-.58,1.16-.92,1.69-.34,.53-.66,1.03-.88,1.6-.13,.32-.22,.66-.31,.99-.06,.21-.11,.43-.18,.63-.51,1.56-1.62,2.92-3.04,3.74,.2,4.73-.37,9.78-1.68,15.02-.07,.3-.15,.6-.23,.9-.41,1.59-.84,3.23-.85,4.87,0,.19,0,.39,0,.59,.02,.65,.03,1.33-.13,1.98l-.13,.52-.32-.43c-.14-.19-.31-.35-.51-.48l1.05,2.83c.35,.92,.67,1.82,.64,2.76v.17s-.17,.06-.17,.06c-.52,.18-1.03-.15-1.27-.54-.18-.29-.25-.61-.33-.91-.02-.08-.04-.17-.06-.25-.33-1.37-1.18-2.62-2.32-3.44,0,.04,.01,.07,.02,.11,.18,1.27,.35,2.47,.94,3.59,.25,.49,.58,.97,.89,1.43,.2,.29,.39,.58,.58,.88,1.58,2.5,2.41,5.66,2.4,9.14,0,.26-.01,.54-.09,.8-.21,.62-.75,1.02-1.26,1.32-2.78,1.72-5.76,2.62-8.65,2.62Z"/>
        <path d="M36.63,126.52c-.1-1.22-.2-2.44-.29-3.66-.03-.25-.05-.5-.19-.65-.22-.23-.68-.12-.98,.11-.14,.11-.27,.23-.4,.36-.22,.22-.45,.44-.74,.59-.62,.33-1.47,.24-2.15-.23-.65-.44-1.05-1.16-1.29-1.66-.57-1.17-.87-2.45-.89-3.73-1.69,1.91-3.82,3.38-5.89,4.81-.53,.37-1.06,.73-1.59,1.1l-1.44,.99c-.5,.35-1,.67-1.6,.69-.6,0-1.11-.3-1.51-.56-.94-.67-1.73-1.56-2.29-2.56-.3-.53-.35-.96-.15-1.3,.11-.19,.29-.31,.45-.41,1.07-.65,2.17-1.06,3.11-1.37,.41-.14,.83-.27,1.24-.41,1.94-.62,3.77-1.21,5.22-2.48,.41-.36,.79-.77,1.15-1.17,.43-.47,.87-.96,1.38-1.37,.16-.13,.32-.25,.49-.37,.38-.28,.74-.55,1.03-.89,.35-.44,.54-1.12,.22-1.57-.2-.29-.57-.45-.94-.58-.68-.24-1.4-.42-2.09-.61-1.45-.38-2.94-.77-4.18-1.63-.18,.88-.15,1.83-.11,2.75,.05,1.34,.1,2.72-.5,3.95-.68,1.4-2.25,2.34-3.88,2.34-.47,0-.92-.08-1.35-.24-.89-.33-1.61-.92-2.19-1.45-1.03-.91-1.98-1.89-2.86-2.82-.8-.82-1.49-1.59-1.8-2.58-.06-.18-.1-.37-.14-.55-.11-.47-.21-.92-.52-1.21-1.45-1.33-1.87-3.31-2.27-5.23-.12-.55-.24-1.12-.38-1.65-.22-.83-.4-1.58-.39-2.37,.04-1.56,.88-2.98,1.55-4.12l1.67-2.83c-.13-.29-.24-.6-.35-.9-.12-.35-.25-.71-.41-1.01-.24-.48-.47-.94-.63-1.44-.23-.78-.23-1.59-.02-2.35,0-.04,.03-.12,.05-.19l.48,.15c-.02,.05-.03,.1-.04,.14-.19,.7-.19,1.42,.01,2.1,.14,.46,.35,.88,.59,1.36,.18,.34,.31,.71,.44,1.08,.12,.35,.24,.67,.38,.96l.06,.12-1.81,3.06c-.64,1.09-1.45,2.46-1.49,3.88,0,.72,.16,1.41,.37,2.23,.15,.55,.27,1.12,.38,1.68,.39,1.84,.79,3.74,2.12,4.96,.42,.39,.55,.94,.67,1.46,.04,.17,.08,.35,.13,.52,.27,.88,.92,1.6,1.68,2.38,.88,.92,1.81,1.9,2.84,2.8,.55,.5,1.23,1.05,2.03,1.35,.37,.14,.77,.2,1.17,.2,1.45,0,2.83-.83,3.44-2.06,.55-1.12,.5-2.38,.45-3.71-.04-1.08-.08-2.21,.22-3.27l.1-.36,.29,.23c1.22,.96,2.72,1.35,4.31,1.76,.71,.18,1.44,.37,2.13,.62,.45,.16,.91,.36,1.18,.76,.48,.68,.21,1.6-.24,2.17-.32,.4-.73,.69-1.12,.98-.16,.12-.32,.23-.47,.35-.48,.39-.91,.86-1.33,1.32-.38,.41-.76,.84-1.2,1.21-1.53,1.34-3.5,1.97-5.4,2.58-.41,.13-.82,.26-1.23,.4-.92,.31-1.98,.7-2.97,1.3-.15,.1-.26,.17-.32,.27-.1,.17-.05,.44,.15,.8,.52,.94,1.26,1.77,2.14,2.4,.33,.22,.76,.48,1.21,.47,.45,0,.88-.29,1.32-.59l1.44-.99c.53-.37,1.06-.73,1.59-1.1,2.23-1.54,4.54-3.14,6.25-5.26l.5-.62-.05,.79c-.1,1.44,.19,2.89,.83,4.2,.22,.45,.57,1.09,1.12,1.46,.53,.36,1.17,.44,1.63,.2,.23-.12,.42-.3,.62-.5,.14-.14,.29-.28,.44-.4,.48-.37,1.22-.51,1.64-.05,.25,.27,.29,.63,.33,.93,.09,1.24,.19,2.46,.29,3.68l-.5,.04Z"/>
        <path d="M33.63,108.52c-.06,0-.13,0-.19-.02-.65-.11-1.03-.78-1.23-1.15l-.14-.26c-.4-.73-.8-1.46-1.19-2.19-.01,.75-.05,1.45-.12,2.11l-.02,.21-.21,.02c-.67,.06-1.39-.26-1.96-.87-.42-.45-.72-.99-1-1.5l-.12-.22c-.64-1.16-1.37-2.28-2.19-3.33,.13,.23,.27,.47,.42,.71,.1,.16,.2,.32,.3,.48,.24,.42,.96,1.85,.11,2.82l-.07,.09h-.11c-1.17,0-2.08-.94-2.66-1.65-1.13-1.41-2.05-2.97-2.73-4.63-.3-.73-.54-1.47-.81-2.29-.25-.78-.46-1.54-.18-2.27l.06-.16h.17c2.48,0,4.98-.09,7.46-.26-4.13-.91-8.25-2.01-12.25-3.28-1.09-.34-1.97-.64-2.78-.95-.82-.32-2.19-1.03-2.1-2.28l.5,.04c-.07,.96,1.22,1.57,1.78,1.78,.8,.31,1.67,.61,2.75,.94,4.11,1.31,8.35,2.44,12.59,3.35l2.91,.63-1.67,.14c-2.97,.25-6,.39-9,.39-.14,.54,.03,1.14,.24,1.77,.26,.81,.5,1.54,.79,2.25,.66,1.62,1.55,3.14,2.65,4.51,.49,.6,1.25,1.4,2.16,1.46,.4-.58,.15-1.48-.24-2.15-.09-.15-.19-.31-.29-.46-.41-.64-.83-1.3-.85-2.1l-.02-.7,.46,.54c1.15,1.36,2.17,2.83,3.03,4.38l.12,.22c.28,.51,.54,1,.92,1.4,.41,.43,.89,.69,1.35,.71,.08-.86,.11-1.79,.1-2.82v-1.01s.47,.89,.47,.89c.55,1.02,1.11,2.04,1.66,3.05l.14,.25c.22,.4,.49,.83,.87,.89,.54,.09,.96-.52,1.36-1.21,.7-1.19,1.72-2.2,2.69-3.17,1.38-1.37,2.68-2.66,3.17-4.41,.2-.69,.25-1.4,.29-2.19,.15-2.78,.08-5.65-.19-8.51,0-.03,0-.07,0-.1v-.09s.49-.07,.49-.07c0,.04,0,.08,.01,.12v.08c.28,2.9,.35,5.79,.2,8.6-.04,.82-.1,1.56-.31,2.3-.53,1.88-1.94,3.28-3.3,4.63-.96,.95-1.94,1.93-2.61,3.07-.35,.59-.87,1.47-1.68,1.47Z"/>
        <path d="M38.22,117.94l-.25-.02c.05-.55-.45-.99-.67-1.15-.15-.11-.32-.21-.48-.31-.27-.16-.55-.33-.79-.55-.6-.57-.84-1.49-.58-2.28,.08-.24,.2-.47,.31-.69,.08-.16,.17-.33,.24-.5,.09-.21,.26-.75-.03-1.13-.04-.06-.09-.11-.14-.16-.08-.08-.16-.16-.21-.26-.18-.29-.1-.66-.03-.91,.26-.78,.79-1.42,1.3-2.04l.11-.14c1.12-1.39,2.11-2.86,2.93-4.38l.08-.14,.12,.11c.83,.76,.64,2.05,.39,3.09-.4,1.68-.86,3.58-2.11,4.98l-.06,.06c-.15,.17-.29,.32-.35,.52-.03,.11-.02,.25,.04,.34,.03,.05,.07,.11,.16,.13,.05,0,.13,0,.22-.01,1.29-.2,2.42-.42,3.21-1.2,.13-.14,.3-.33,.43-.55,.34-.57,.54-1.29,.57-2.07,.03-.74-.07-1.5-.16-2.24-.03-.24-.06-.47-.09-.7-.18-1.63-.15-3.06,.1-4.37,.08-.41,.18-.82,.28-1.22,.15-.61,.31-1.24,.38-1.87,.06-.56,.05-1.14,.04-1.7v-.18c-.06-2.46-.16-5.06-.31-7.96h.25c.15,2.88,.25,5.49,.31,7.95v.18c.01,.57,.02,1.16-.04,1.73-.07,.65-.23,1.29-.39,1.91-.1,.39-.2,.8-.28,1.2-.24,1.29-.28,2.69-.1,4.29,.03,.23,.06,.47,.09,.7,.1,.74,.2,1.51,.16,2.28-.03,.83-.24,1.59-.61,2.19-.14,.24-.32,.45-.47,.6-.85,.83-2.01,1.06-3.34,1.27-.12,.03-.23,.03-.33,0-.14-.04-.24-.12-.31-.25-.09-.16-.11-.36-.06-.54,.07-.25,.24-.44,.4-.62l.06-.06c1.21-1.36,1.66-3.23,2.05-4.88,.23-.92,.4-2.05-.2-2.73-.81,1.48-1.78,2.92-2.87,4.27l-.11,.14c-.5,.6-1.01,1.23-1.25,1.96-.1,.32-.09,.55,0,.71,.04,.08,.1,.14,.17,.21,.06,.06,.12,.12,.16,.19,.26,.34,.28,.84,.06,1.37-.07,.18-.16,.35-.25,.52-.12,.22-.23,.43-.3,.65-.23,.7-.02,1.52,.52,2.02,.21,.21,.47,.36,.74,.52,.17,.1,.34,.2,.5,.32,.54,.39,.82,.89,.77,1.37Z"/>
        <path d="M17.96,113.01c-.08,0-.15-.01-.23-.03-.52-.14-.89-.52-1.25-.89-.35-.35-.67-.69-1.09-.75-.12-.02-.24-.02-.36-.02-.11,0-.21,0-.31,0-.57-.07-1.04-.41-1.47-.77-1.93-1.62-3.35-3.53-4.11-5.53-.06-.17-.12-.34-.18-.51l-.12-.34c-.1-.28-.2-.55-.31-.81-.07-.15-.15-.3-.23-.46-.13-.25-.26-.5-.36-.76-.49-1.26-.37-2.61-.21-3.89,.21-1.7,.61-3.58,2.01-4.58,.39-.29,.8-.42,1.18-.43,.9,.02,1.56,.9,1.67,1.73,.1,.74-.1,1.45-.3,2.14l-.05,.18c-.78,2.72-.82,4.76-.11,6.41h0c.26,.62,.64,1.2,1.01,1.76,.4,.62,.85,1.3,1.44,1.78-.01-.36-.26-.76-.55-1.18-1.63-2.42-2.09-5.64-1.19-8.42,.07-.2,.17-.51,.44-.69,.2-.14,.43-.16,.63-.18,.92-.08,1.86-.1,2.79-.06,.15,0,.32,0,.51,0,.74,0,1.67,0,2.2,.36,.56,.38,.45,1.05,.37,1.54l-.03,.18c-.14,1.01-.17,1.91-.08,2.73,.04,.29,.08,.59,.13,.89,.09,.54,.18,1.09,.19,1.64,0,.28,0,.56,0,.84-.01,.33-.02,.67,0,1,.05,.65,.24,1.31,.42,1.95,.27,.92,.54,1.87,.42,2.85-.02,.16-.06,.35-.14,.53-.25,.44-.73,.56-1.15,.66-.35,.08-.68,.17-.83,.4-.03,.05-.06,.12-.1,.18-.1,.21-.23,.48-.55,.55-.04,0-.08,0-.12,0Zm-2.89-2.2c.13,0,.27,0,.4,.03,.58,.1,.98,.5,1.36,.9,.33,.33,.64,.65,1.03,.76,.05,.01,.1,.02,.13,.01,.05-.01,.1-.12,.18-.28,.04-.08,.08-.17,.13-.24,.27-.39,.73-.5,1.13-.6,.37-.09,.69-.17,.83-.41,.05-.1,.07-.24,.09-.36,.1-.88-.15-1.74-.41-2.65-.19-.67-.39-1.35-.44-2.06-.02-.36-.01-.71,0-1.05,0-.27,.02-.54,0-.81-.01-.52-.1-1.04-.18-1.58-.05-.3-.1-.61-.13-.91-.09-.87-.07-1.8,.08-2.85l.03-.19c.08-.51,.11-.86-.16-1.04-.4-.28-1.27-.27-1.92-.27-.2,0-.38,0-.54,0-.91-.04-1.82-.02-2.72,.06-.15,.02-.3,.03-.4,.1-.12,.08-.18,.24-.24,.43-.85,2.63-.42,5.69,1.13,7.98,.35,.51,.87,1.28,.52,1.99l-.12,.25-.23-.15c-.84-.53-1.4-1.38-1.89-2.14-.38-.58-.77-1.18-1.05-1.84h0c-.99-2.33-.42-4.97,.09-6.75l.05-.18c.18-.64,.37-1.3,.28-1.94-.08-.61-.56-1.28-1.19-1.29-.32,0-.66,.17-.88,.33-1.25,.89-1.6,2.56-1.81,4.24-.15,1.22-.27,2.5,.18,3.65,.09,.24,.22,.48,.34,.72,.08,.16,.16,.32,.24,.48,.12,.27,.22,.55,.32,.83l.12,.37c.06,.17,.11,.33,.17,.5,.73,1.91,2.1,3.75,3.97,5.32,.34,.29,.74,.6,1.2,.65,.08,0,.17,0,.26,0h.04Z"/>
        <path d="M15.88,96.28c-.48,0-1.03-.16-1.64-.48-.56-.29-1.11-.63-1.38-1.23h0c-.38-.89,.13-1.92,.82-2.38,.56-.38,1.37-.33,2.02-.29,.16,0,.32,.02,.46,.02,.67,.01,1.32,.05,1.87,.4,.39,.24,.71,.64,.85,1.09,.15,.48,.09,1.12-.36,1.48-.16,.13-.34,.2-.52,.27-.1,.04-.2,.07-.29,.12-.16,.08-.29,.22-.44,.36-.15,.14-.3,.29-.48,.4-.27,.16-.57,.24-.9,.24Zm-2.56-1.91c.2,.45,.67,.74,1.14,.99,.89,.46,1.58,.54,2.06,.26,.14-.09,.27-.21,.4-.34,.16-.16,.33-.32,.55-.44,.11-.06,.23-.11,.35-.15,.15-.06,.29-.11,.39-.19,.27-.21,.3-.62,.2-.93-.11-.34-.34-.64-.64-.82-.45-.28-1.02-.31-1.62-.33-.15,0-.31-.01-.48-.02-.61-.04-1.29-.08-1.71,.21-.53,.35-.91,1.14-.64,1.76Z"/>
        <path d="M28.89,91.99l-.76-.21c-1.81-.55-3.5-1.38-5.13-2.19-1.58-.78-3.37-1.65-4.64-3.08-.45-.5-.88-.94-1.31-.79-.16,.06-.3,.19-.45,.34-.76,.8-1.44,1.32-2.14,1.64-.91,.43-1.86,.52-2.69,.26l.15-.48c.71,.23,1.53,.14,2.33-.24,.65-.3,1.27-.78,1.97-1.51,.21-.21,.4-.4,.67-.49,.77-.27,1.42,.45,1.85,.93,1.2,1.35,2.87,2.17,4.48,2.96,1.02,.5,2.06,1.01,3.13,1.46-.1-.07-.19-.14-.29-.21-.57-.44-1.06-.97-1.54-1.48-1.71-1.8-3.65-3.85-5.05-6.2-.33-.56-.66-1.28-.38-1.95,.19-.45,.59-.72,.96-.96,2.22-1.41,4.72-2.98,7.5-3.46,1.06-.18,2.15-.2,3.26-.21,1.51-.02,3.02-.05,4.53-.07,1.51-.02,3.02-.04,4.53-.07,.13,0,.25,0,.37,0,.12,0,.25,0,.38,0v.5c-.12,0-.24,0-.36,0-.12,0-.25,0-.38,0-1.51,.02-3.02,.05-4.53,.07-1.51,.02-3.02,.04-4.53,.07-1.14,0-2.16,.03-3.18,.21-2.68,.46-5.14,2.01-7.3,3.38-.34,.23-.65,.43-.78,.74-.2,.46,.06,1.02,.34,1.5,1.37,2.3,3.29,4.33,4.99,6.11,.47,.5,.95,1.01,1.48,1.42,.82,.65,1.82,1.12,2.69,1.53l-.17,.47Z"/>
      </g>
    </g>
  </g>
</svg>