<?xml version="1.0" encoding="UTF-8"?>
<svg id="Layer_2" data-name="Layer 2" xmlns="http://www.w3.org/2000/svg" xmlns:xlink="http://www.w3.org/1999/xlink" viewBox="0 0 129.26 129.26">
  <defs>
    <style>
      .cls-1 {
        fill: #1a1a1a;
      }

      .cls-2 {
        fill: url(#linear-gradient);
      }
    </style>
    <linearGradient id="linear-gradient" x1="16.79" y1="63.74" x2="113.7" y2="63.74" gradientUnits="userSpaceOnUse">
      <stop offset="0" stop-color="#b49b56"/>
      <stop offset=".28" stop-color="#e5ddc5"/>
      <stop offset="1" stop-color="#b49b56"/>
    </linearGradient>
  </defs>
  <g id="Layer_1-2" data-name="Layer 1">
    <rect class="cls-1" width="129.26" height="129.26"/>
    <path class="cls-2" d="M16.79,33.88c0-1.24,.38-2.55,1.13-3.93,.75-1.38,1.71-2.64,2.87-3.8,1.15-1.15,2.42-2.11,3.8-2.87,1.38-.75,2.69-1.13,3.93-1.13H113.7v18.66H16.79v-6.93Zm9.53,38.66c-1.82-.53-3.45-1.42-4.87-2.67-1.42-1.24-2.56-2.84-3.4-4.8-.85-1.95-1.27-4.4-1.27-7.33v-3.33H101.97c3.11,.53,5.84,1.98,8.2,4.33,2.35,2.36,3.53,6.02,3.53,11v23.86c0,1.25-.38,2.56-1.13,3.93-.76,1.38-1.69,2.64-2.8,3.8-1.11,1.16-2.36,2.11-3.73,2.87-1.38,.76-2.73,1.13-4.07,1.13H16.79v-19.2H87.98l2.13-1.6v-9.73l-1.73-1.47H31.86c-1.87,0-3.71-.27-5.53-.8Z"/>
  </g>
</svg>