<?xml version="1.0" encoding="UTF-8"?>
<svg id="Layer_2" data-name="Layer 2" xmlns="http://www.w3.org/2000/svg" viewBox="0 0 219.85 145.42">
  <defs>
    <style>
      .cls-1 {
        fill: #282828;
      }

      .cls-2 {
        fill: none;
      }

      .cls-2, .cls-3 {
        stroke: #282828;
        stroke-miterlimit: 10;
        stroke-width: 6px;
      }

      .cls-3 {
        fill: #4bcedb;
      }
    </style>
  </defs>
  <g id="Layer_1-2" data-name="Layer 1">
    <polygon class="cls-3" points="106.67 107.88 165.63 33.05 137.29 3 106.67 3 76.06 3 47.71 33.05 106.67 107.88"/>
    <polyline class="cls-2" points="76.06 3 82.29 33.05 106.67 107.88"/>
    <line class="cls-2" x1="82.29" y1="33.05" x2="106.67" y2="3"/>
    <polyline class="cls-2" points="165.63 33.05 106.67 33.05 47.71 33.05"/>
    <polyline class="cls-2" points="137.29 3 131.05 33.05 106.67 107.88"/>
    <line class="cls-2" x1="131.05" y1="33.05" x2="106.67" y2="3"/>
    <path class="cls-1" d="M2.26,45.12c3.04-2.78,9.39-2.35,12.26,2.69s2.62,7.3,2.98,6.66,4.54-5.3,8.36-5.88,20.34-.64,22.82-.5,7.09-.21,7.58-.57,2.2-2.62,3.83-2.76,4.04,1.42,4.04,1.42c0,0,7.44-4.68,8.57-5.39s.85-1.28,2.55-1.98,4.89-.71,6.66-2.2,5.95-3.24,7.51-3.57,2.98-1.96,3.83-1.96,2.76-.92,3.61,1.13,.57,6.73-.43,7.44-5.46-.21-5.46-.21c0,0,1.13,4.89,2.13,7.02s.28,3.47-2.48,4.18-11.36,1.77-14.57,3.4-11.72,6.94-16.82,21.12-3.61,17.36-3.76,19.49-2.13,7.37-2.83,9.43-2.27,7.72-1.98,10.56,3.33,10.7,3.4,11.91-7.8,4.75-7.8,4.75c0,0-1.06,3.61-.99,5.95s1.91,5.88,.92,7.37-4.25-.14-8.22,.35-8.93,.58-9.85,.29-2.2-.43-2.41-1.35,2.27-1.42,4.18-1.91,7.23-3.83,8.08-5.46,0-14.03,0-15.87-.35-7.23-.64-8.08-1.63-5.31-1.2-7.16,.71-9,.43-9.28-.78-1.06-1.63-.85-1.28,.78-1.84,.78-1.91-.85-2.41-1.49-1.28-3.4-1.28-3.4c0,0-8.93,6.94-10.35,7.23s-4.82-3.26-4.25-4.39,9.57-3.9,14.81-8.57l.28-1.91s-3.05-.64-4.54-1.06-3.26-1.49-3.26-1.49c0,0,1.28,5.35-.85,7.18s-1.63,2.82-4.11,2.11-6.02-3.69-6.94-5.67-3.9-7.72-4.25-11.34,4.68-12.26,1.77-13.04-4.66-2.92-5.81-4.77-3.83-6.5,.35-10.32Z"/>
    <path class="cls-1" d="M118.91,31.51c1.73-.48,8.79,3.26,9.57,3.33s2.91-.07,3.61,0,11.55,5.74,12.9,6.87,11.83,5.74,13.75,6.73,5.6,1.13,5.6,1.13l3.47,2.34s6.52,1.63,15.17,1.49,12.19-.97,14.03,0,6.38,4.31,6.66,4.38,1.49-3.33,3.05-5.24,4.32-3.76,7.16-3.54,5.53,2.48,5.95,6.66-3.4,7.44-5.24,8.43-3.05,1.98-3.05,2.91-.14,2.98,.64,4.96,2.13,6.17,.99,9.14-3.83,6.09-4.25,7.51-4.96,4.82-4.96,4.82c0,0-2.83,1.35-4.04,0s-2.48-4.04-2.2-4.89-.5-3.26-.5-3.26c0,0-2.91,1.2-3.97,1.28s-2.13,1.77-2.13,1.77c0,0,11.91,7.3,12.05,7.58s-4.54,3.47-5.17,3.47-7.16-6.66-7.16-6.66c0,0-2.69,5.81-2.98,5.81s-2.2-2.27-5.17-1.84c0,0-2.48,11.69-4.75,14.53s-4.82,2.98-6.59,2.69-6.73-3.97-10.2-11.48-5.31-13.89-5.24-15.24,1.35-4.89,.64-6.17-3.69-5.31-6.38-6.02-5.74-1.37-5.81-2.28,.71-2.68,4.32-2.47,6.02,1.2,7.16,.99,4.89-.14,4.89-.14c0,0-2.83-5.67-8.08-8.57s-8.5-6.28-10.91-7.11-14.88-3.17-16.09-5.5,1.49-9.43,1.49-9.43c0,0-4.04-.35-6.66,.43s-3.69-.07-3.69-.99-1.2-7.51,2.13-8.43Z"/>
  </g>
</svg>